<?xml version="1.0" encoding="UTF-8" standalone="no"?>
<svg width="800" height="600" xmlns="http://www.w3.org/2000/svg">
    <!-- 背景 -->
    <rect width="800" height="600" fill="#f8f9fa" />
    
    <!-- 标题 -->
    <text x="400" y="30" font-family="Arial, sans-serif" font-size="24" text-anchor="middle" fill="#333">网桥与veth pair协作原理</text>
    
    <!-- 主机节点边框 -->
    <rect x="50" y="60" width="700" height="500" rx="10" ry="10" fill="#e9ecef" stroke="#adb5bd" stroke-width="2" />
    <text x="400" y="80" font-family="Arial, sans-serif" font-size="18" text-anchor="middle" fill="#495057">主机网络命名空间</text>
    
    <!-- 网桥 -->
    <rect x="150" y="300" width="500" height="60" rx="5" ry="5" fill="#4dabf7" stroke="#339af0" stroke-width="2" />
    <text x="400" y="335" font-family="Arial, sans-serif" font-size="16" text-anchor="middle" fill="white">网桥 (cni0)</text>
    
    <!-- Pod 1 网络命名空间 -->
    <rect x="100" y="120" width="200" height="140" rx="10" ry="10" fill="#ffd8a8" stroke="#ffa94d" stroke-width="2" />
    <text x="200" y="140" font-family="Arial, sans-serif" font-size="16" text-anchor="middle" fill="#495057">Pod 1 网络命名空间</text>
    
    <!-- Pod 1 eth0 -->
    <rect x="130" y="160" width="140" height="40" rx="5" ry="5" fill="#fff9db" stroke="#ffec99" stroke-width="2" />
    <text x="200" y="185" font-family="Arial, sans-serif" font-size="14" text-anchor="middle" fill="#495057">eth0: 10.244.1.2</text>
    
    <!-- Pod 1 应用 -->
    <rect x="150" y="210" width="100" height="30" rx="5" ry="5" fill="#d0bfff" stroke="#9775fa" stroke-width="1" />
    <text x="200" y="230" font-family="Arial, sans-serif" font-size="12" text-anchor="middle" fill="#495057">应用容器</text>
    
    <!-- Pod 2 网络命名空间 -->
    <rect x="500" y="120" width="200" height="140" rx="10" ry="10" fill="#ffd8a8" stroke="#ffa94d" stroke-width="2" />
    <text x="600" y="140" font-family="Arial, sans-serif" font-size="16" text-anchor="middle" fill="#495057">Pod 2 网络命名空间</text>
    
    <!-- Pod 2 eth0 -->
    <rect x="530" y="160" width="140" height="40" rx="5" ry="5" fill="#fff9db" stroke="#ffec99" stroke-width="2" />
    <text x="600" y="185" font-family="Arial, sans-serif" font-size="14" text-anchor="middle" fill="#495057">eth0: 10.244.1.3</text>
    
    <!-- Pod 2 应用 -->
    <rect x="550" y="210" width="100" height="30" rx="5" ry="5" fill="#d0bfff" stroke="#9775fa" stroke-width="1" />
    <text x="600" y="230" font-family="Arial, sans-serif" font-size="12" text-anchor="middle" fill="#495057">应用容器</text>
    
    <!-- veth pairs -->
    <!-- Pod 1 veth pair -->
    <line x1="200" y1="260" x2="200" y2="300" stroke="#74c0fc" stroke-width="3" />
    <circle cx="200" cy="260" r="5" fill="#228be6" />
    <circle cx="200" cy="300" r="5" fill="#228be6" />
    <text x="160" y="280" font-family="Arial, sans-serif" font-size="12" fill="#495057">veth1a</text>
    <text x="220" y="280" font-family="Arial, sans-serif" font-size="12" fill="#495057">veth1b</text>
    
    <!-- Pod 2 veth pair -->
    <line x1="600" y1="260" x2="600" y2="300" stroke="#74c0fc" stroke-width="3" />
    <circle cx="600" cy="260" r="5" fill="#228be6" />
    <circle cx="600" cy="300" r="5" fill="#228be6" />
    <text x="560" y="280" font-family="Arial, sans-serif" font-size="12" fill="#495057">veth2a</text>
    <text x="620" y="280" font-family="Arial, sans-serif" font-size="12" fill="#495057">veth2b</text>
    
    <!-- 主机网络接口 -->
    <rect x="300" y="430" width="200" height="50" rx="5" ry="5" fill="#51cf66" stroke="#40c057" stroke-width="2" />
    <text x="400" y="460" font-family="Arial, sans-serif" font-size="16" text-anchor="middle" fill="white">物理网卡 (eth0)</text>
    
    <!-- 连接网桥到主机网络 -->
    <line x1="400" y1="360" x2="400" y2="430" stroke="#74c0fc" stroke-width="3" />
    
    <!-- 数据流向 -->
    <!-- Pod 1 到 Pod 2 的数据包 -->
    <path d="M 220 185 Q 400 185 580 185" fill="none" stroke="#fa5252" stroke-width="2" stroke-dasharray="5,5" marker-end="url(#arrowhead)" />
    
    <!-- 箭头定义 -->
    <defs>
        <marker id="arrowhead" markerWidth="10" markerHeight="7" refX="9" refY="3.5" orient="auto">
            <polygon points="0 0, 10 3.5, 0 7" fill="#fa5252" />
        </marker>
    </defs>
    
    <!-- 数据流向说明 -->
    <rect x="320" y="150" width="160" height="25" rx="5" ry="5" fill="#ffdeeb" stroke="#faa2c1" stroke-width="1" />
    <text x="400" y="167" font-family="Arial, sans-serif" font-size="12" text-anchor="middle" fill="#495057">Pod间数据包流向</text>
    
    <!-- MAC地址表 -->
    <rect x="300" y="370" width="200" height="40" rx="5" ry="5" fill="#e7f5ff" stroke="#74c0fc" stroke-width="1" />
    <text x="400" y="395" font-family="Arial, sans-serif" font-size="12" text-anchor="middle" fill="#495057">MAC地址表 (veth1b, veth2b...)</text>
    
    <!-- 详细说明 -->
    <text x="100" y="510" font-family="Arial, sans-serif" font-size="14" fill="#495057">1. 每个Pod有自己的网络命名空间，包含独立的网络栈</text>
    <text x="100" y="535" font-family="Arial, sans-serif" font-size="14" fill="#495057">2. veth pair连接Pod网络命名空间和主机网络命名空间</text>
    <text x="100" y="560" font-family="Arial, sans-serif" font-size="14" fill="#495057">3. 网桥连接所有veth接口，负责二层数据转发</text>
    
    <!-- 图例 -->
    <rect x="600" y="510" width="20" height="10" fill="#ffd8a8" stroke="#ffa94d" stroke-width="1" />
    <text x="625" y="520" font-family="Arial, sans-serif" font-size="12" fill="#495057">网络命名空间</text>
    
    <rect x="600" y="530" width="20" height="10" fill="#4dabf7" stroke="#339af0" stroke-width="1" />
    <text x="625" y="540" font-family="Arial, sans-serif" font-size="12" fill="#495057">网桥</text>
    
    <line x1="600" y1="550" x2="620" y2="550" stroke="#74c0fc" stroke-width="3" />
    <text x="625" y="555" font-family="Arial, sans-serif" font-size="12" fill="#495057">veth pair</text>
</svg>
