<?xml version="1.0" encoding="UTF-8" standalone="no"?>
<svg width="800" height="600" xmlns="http://www.w3.org/2000/svg">
  <defs>
    <marker id="arrowhead" markerWidth="10" markerHeight="7" refX="9" refY="3.5" orient="auto">
      <polygon points="0 0, 10 3.5, 0 7" fill="#333" />
    </marker>
  </defs>
  
  <!-- 背景 -->
  <rect x="0" y="0" width="800" height="600" fill="#f8f9fa" />
  
  <!-- 标题 -->
  <text x="400" y="40" font-family="Arial, sans-serif" font-size="24" text-anchor="middle" fill="#333">ClusterIP Service 数据包流向</text>
  
  <!-- 客户端Pod -->
  <rect x="80" y="100" width="120" height="80" rx="5" ry="5" fill="#fdae6b" stroke="#333" stroke-width="2" />
  <text x="140" y="130" font-family="Arial, sans-serif" font-size="16" text-anchor="middle" fill="#333">客户端 Pod</text>
  <text x="140" y="150" font-family="Arial, sans-serif" font-size="12" text-anchor="middle" fill="#333">10.244.1.5</text>
  <text x="140" y="170" font-family="Arial, sans-serif" font-size="10" text-anchor="middle" fill="#333">命名空间: default</text>
  
  <!-- 客户端容器网络 -->
  <rect x="80" y="190" width="120" height="40" rx="2" ry="2" fill="#d9d9d9" stroke="#333" stroke-width="1" />
  <text x="140" y="215" font-family="Arial, sans-serif" font-size="12" text-anchor="middle" fill="#333">容器网络接口</text>
  
  <!-- 节点1 -->
  <rect x="40" y="240" width="650" height="150" rx="5" ry="5" fill="#f5f5f5" stroke="#333" stroke-width="2" />
  <text x="100" y="260" font-family="Arial, sans-serif" font-size="16" text-anchor="middle" fill="#333">节点 1</text>
  
  <!-- 节点1网络命名空间 -->
  <rect x="60" y="280" width="610" height="90" rx="2" ry="2" fill="#e6f3ff" stroke="#333" stroke-width="1" />
  <text x="180" y="300" font-family="Arial, sans-serif" font-size="14" text-anchor="middle" fill="#333">节点网络命名空间</text>
  
  <!-- iptables -->
  <rect x="180" y="310" width="140" height="50" rx="2" ry="2" fill="#d4ebf2" stroke="#333" stroke-width="1" />
  <text x="250" y="335" font-family="Arial, sans-serif" font-size="14" text-anchor="middle" fill="#333">iptables/IPVS</text>
  <text x="250" y="350" font-family="Arial, sans-serif" font-size="10" text-anchor="middle" fill="#333">DNAT: 10.96.1.10:80 → 10.244.2.3:8080</text>
  
  <!-- Service -->
  <ellipse cx="400" cy="335" rx="80" ry="40" fill="#fc8d59" stroke="#333" stroke-width="2" />
  <text x="400" y="330" font-family="Arial, sans-serif" font-size="16" text-anchor="middle" fill="#fff">ClusterIP Service</text>
  <text x="400" y="350" font-family="Arial, sans-serif" font-size="12" text-anchor="middle" fill="#fff">10.96.1.10:80</text>
  
  <!-- 容器网络 -->
  <rect x="500" y="310" width="140" height="50" rx="2" ry="2" fill="#d9d9d9" stroke="#333" stroke-width="1" />
  <text x="570" y="335" font-family="Arial, sans-serif" font-size="14" text-anchor="middle" fill="#333">容器网络</text>
  <text x="570" y="350" font-family="Arial, sans-serif" font-size="10" text-anchor="middle" fill="#333">Flannel/Calico/Weave等</text>
  
  <!-- 节点2 -->
  <rect x="40" y="400" width="650" height="150" rx="5" ry="5" fill="#f5f5f5" stroke="#333" stroke-width="2" />
  <text x="100" y="420" font-family="Arial, sans-serif" font-size="16" text-anchor="middle" fill="#333">节点 2</text>
  
  <!-- 节点2网络命名空间 -->
  <rect x="60" y="440" width="610" height="90" rx="2" ry="2" fill="#e6f3ff" stroke="#333" stroke-width="1" />
  <text x="180" y="460" font-family="Arial, sans-serif" font-size="14" text-anchor="middle" fill="#333">节点网络命名空间</text>
  
  <!-- 连接跟踪 -->
  <rect x="180" y="470" width="140" height="50" rx="2" ry="2" fill="#d4ebf2" stroke="#333" stroke-width="1" />
  <text x="250" y="495" font-family="Arial, sans-serif" font-size="14" text-anchor="middle" fill="#333">conntrack</text>
  <text x="250" y="510" font-family="Arial, sans-serif" font-size="10" text-anchor="middle" fill="#333">连接跟踪，反向NAT</text>
  
  <!-- 容器网络2 -->
  <rect x="350" y="470" width="140" height="50" rx="2" ry="2" fill="#d9d9d9" stroke="#333" stroke-width="1" />
  <text x="420" y="495" font-family="Arial, sans-serif" font-size="14" text-anchor="middle" fill="#333">容器网络接口</text>
  
  <!-- 目标Pod -->
  <rect x="520" y="470" width="120" height="50" rx="5" ry="5" fill="#9ecae1" stroke="#333" stroke-width="2" />
  <text x="580" y="495" font-family="Arial, sans-serif" font-size="14" text-anchor="middle" fill="#333">目标 Pod</text>
  <text x="580" y="510" font-family="Arial, sans-serif" font-size="10" text-anchor="middle" fill="#333">10.244.2.3:8080</text>
  
  <!-- 数据包流向 -->
  <!-- 1. 客户端发送请求 -->
  <line x1="140" y1="180" x2="140" y2="190" stroke="#333" stroke-width="2" marker-end="url(#arrowhead)" />
  <text x="165" y="185" font-family="Arial, sans-serif" font-size="10" text-anchor="left" fill="#666">1. 发送到ClusterIP</text>
  
  <!-- 2. 容器网络到节点 -->
  <line x1="140" y1="230" x2="140" y2="280" stroke="#333" stroke-width="2" marker-end="url(#arrowhead)" />
  <text x="165" y="260" font-family="Arial, sans-serif" font-size="10" text-anchor="left" fill="#666">2. 经过容器网络接口</text>
  
  <!-- 3. 节点到iptables -->
  <line x1="140" y1="320" x2="180" y2="335" stroke="#333" stroke-width="2" marker-end="url(#arrowhead)" />
  <text x="150" y="335" font-family="Arial, sans-serif" font-size="10" text-anchor="left" fill="#666">3. 流量拦截</text>
  
  <!-- 4. iptables到Service -->
  <line x1="320" y1="335" x2="320" y2="335" stroke="#333" stroke-width="2" marker-end="url(#arrowhead)" />
  
  <!-- 5. Service到容器网络 -->
  <line x1="480" y1="335" x2="500" y2="335" stroke="#333" stroke-width="2" marker-end="url(#arrowhead)" />
  <text x="470" y="320" font-family="Arial, sans-serif" font-size="10" text-anchor="left" fill="#666">4. DNAT转换目标地址</text>
  
  <!-- 6. 容器网络到节点2 -->
  <line x1="570" y1="360" x2="570" y2="440" stroke="#333" stroke-width="2" marker-end="url(#arrowhead)" />
  <text x="580" y="400" font-family="Arial, sans-serif" font-size="10" text-anchor="left" fill="#666">5. 路由到目标节点</text>
  
  <!-- 7. 节点2到容器网络 -->
  <line x1="500" y1="470" x2="520" y2="480" stroke="#333" stroke-width="2" marker-end="url(#arrowhead)" />
  <text x="480" y="460" font-family="Arial, sans-serif" font-size="10" text-anchor="left" fill="#666">6. 转发到Pod</text>
  
  <!-- 8. 返回路径 -->
  <path d="M 520 490 L 490 490 L 350 490" stroke="#333" stroke-width="2" stroke-dasharray="5,3" marker-end="url(#arrowhead)" fill="none" />
  <text x="400" y="510" font-family="Arial, sans-serif" font-size="10" text-anchor="left" fill="#666">7. 处理请求并响应</text>
  
  <path d="M 180 495 L 150 495 L 150 370 L 140 340" stroke="#333" stroke-width="2" stroke-dasharray="5,3" marker-end="url(#arrowhead)" fill="none" />
  <text x="100" y="460" font-family="Arial, sans-serif" font-size="10" text-anchor="left" fill="#666">8. 返回客户端</text>
  
  <!-- 图例 -->
  <rect x="40" y="560" width="15" height="15" fill="#fdae6b" stroke="#333" stroke-width="1" />
  <text x="60" y="573" font-family="Arial, sans-serif" font-size="12" fill="#333">客户端 Pod</text>
  
  <rect x="150" y="560" width="15" height="15" fill="#fc8d59" stroke="#333" stroke-width="1" />
  <text x="170" y="573" font-family="Arial, sans-serif" font-size="12" fill="#333">Service</text>
  
  <rect x="240" y="560" width="15" height="15" fill="#9ecae1" stroke="#333" stroke-width="1" />
  <text x="260" y="573" font-family="Arial, sans-serif" font-size="12" fill="#333">目标 Pod</text>
  
  <rect x="330" y="560" width="15" height="15" fill="#d4ebf2" stroke="#333" stroke-width="1" />
  <text x="350" y="573" font-family="Arial, sans-serif" font-size="12" fill="#333">网络规则</text>
  
  <rect x="420" y="560" width="15" height="15" fill="#d9d9d9" stroke="#333" stroke-width="1" />
  <text x="440" y="573" font-family="Arial, sans-serif" font-size="12" fill="#333">网络接口</text>
  
  <line x1="510" y1="560" x2="530" y2="560" stroke="#333" stroke-width="2" marker-end="url(#arrowhead)" />
  <text x="540" y="565" font-family="Arial, sans-serif" font-size="12" fill="#333">请求流向</text>
  
  <line x1="610" y1="560" x2="630" y2="560" stroke="#333" stroke-width="2" stroke-dasharray="5,3" marker-end="url(#arrowhead)" />
  <text x="640" y="565" font-family="Arial, sans-serif" font-size="12" fill="#333">响应流向</text>
</svg> 