<?xml version="1.0" encoding="UTF-8" standalone="no"?>
<svg width="800" height="500" xmlns="http://www.w3.org/2000/svg">
  <defs>
    <marker id="arrowhead" markerWidth="10" markerHeight="7" refX="9" refY="3.5" orient="auto">
      <polygon points="0 0, 10 3.5, 0 7" fill="#333" />
    </marker>
  </defs>
  
  <!-- 背景 -->
  <rect x="0" y="0" width="800" height="500" fill="#f8f9fa" />
  
  <!-- 标题 -->
  <text x="400" y="40" font-family="Arial, sans-serif" font-size="24" text-anchor="middle" fill="#333">ClusterIP Service 网络机制</text>
  
  <!-- 集群边界 -->
  <rect x="50" y="70" width="700" height="380" rx="10" ry="10" fill="none" stroke="#333" stroke-width="2" stroke-dasharray="10,5" />
  <text x="400" y="90" font-family="Arial, sans-serif" font-size="16" text-anchor="middle" fill="#333">Kubernetes 集群</text>
  
  <!-- Service -->
  <ellipse cx="400" cy="180" rx="90" ry="50" fill="#fc8d59" stroke="#333" stroke-width="2" />
  <text x="400" y="170" font-family="Arial, sans-serif" font-size="16" text-anchor="middle" fill="#fff">ClusterIP Service</text>
  <text x="400" y="190" font-family="Arial, sans-serif" font-size="14" text-anchor="middle" fill="#fff">10.96.1.10</text>
  <text x="400" y="210" font-family="Arial, sans-serif" font-size="12" text-anchor="middle" fill="#fff">port: 80</text>
  
  <!-- Pod 1 -->
  <rect x="200" y="320" width="100" height="80" rx="5" ry="5" fill="#9ecae1" stroke="#333" stroke-width="2" />
  <text x="250" y="345" font-family="Arial, sans-serif" font-size="14" text-anchor="middle" fill="#333">Pod 1</text>
  <text x="250" y="365" font-family="Arial, sans-serif" font-size="12" text-anchor="middle" fill="#333">10.244.1.2</text>
  <text x="250" y="385" font-family="Arial, sans-serif" font-size="12" text-anchor="middle" fill="#333">targetPort: 8080</text>
  
  <!-- Pod 2 -->
  <rect x="350" y="320" width="100" height="80" rx="5" ry="5" fill="#9ecae1" stroke="#333" stroke-width="2" />
  <text x="400" y="345" font-family="Arial, sans-serif" font-size="14" text-anchor="middle" fill="#333">Pod 2</text>
  <text x="400" y="365" font-family="Arial, sans-serif" font-size="12" text-anchor="middle" fill="#333">10.244.1.3</text>
  <text x="400" y="385" font-family="Arial, sans-serif" font-size="12" text-anchor="middle" fill="#333">targetPort: 8080</text>
  
  <!-- Pod 3 -->
  <rect x="500" y="320" width="100" height="80" rx="5" ry="5" fill="#9ecae1" stroke="#333" stroke-width="2" />
  <text x="550" y="345" font-family="Arial, sans-serif" font-size="14" text-anchor="middle" fill="#333">Pod 3</text>
  <text x="550" y="365" font-family="Arial, sans-serif" font-size="12" text-anchor="middle" fill="#333">10.244.2.2</text>
  <text x="550" y="385" font-family="Arial, sans-serif" font-size="12" text-anchor="middle" fill="#333">targetPort: 8080</text>
  
  <!-- 客户端 Pod -->
  <rect x="150" y="150" width="100" height="60" rx="5" ry="5" fill="#fdae6b" stroke="#333" stroke-width="2" />
  <text x="200" y="185" font-family="Arial, sans-serif" font-size="14" text-anchor="middle" fill="#333">客户端 Pod</text>
  
  <!-- kube-proxy 和 iptables/IPVS -->
  <rect x="580" y="150" width="120" height="30" rx="5" ry="5" fill="#fd8d3c" stroke="#333" stroke-width="2" />
  <text x="640" y="170" font-family="Arial, sans-serif" font-size="12" text-anchor="middle" fill="#fff">kube-proxy</text>
  
  <rect x="580" y="190" width="120" height="30" rx="5" ry="5" fill="#74c476" stroke="#333" stroke-width="2" />
  <text x="640" y="210" font-family="Arial, sans-serif" font-size="12" text-anchor="middle" fill="#fff">iptables/IPVS</text>
  
  <!-- 连接线 -->
  <!-- 客户端到Service -->
  <line x1="250" y1="180" x2="310" y2="180" stroke="#333" stroke-width="2" marker-end="url(#arrowhead)" />
  <text x="280" y="170" font-family="Arial, sans-serif" font-size="10" fill="#333">1. 请求 ClusterIP</text>
  
  <!-- kube-proxy到iptables -->
  <line x1="640" y1="180" x2="640" y2="190" stroke="#333" stroke-width="2" marker-end="url(#arrowhead)" />
  <text x="650" y="185" font-family="Arial, sans-serif" font-size="10" fill="#333">配置</text>
  
  <!-- Service到Pod -->
  <line x1="370" y1="230" x2="250" y2="320" stroke="#333" stroke-width="2" marker-end="url(#arrowhead)" />
  <text x="290" y="280" font-family="Arial, sans-serif" font-size="10" fill="#333">2. DNAT 转发</text>
  
  <line x1="400" y1="230" x2="400" y2="320" stroke="#333" stroke-width="2" marker-end="url(#arrowhead)" />
  <text x="410" y="280" font-family="Arial, sans-serif" font-size="10" fill="#333">负载均衡</text>
  
  <line x1="430" y1="230" x2="550" y2="320" stroke="#333" stroke-width="2" marker-end="url(#arrowhead)" />
  
  <!-- CoreDNS -->
  <rect x="350" y="120" width="100" height="30" rx="5" ry="5" fill="#9e9ac8" stroke="#333" stroke-width="2" />
  <text x="400" y="140" font-family="Arial, sans-serif" font-size="12" text-anchor="middle" fill="#fff">CoreDNS</text>
  
  <!-- DNS 查询 -->
  <path d="M 200 150 C 200 130, 350 100, 380 120" stroke="#333" stroke-width="1.5" stroke-dasharray="4,2" marker-end="url(#arrowhead)" fill="none" />
  <text x="280" y="110" font-family="Arial, sans-serif" font-size="10" fill="#333">DNS 查询</text>
  
  <path d="M 420 120 C 450 100, 320 90, 210 150" stroke="#333" stroke-width="1.5" stroke-dasharray="4,2" marker-end="url(#arrowhead)" fill="none" />
  <text x="330" y="100" font-family="Arial, sans-serif" font-size="10" fill="#333">返回 ClusterIP</text>
  
  <!-- 标签选择器 -->
  <path d="M 400 230 C 400 250, 450 270, 400 300" stroke="#333" stroke-width="1.5" stroke-dasharray="4,2" fill="none" />
  <text x="450" y="270" font-family="Arial, sans-serif" font-size="10" fill="#333">标签选择器: app=MyApp</text>
  
  <!-- 图例 -->
  <rect x="100" y="430" width="15" height="15" fill="#fc8d59" stroke="#333" stroke-width="1" />
  <text x="125" y="443" font-family="Arial, sans-serif" font-size="12" fill="#333">ClusterIP Service</text>
  
  <rect x="250" y="430" width="15" height="15" fill="#9ecae1" stroke="#333" stroke-width="1" />
  <text x="275" y="443" font-family="Arial, sans-serif" font-size="12" fill="#333">Pod</text>
  
  <rect x="350" y="430" width="15" height="15" fill="#fdae6b" stroke="#333" stroke-width="1" />
  <text x="375" y="443" font-family="Arial, sans-serif" font-size="12" fill="#333">客户端</text>
  
  <rect x="450" y="430" width="15" height="15" fill="#fd8d3c" stroke="#333" stroke-width="1" />
  <text x="475" y="443" font-family="Arial, sans-serif" font-size="12" fill="#333">kube-proxy</text>
  
  <rect x="550" y="430" width="15" height="15" fill="#74c476" stroke="#333" stroke-width="1" />
  <text x="575" y="443" font-family="Arial, sans-serif" font-size="12" fill="#333">iptables/IPVS</text>
  
  <rect x="650" y="430" width="15" height="15" fill="#9e9ac8" stroke="#333" stroke-width="1" />
  <text x="675" y="443" font-family="Arial, sans-serif" font-size="12" fill="#333">CoreDNS</text>
</svg> 