<?xml version="1.0" encoding="UTF-8" standalone="no"?>
<svg width="800" height="600" viewBox="0 0 800 600" xmlns="http://www.w3.org/2000/svg">
  <style>
    .node {
      fill: #f0f5ff;
      stroke: #326ce5;
      stroke-width: 2;
    }
    .pod {
      fill: #d4e5ff;
      stroke: #326ce5;
      stroke-width: 1.5;
    }
    .container {
      fill: #b3d1ff;
      stroke: #326ce5;
      stroke-width: 1;
    }
    .kubelet {
      fill: #e6f2ff;
      stroke: #326ce5;
      stroke-width: 1.5;
    }
    .cni {
      fill: #d9f2d9;
      stroke: #47d147;
      stroke-width: 1.5;
    }
    .ipam {
      fill: #ffe0b3;
      stroke: #ff9900;
      stroke-width: 1.5;
    }
    .network {
      fill: none;
      stroke: #999;
      stroke-width: 1.5;
      stroke-dasharray: 5,5;
    }
    .bridge {
      fill: #f2f2f2;
      stroke: #999;
      stroke-width: 1.5;
    }
    .veth {
      fill: none;
      stroke: #ff9900;
      stroke-width: 2;
    }
    .overlay {
      fill: none;
      stroke: #47d147;
      stroke-width: 2;
      stroke-dasharray: 5,3;
    }
    .arrow {
      fill: none;
      stroke: #666;
      stroke-width: 1.5;
      marker-end: url(#arrowhead);
    }
    .dashed-arrow {
      fill: none;
      stroke: #666;
      stroke-width: 1.5;
      stroke-dasharray: 5,3;
      marker-end: url(#arrowhead);
    }
    .label {
      font-family: 'Arial', sans-serif;
      font-size: 14px;
      text-anchor: middle;
    }
    .small-label {
      font-family: 'Arial', sans-serif;
      font-size: 12px;
      text-anchor: middle;
    }
    .title {
      font-family: 'Arial', sans-serif;
      font-size: 18px;
      font-weight: bold;
      text-anchor: middle;
    }
    .highlight {
      animation: pulse 1.5s infinite alternate;
    }
    @keyframes pulse {
      from { opacity: 1; }
      to { opacity: 0.6; }
    }
    .animate {
      animation: movePacket 3s ease-in-out;
    }
    @keyframes movePacket {
      0% { transform: translateX(0) translateY(0); opacity: 0; }
      10% { opacity: 1; }
      90% { opacity: 1; }
      100% { transform: translateX(300px) translateY(0); opacity: 0; }
    }
  </style>
  
  <defs>
    <marker id="arrowhead" markerWidth="10" markerHeight="7" refX="9" refY="3.5" orient="auto">
      <polygon points="0 0, 10 3.5, 0 7" fill="#666" />
    </marker>
  </defs>
  
  <rect width="100%" height="100%" fill="#f8f9fa" />
  
  <text x="400" y="40" class="title">Kubernetes CNI 插件工作原理</text>
  
  <!-- 物理网络 -->
  <rect x="50" y="500" width="700" height="50" rx="5" ry="5" class="network" id="physical-network" />
  <text x="400" y="530" class="label">物理网络</text>
  
  <!-- 节点 1 -->
  <rect x="100" y="100" width="280" height="380" rx="5" ry="5" class="node" id="node1" />
  <text x="240" y="120" class="label">节点 1</text>
  
  <!-- Kubelet -->
  <rect x="120" y="140" width="240" height="50" rx="5" ry="5" class="kubelet" id="kubelet" />
  <text x="240" y="170" class="label">kubelet</text>
  
  <!-- CNI 插件 -->
  <rect x="120" y="200" width="110" height="80" rx="5" ry="5" class="cni" id="cni-plugin" />
  <text x="175" y="225" class="label">CNI 插件</text>
  <text x="175" y="245" class="small-label">(Calico/Flannel)</text>
  
  <!-- IPAM 插件 -->
  <rect x="250" y="200" width="110" height="80" rx="5" ry="5" class="ipam" id="ipam-plugin" />
  <text x="305" y="225" class="label">IPAM 插件</text>
  <text x="305" y="245" class="small-label">(IP 地址管理)</text>
  
  <!-- 网桥 -->
  <rect x="120" y="290" width="240" height="40" rx="5" ry="5" class="bridge" id="bridge" />
  <text x="240" y="315" class="label">网桥 (cni0/cbr0)</text>
  
  <!-- Pod 1 -->
  <rect x="130" y="340" width="100" height="120" rx="5" ry="5" class="pod" id="pod1" />
  <text x="180" y="360" class="label">Pod 1</text>
  <text x="180" y="380" class="small-label">10.244.1.2</text>
  <rect x="140" y="390" width="80" height="60" rx="3" ry="3" class="container" />
  <text x="180" y="425" class="small-label">容器</text>
  
  <!-- Pod 2 -->
  <rect x="250" y="340" width="100" height="120" rx="5" ry="5" class="pod" id="pod2" />
  <text x="300" y="360" class="label">Pod 2</text>
  <text x="300" y="380" class="small-label">10.244.1.3</text>
  <rect x="260" y="390" width="80" height="60" rx="3" ry="3" class="container" />
  <text x="300" y="425" class="small-label">容器</text>
  
  <!-- veth pairs for Pod 1 -->
  <path d="M 180 390 C 180 350, 160 350, 160 330" class="veth" id="veth1" />
  <circle cx="160" y="330" r="5" fill="#ff9900" />
  <text x="145" y="325" class="small-label" style="text-anchor: end;">veth1</text>
  
  <!-- veth pairs for Pod 2 -->
  <path d="M 300 390 C 300 350, 320 350, 320 330" class="veth" id="veth2" />
  <circle cx="320" y="330" r="5" fill="#ff9900" />
  <text x="335" y="325" class="small-label" style="text-anchor: start;">veth2</text>
  
  <!-- 节点 2 -->
  <rect x="420" y="100" width="280" height="380" rx="5" ry="5" class="node" id="node2" />
  <text x="560" y="120" class="label">节点 2</text>
  
  <!-- Kubelet -->
  <rect x="440" y="140" width="240" height="50" rx="5" ry="5" class="kubelet" id="kubelet2" />
  <text x="560" y="170" class="label">kubelet</text>
  
  <!-- CNI 插件 -->
  <rect x="440" y="200" width="110" height="80" rx="5" ry="5" class="cni" id="cni-plugin2" />
  <text x="495" y="225" class="label">CNI 插件</text>
  <text x="495" y="245" class="small-label">(Calico/Flannel)</text>
  
  <!-- IPAM 插件 -->
  <rect x="570" y="200" width="110" height="80" rx="5" ry="5" class="ipam" id="ipam-plugin2" />
  <text x="625" y="225" class="label">IPAM 插件</text>
  <text x="625" y="245" class="small-label">(IP 地址管理)</text>
  
  <!-- 网桥 -->
  <rect x="440" y="290" width="240" height="40" rx="5" ry="5" class="bridge" id="bridge2" />
  <text x="560" y="315" class="label">网桥 (cni0/cbr0)</text>
  
  <!-- Pod 3 -->
  <rect x="450" y="340" width="100" height="120" rx="5" ry="5" class="pod" id="pod3" />
  <text x="500" y="360" class="label">Pod 3</text>
  <text x="500" y="380" class="small-label">10.244.2.2</text>
  <rect x="460" y="390" width="80" height="60" rx="3" ry="3" class="container" />
  <text x="500" y="425" class="small-label">容器</text>
  
  <!-- Pod 4 -->
  <rect x="570" y="340" width="100" height="120" rx="5" ry="5" class="pod" id="pod4" />
  <text x="620" y="360" class="label">Pod 4</text>
  <text x="620" y="380" class="small-label">10.244.2.3</text>
  <rect x="580" y="390" width="80" height="60" rx="3" ry="3" class="container" />
  <text x="620" y="425" class="small-label">容器</text>
  
  <!-- veth pairs for Pod 3 -->
  <path d="M 500 390 C 500 350, 480 350, 480 330" class="veth" id="veth3" />
  <circle cx="480" y="330" r="5" fill="#ff9900" />
  <text x="465" y="325" class="small-label" style="text-anchor: end;">veth3</text>
  
  <!-- veth pairs for Pod 4 -->
  <path d="M 620 390 C 620 350, 640 350, 640 330" class="veth" id="veth4" />
  <circle cx="640" y="330" r="5" fill="#ff9900" />
  <text x="655" y="325" class="small-label" style="text-anchor: start;">veth4</text>
  
  <!-- 连接线 -->
  <!-- kubelet 到 CNI 插件 -->
  <path d="M 175 190 L 175 200" class="arrow" id="kubelet-to-cni" />
  <path d="M 305 190 L 305 200" class="arrow" id="kubelet-to-ipam" />
  
  <!-- CNI 插件到网桥 -->
  <path d="M 175 280 L 175 290" class="arrow" id="cni-to-bridge" />
  
  <!-- IPAM 插件到 CNI 插件 -->
  <path d="M 250 240 L 230 240" class="dashed-arrow" id="ipam-to-cni" />
  
  <!-- 节点 2 上的连接线 -->
  <path d="M 495 190 L 495 200" class="arrow" id="kubelet2-to-cni" />
  <path d="M 625 190 L 625 200" class="arrow" id="kubelet2-to-ipam" />
  <path d="M 495 280 L 495 290" class="arrow" id="cni2-to-bridge" />
  <path d="M 570 240 L 550 240" class="dashed-arrow" id="ipam2-to-cni" />
  
  <!-- 节点间通信 -->
  <path d="M 240 480 L 240 500" class="arrow" id="node1-to-network" />
  <path d="M 560 480 L 560 500" class="arrow" id="node2-to-network" />
  
  <!-- 跨节点Pod通信 (overlay) -->
  <path d="M 180 400 C 180 80, 500 80, 500 400" class="overlay" id="pod1-to-pod3" />
  
  <!-- CNI 配置 -->
  <rect x="120" y="60" width="240" height="30" rx="3" ry="3" fill="#f0f0f0" stroke="#999" />
  <text x="240" y="80" class="small-label">/etc/cni/net.d/10-calico.conflist</text>
  
  <!-- CNI 二进制文件 -->
  <rect x="440" y="60" width="240" height="30" rx="3" ry="3" fill="#f0f0f0" stroke="#999" />
  <text x="560" y="80" class="small-label">/opt/cni/bin/calico</text>
  
  <!-- CNI 工作流程 -->
  <text x="400" y="570" class="label">1. kubelet 创建 Pod → 2. 调用 CNI 插件 → 3. CNI 配置网络 → 4. IPAM 分配 IP → 5. 创建路由规则</text>
  
  <!-- 图例 -->
  <rect x="100" y="600" width="15" height="15" class="kubelet" />
  <text x="125" y="613" class="small-label" style="text-anchor: start;">kubelet</text>
  
  <rect x="200" y="600" width="15" height="15" class="cni" />
  <text x="225" y="613" class="small-label" style="text-anchor: start;">CNI 插件</text>
  
  <rect x="300" y="600" width="15" height="15" class="ipam" />
  <text x="325" y="613" class="small-label" style="text-anchor: start;">IPAM 插件</text>
  
  <rect x="400" y="600" width="15" height="15" class="pod" />
  <text x="425" y="613" class="small-label" style="text-anchor: start;">Pod</text>
  
  <rect x="500" y="600" width="15" height="15" class="bridge" />
  <text x="525" y="613" class="small-label" style="text-anchor: start;">网桥</text>
  
  <line x1="600" y1="608" x2="630" y2="608" class="veth" />
  <text x="655" y="613" class="small-label" style="text-anchor: start;">veth pair</text>
  
  <line x1="700" y1="608" x2="730" y2="608" class="overlay" />
  <text x="755" y="613" class="small-label" style="text-anchor: start;">Overlay 网络</text>
</svg>
