<?xml version="1.0" encoding="UTF-8" standalone="no"?>
<svg width="800" height="500" xmlns="http://www.w3.org/2000/svg">
  <defs>
    <marker id="arrowhead" markerWidth="10" markerHeight="7" refX="9" refY="3.5" orient="auto">
      <polygon points="0 0, 10 3.5, 0 7" fill="#333" />
    </marker>
    <marker id="dashedarrow" markerWidth="10" markerHeight="7" refX="9" refY="3.5" orient="auto">
      <polygon points="0 0, 10 3.5, 0 7" fill="#333" />
    </marker>
  </defs>
  
  <!-- 背景 -->
  <rect x="0" y="0" width="800" height="500" fill="#f8f9fa" />
  
  <!-- 标题 -->
  <text x="400" y="40" font-family="Arial, sans-serif" font-size="24" text-anchor="middle" fill="#333">ExternalName Service 工作原理</text>
  
  <!-- 集群边界 -->
  <rect x="50" y="80" width="450" height="370" rx="10" ry="10" fill="none" stroke="#333" stroke-width="2" stroke-dasharray="10,5" />
  <text x="275" y="100" font-family="Arial, sans-serif" font-size="16" text-anchor="middle" fill="#333">Kubernetes 集群</text>
  
  <!-- 外部服务边界 -->
  <rect x="520" y="80" width="230" height="370" rx="10" ry="10" fill="none" stroke="#333" stroke-width="2" stroke-dasharray="10,5" />
  <text x="635" y="100" font-family="Arial, sans-serif" font-size="16" text-anchor="middle" fill="#333">外部环境</text>
  
  <!-- 客户端 Pod -->
  <rect x="80" y="140" width="100" height="60" rx="5" ry="5" fill="#fdae6b" stroke="#333" stroke-width="2" />
  <text x="130" y="170" font-family="Arial, sans-serif" font-size="14" text-anchor="middle" fill="#333">客户端 Pod</text>
  <text x="130" y="190" font-family="Arial, sans-serif" font-size="12" text-anchor="middle" fill="#333">应用程序</text>
  
  <!-- CoreDNS -->
  <rect x="320" y="140" width="100" height="60" rx="5" ry="5" fill="#9e9ac8" stroke="#333" stroke-width="2" />
  <text x="370" y="170" font-family="Arial, sans-serif" font-size="14" text-anchor="middle" fill="#fff">CoreDNS</text>
  <text x="370" y="190" font-family="Arial, sans-serif" font-size="12" text-anchor="middle" fill="#fff">集群 DNS 服务</text>
  
  <!-- ExternalName Service -->
  <ellipse cx="220" cy="250" rx="100" ry="50" fill="#fc8d59" stroke="#333" stroke-width="2" />
  <text x="220" y="240" font-family="Arial, sans-serif" font-size="16" text-anchor="middle" fill="#fff">ExternalName</text>
  <text x="220" y="260" font-family="Arial, sans-serif" font-size="14" text-anchor="middle" fill="#fff">Service</text>
  <text x="220" y="280" font-family="Arial, sans-serif" font-size="12" text-anchor="middle" fill="#fff">无 ClusterIP</text>
  
  <!-- 外部 DNS 服务器 -->
  <rect x="550" y="140" width="100" height="60" rx="5" ry="5" fill="#9e9ac8" stroke="#333" stroke-width="2" />
  <text x="600" y="170" font-family="Arial, sans-serif" font-size="14" text-anchor="middle" fill="#fff">外部 DNS</text>
  <text x="600" y="190" font-family="Arial, sans-serif" font-size="12" text-anchor="middle" fill="#fff">服务器</text>
  
  <!-- 外部服务 -->
  <rect x="550" y="320" width="120" height="60" rx="5" ry="5" fill="#74c476" stroke="#333" stroke-width="2" />
  <text x="610" y="350" font-family="Arial, sans-serif" font-size="14" text-anchor="middle" fill="#fff">外部服务</text>
  <text x="610" y="370" font-family="Arial, sans-serif" font-size="12" text-anchor="middle" fill="#fff">example.com</text>
  
  <!-- Service 配置 -->
  <rect x="80" y="340" width="200" height="90" rx="5" ry="5" fill="#f0f0f0" stroke="#333" stroke-width="1.5" />
  <text x="180" y="360" font-family="Arial, sans-serif" font-size="14" text-anchor="middle" fill="#333">Service 配置</text>
  <text x="180" y="380" font-family="Arial, sans-serif" font-size="12" text-anchor="middle" fill="#333">apiVersion: v1</text>
  <text x="180" y="395" font-family="Arial, sans-serif" font-size="12" text-anchor="middle" fill="#333">kind: Service</text>
  <text x="180" y="410" font-family="Arial, sans-serif" font-size="12" text-anchor="middle" fill="#333">type: ExternalName</text>
  <text x="180" y="425" font-family="Arial, sans-serif" font-size="12" text-anchor="middle" fill="#333">externalName: example.com</text>
  
  <!-- 连接线 -->
  <!-- DNS 查询流程 -->
  <!-- 1. 客户端查询 service.default.svc.cluster.local -->
  <line x1="130" y1="200" x2="370" y2="140" stroke="#e41a1c" stroke-width="2" marker-end="url(#arrowhead)" />
  <text x="180" y="145" font-family="Arial, sans-serif" font-size="10" fill="#e41a1c">1. 查询 my-service.default.svc.cluster.local</text>
  
  <!-- 2. CoreDNS 返回 CNAME 记录 -->
  <path d="M 370 200 L 370 230 L 220 230" stroke="#377eb8" stroke-width="2" marker-end="url(#arrowhead)" fill="none" />
  <text x="340" y="220" font-family="Arial, sans-serif" font-size="10" fill="#377eb8">2. 返回 CNAME 记录</text>
  
  <!-- 3. 客户端查询外部 DNS -->
  <path d="M 180 200 C 180 220, 380 220, 550 170" stroke="#4daf4a" stroke-width="2" marker-end="url(#arrowhead)" fill="none" />
  <text x="300" y="190" font-family="Arial, sans-serif" font-size="10" fill="#4daf4a">3. 查询 example.com</text>
  
  <!-- 4. 外部 DNS 返回 IP -->
  <path d="M 600 200 C 600 240, 400 250, 130 210" stroke="#984ea3" stroke-width="2" marker-end="url(#arrowhead)" fill="none" />
  <text x="400" y="240" font-family="Arial, sans-serif" font-size="10" fill="#984ea3">4. 返回 IP 地址</text>
  
  <!-- 5. 客户端直接连接外部服务 -->
  <path d="M 130 200 C 130 260, 400 320, 550 350" stroke="#ff7f00" stroke-width="2" marker-end="url(#arrowhead)" fill="none" />
  <text x="300" y="300" font-family="Arial, sans-serif" font-size="10" fill="#ff7f00">5. 直接连接外部服务</text>
  
  <!-- Service 配置到 ExternalName Service 的连接 -->
  <line x1="180" y1="340" x2="220" y2="300" stroke="#333" stroke-width="1.5" stroke-dasharray="5,2" marker-end="url(#dashedarrow)" />
  
  <!-- CNAME 记录说明 -->
  <rect x="320" y="250" width="160" height="60" rx="5" ry="5" fill="#fdd0a2" stroke="#333" stroke-width="1.5" />
  <text x="400" y="270" font-family="Arial, sans-serif" font-size="12" text-anchor="middle" fill="#333">CNAME 记录</text>
  <text x="400" y="290" font-family="Arial, sans-serif" font-size="10" text-anchor="middle" fill="#333">my-service.default.svc.cluster.local</text>
  <text x="400" y="305" font-family="Arial, sans-serif" font-size="10" text-anchor="middle" fill="#333">→ example.com</text>
  
  <!-- CNAME 连接线 -->
  <line x1="320" y1="280" x2="290" y2="280" stroke="#333" stroke-width="1.5" stroke-dasharray="5,2" marker-end="url(#dashedarrow)" />
  
  <!-- 图例 -->
  <rect x="80" y="460" width="15" height="15" fill="#fdae6b" stroke="#333" stroke-width="1" />
  <text x="105" y="473" font-family="Arial, sans-serif" font-size="12" fill="#333">客户端</text>
  
  <rect x="200" y="460" width="15" height="15" fill="#fc8d59" stroke="#333" stroke-width="1" />
  <text x="225" y="473" font-family="Arial, sans-serif" font-size="12" fill="#333">ExternalName Service</text>
  
  <rect x="380" y="460" width="15" height="15" fill="#9e9ac8" stroke="#333" stroke-width="1" />
  <text x="405" y="473" font-family="Arial, sans-serif" font-size="12" fill="#333">DNS 服务器</text>
  
  <rect x="500" y="460" width="15" height="15" fill="#74c476" stroke="#333" stroke-width="1" />
  <text x="525" y="473" font-family="Arial, sans-serif" font-size="12" fill="#333">外部服务</text>
  
  <rect x="620" y="460" width="15" height="15" fill="#fdd0a2" stroke="#333" stroke-width="1" />
  <text x="645" y="473" font-family="Arial, sans-serif" font-size="12" fill="#333">CNAME 记录</text>
</svg> 