<?xml version="1.0" encoding="UTF-8" standalone="no"?>
<svg width="800" height="600" viewBox="0 0 800 600" xmlns="http://www.w3.org/2000/svg">
  <style>
    .external {
      fill: #f0f5ff;
      stroke: #326ce5;
      stroke-width: 2;
    }
    .ingress {
      fill: #d9f2d9;
      stroke: #47d147;
      stroke-width: 2;
    }
    .service {
      fill: #ffe0b3;
      stroke: #ff9900;
      stroke-width: 1.5;
    }
    .pod {
      fill: #d4e5ff;
      stroke: #326ce5;
      stroke-width: 1.5;
    }
    .container {
      fill: #b3d1ff;
      stroke: #326ce5;
      stroke-width: 1;
    }
    .controller {
      fill: #e6f2ff;
      stroke: #326ce5;
      stroke-width: 1.5;
    }
    .config {
      fill: #f2f2f2;
      stroke: #999;
      stroke-width: 1;
    }
    .arrow {
      fill: none;
      stroke: #666;
      stroke-width: 1.5;
      marker-end: url(#arrowhead);
    }
    .dashed-arrow {
      fill: none;
      stroke: #666;
      stroke-width: 1.5;
      stroke-dasharray: 5,3;
      marker-end: url(#arrowhead);
    }
    .http-path {
      fill: none;
      stroke: #ff6666;
      stroke-width: 2;
      marker-end: url(#arrowhead-red);
    }
    .label {
      font-family: 'Arial', sans-serif;
      font-size: 14px;
      text-anchor: middle;
    }
    .small-label {
      font-family: 'Arial', sans-serif;
      font-size: 12px;
      text-anchor: middle;
    }
    .title {
      font-family: 'Arial', sans-serif;
      font-size: 18px;
      font-weight: bold;
      text-anchor: middle;
    }
    .highlight {
      animation: pulse 1.5s infinite alternate;
    }
    @keyframes pulse {
      from { opacity: 1; }
      to { opacity: 0.6; }
    }
    .animate {
      animation: movePacket 3s ease-in-out;
    }
    @keyframes movePacket {
      0% { transform: translateX(0) translateY(0); opacity: 0; }
      10% { opacity: 1; }
      90% { opacity: 1; }
      100% { transform: translateX(300px) translateY(0); opacity: 0; }
    }
  </style>
  
  <defs>
    <marker id="arrowhead" markerWidth="10" markerHeight="7" refX="9" refY="3.5" orient="auto">
      <polygon points="0 0, 10 3.5, 0 7" fill="#666" />
    </marker>
    <marker id="arrowhead-red" markerWidth="10" markerHeight="7" refX="9" refY="3.5" orient="auto">
      <polygon points="0 0, 10 3.5, 0 7" fill="#ff6666" />
    </marker>
  </defs>
  
  <rect width="100%" height="100%" fill="#f8f9fa" />
  
  <text x="400" y="40" class="title">Kubernetes Ingress 工作原理</text>
  
  <!-- 外部客户端 -->
  <rect x="100" y="100" width="120" height="60" rx="5" ry="5" class="external" id="client" />
  <text x="160" y="135" class="label">外部客户端</text>
  
  <!-- Ingress 控制器 -->
  <rect x="300" y="80" width="200" height="100" rx="5" ry="5" class="ingress" id="ingress-controller" />
  <text x="400" y="110" class="label">Ingress 控制器</text>
  <text x="400" y="130" class="small-label">(Nginx/Traefik/HAProxy)</text>
  <text x="400" y="150" class="small-label">LoadBalancer Service</text>
  
  <!-- Ingress 控制器组件 -->
  <rect x="580" y="80" width="120" height="100" rx="5" ry="5" class="controller" id="controller" />
  <text x="640" y="110" class="label">控制器</text>
  <text x="640" y="130" class="small-label">监听 Ingress 资源</text>
  <text x="640" y="150" class="small-label">生成配置</text>
  
  <!-- 配置 -->
  <rect x="580" y="200" width="120" height="60" rx="5" ry="5" class="config" id="config" />
  <text x="640" y="230" class="label">ConfigMap</text>
  
  <!-- Ingress 资源 -->
  <rect x="580" y="280" width="120" height="60" rx="5" ry="5" class="config" id="ingress-resource" />
  <text x="640" y="310" class="label">Ingress 资源</text>
  
  <!-- 服务 A -->
  <rect x="200" y="250" width="120" height="60" rx="5" ry="5" class="service" id="service-a" />
  <text x="260" y="275" class="label">Service A</text>
  <text x="260" y="295" class="small-label">app1-service</text>
  
  <!-- 服务 B -->
  <rect x="380" y="250" width="120" height="60" rx="5" ry="5" class="service" id="service-b" />
  <text x="440" y="275" class="label">Service B</text>
  <text x="440" y="295" class="small-label">app2-service</text>
  
  <!-- Pod A1 -->
  <rect x="150" y="350" width="100" height="120" rx="5" ry="5" class="pod" id="pod-a1" />
  <text x="200" y="370" class="label">Pod A1</text>
  <rect x="160" y="390" width="80" height="60" rx="3" ry="3" class="container" />
  <text x="200" y="425" class="small-label">应用容器</text>
  
  <!-- Pod A2 -->
  <rect x="270" y="350" width="100" height="120" rx="5" ry="5" class="pod" id="pod-a2" />
  <text x="320" y="370" class="label">Pod A2</text>
  <rect x="280" y="390" width="80" height="60" rx="3" ry="3" class="container" />
  <text x="320" y="425" class="small-label">应用容器</text>
  
  <!-- Pod B1 -->
  <rect x="390" y="350" width="100" height="120" rx="5" ry="5" class="pod" id="pod-b1" />
  <text x="440" y="370" class="label">Pod B1</text>
  <rect x="400" y="390" width="80" height="60" rx="3" ry="3" class="container" />
  <text x="440" y="425" class="small-label">应用容器</text>
  
  <!-- Pod B2 -->
  <rect x="510" y="350" width="100" height="120" rx="5" ry="5" class="pod" id="pod-b2" />
  <text x="560" y="370" class="label">Pod B2</text>
  <rect x="520" y="390" width="80" height="60" rx="3" ry="3" class="container" />
  <text x="560" y="425" class="small-label">应用容器</text>
  
  <!-- 连接线 -->
  <!-- 客户端到Ingress控制器 -->
  <path d="M 220 130 L 300 130" class="arrow" id="client-to-ingress" />
  
  <!-- 控制器到配置 -->
  <path d="M 640 180 L 640 200" class="arrow" id="controller-to-config" />
  
  <!-- Ingress资源到控制器 -->
  <path d="M 640 280 L 640 180" class="dashed-arrow" id="ingress-to-controller" />
  
  <!-- 控制器到Ingress控制器 -->
  <path d="M 580 130 L 500 130" class="dashed-arrow" id="controller-to-ingress-controller" />
  
  <!-- Ingress控制器到Service -->
  <path d="M 350 180 L 260 250" class="http-path" id="ingress-to-service-a" />
  <path d="M 450 180 L 440 250" class="http-path" id="ingress-to-service-b" />
  
  <!-- Service到Pod -->
  <path d="M 230 310 L 200 350" class="arrow" id="service-a-to-pod-a1" />
  <path d="M 290 310 L 320 350" class="arrow" id="service-a-to-pod-a2" />
  <path d="M 410 310 L 440 350" class="arrow" id="service-b-to-pod-b1" />
  <path d="M 470 310 L 560 350" class="arrow" id="service-b-to-pod-b2" />
  
  <!-- HTTP路径标签 -->
  <text x="290" y="200" class="small-label" style="fill: #ff6666;">/app1</text>
  <text x="460" y="200" class="small-label" style="fill: #ff6666;">/app2</text>
  
  <!-- 主机名标签 -->
  <text x="400" y="70" class="small-label">example.com</text>
  
  <!-- TLS -->
  <rect x="300" y="50" width="200" height="20" rx="3" ry="3" fill="#f2f2f2" stroke="#47d147" />
  <text x="400" y="65" class="small-label" style="fill: #47d147;">TLS 终止</text>
  
  <!-- 图例 -->
  <rect x="100" y="500" width="15" height="15" class="ingress" />
  <text x="125" y="513" class="small-label" style="text-anchor: start;">Ingress 控制器</text>
  
  <rect x="250" y="500" width="15" height="15" class="service" />
  <text x="275" y="513" class="small-label" style="text-anchor: start;">Service</text>
  
  <rect x="350" y="500" width="15" height="15" class="pod" />
  <text x="375" y="513" class="small-label" style="text-anchor: start;">Pod</text>
  
  <rect x="450" y="500" width="15" height="15" class="controller" />
  <text x="475" y="513" class="small-label" style="text-anchor: start;">控制器</text>
  
  <rect x="550" y="500" width="15" height="15" class="config" />
  <text x="575" y="513" class="small-label" style="text-anchor: start;">配置</text>
  
  <line x1="650" y1="508" x2="680" y2="508" class="arrow" />
  <text x="705" y="513" class="small-label" style="text-anchor: start;">数据流向</text>
  
  <line x1="100" y1="540" x2="130" y2="540" class="dashed-arrow" />
  <text x="155" y="545" class="small-label" style="text-anchor: start;">控制流向</text>
  
  <line x1="250" y1="540" x2="280" y2="540" class="http-path" />
  <text x="305" y="545" class="small-label" style="text-anchor: start;">HTTP 路由</text>
  
  <!-- 注解 -->
  <text x="400" y="570" class="small-label">Ingress 注解控制路由规则、TLS配置、重写规则等</text>
</svg>
