<?xml version="1.0" encoding="UTF-8"?>
<svg width="800" height="600" xmlns="http://www.w3.org/2000/svg">
  <!-- 背景 -->
  <rect width="800" height="600" fill="#f8f9fa" />
  
  <!-- 标题 -->
  <text x="400" y="40" font-family="Arial" font-size="24" text-anchor="middle" fill="#1890ff" font-weight="bold">Calico IPinIP数据包流程</text>
  
  <!-- 节点1 -->
  <rect x="50" y="100" width="300" height="400" rx="10" fill="#e6f7ff" stroke="#1890ff" stroke-width="2" />
  <text x="200" y="130" font-family="Arial" font-size="18" text-anchor="middle" fill="#0050b3">节点1 (192.168.1.10)</text>
  
  <!-- 节点2 -->
  <rect x="450" y="100" width="300" height="400" rx="10" fill="#e6f7ff" stroke="#1890ff" stroke-width="2" />
  <text x="600" y="130" font-family="Arial" font-size="18" text-anchor="middle" fill="#0050b3">节点2 (192.168.1.11)</text>
  
  <!-- Pod A -->
  <rect x="100" y="170" width="200" height="80" rx="5" fill="#f6ffed" stroke="#52c41a" stroke-width="2" />
  <text x="200" y="200" font-family="Arial" font-size="16" text-anchor="middle" fill="#135200">Pod A</text>
  <text x="200" y="230" font-family="Arial" font-size="14" text-anchor="middle" fill="#135200">10.244.0.2</text>
  
  <!-- Pod B -->
  <rect x="500" y="170" width="200" height="80" rx="5" fill="#f6ffed" stroke="#52c41a" stroke-width="2" />
  <text x="600" y="200" font-family="Arial" font-size="16" text-anchor="middle" fill="#135200">Pod B</text>
  <text x="600" y="230" font-family="Arial" font-size="14" text-anchor="middle" fill="#135200">10.244.1.2</text>
  
  <!-- 节点1上的路由表 -->
  <rect x="80" y="280" width="240" height="100" rx="5" fill="#fff7e6" stroke="#fa8c16" stroke-width="1" />
  <text x="200" y="300" font-family="Arial" font-size="14" text-anchor="middle" fill="#873800">路由表</text>
  <text x="200" y="325" font-family="Arial" font-size="12" text-anchor="middle" fill="#873800">10.244.0.0/24 dev cali123 scope link</text>
  <text x="200" y="345" font-family="Arial" font-size="12" text-anchor="middle" fill="#873800">10.244.1.0/24 via 192.168.1.11 dev tunl0</text>
  <text x="200" y="365" font-family="Arial" font-size="12" text-anchor="middle" fill="#873800">默认路由...</text>
  
  <!-- 节点2上的路由表 -->
  <rect x="480" y="280" width="240" height="100" rx="5" fill="#fff7e6" stroke="#fa8c16" stroke-width="1" />
  <text x="600" y="300" font-family="Arial" font-size="14" text-anchor="middle" fill="#873800">路由表</text>
  <text x="600" y="325" font-family="Arial" font-size="12" text-anchor="middle" fill="#873800">10.244.1.0/24 dev cali456 scope link</text>
  <text x="600" y="345" font-family="Arial" font-size="12" text-anchor="middle" fill="#873800">10.244.0.0/24 via 192.168.1.10 dev tunl0</text>
  <text x="600" y="365" font-family="Arial" font-size="12" text-anchor="middle" fill="#873800">默认路由...</text>
  
  <!-- 节点1上的tunl0接口 -->
  <rect x="80" y="400" width="240" height="60" rx="5" fill="#f9f0ff" stroke="#722ed1" stroke-width="1" />
  <text x="200" y="425" font-family="Arial" font-size="14" text-anchor="middle" fill="#391085">tunl0接口 (IPinIP隧道)</text>
  <text x="200" y="445" font-family="Arial" font-size="12" text-anchor="middle" fill="#391085">MTU: 1480</text>
  
  <!-- 节点2上的tunl0接口 -->
  <rect x="480" y="400" width="240" height="60" rx="5" fill="#f9f0ff" stroke="#722ed1" stroke-width="1" />
  <text x="600" y="425" font-family="Arial" font-size="14" text-anchor="middle" fill="#391085">tunl0接口 (IPinIP隧道)</text>
  <text x="600" y="445" font-family="Arial" font-size="12" text-anchor="middle" fill="#391085">MTU: 1480</text>
  
  <!-- 数据包流向 -->
  <line x1="200" y1="250" x2="200" y2="280" stroke="#52c41a" stroke-width="2" />
  <polygon points="195,275 200,280 205,275" fill="#52c41a" />
  
  <line x1="200" y1="380" x2="200" y2="400" stroke="#fa8c16" stroke-width="2" />
  <polygon points="195,395 200,400 205,395" fill="#fa8c16" />
  
  <!-- IPinIP隧道 -->
  <path d="M200,460 C300,520 500,520 600,460" stroke="#722ed1" stroke-width="2" fill="none" stroke-dasharray="5,5" />
  <text x="400" y="530" font-family="Arial" font-size="14" text-anchor="middle" fill="#391085">IPinIP隧道</text>
  
  <line x1="600" y1="400" x2="600" y2="380" stroke="#fa8c16" stroke-width="2" />
  <polygon points="595,385 600,380 605,385" fill="#fa8c16" />
  
  <line x1="600" y1="280" x2="600" y2="250" stroke="#52c41a" stroke-width="2" />
  <polygon points="595,255 600,250 605,255" fill="#52c41a" />
  
  <!-- 数据包结构 -->
  <g transform="translate(350, 200)">
    <!-- 外部IP头 -->
    <rect x="-60" y="0" width="120" height="30" fill="#fff0f6" stroke="#eb2f96" stroke-width="1" />
    <text x="0" y="20" font-family="Arial" font-size="12" text-anchor="middle" fill="#c41d7f">外部IP头 (20字节)</text>
    
    <!-- 内部IP头 -->
    <rect x="-60" y="30" width="120" height="30" fill="#f0f5ff" stroke="#2f54eb" stroke-width="1" />
    <text x="0" y="50" font-family="Arial" font-size="12" text-anchor="middle" fill="#10239e">内部IP头 (20字节)</text>
    
    <!-- 数据 -->
    <rect x="-60" y="60" width="120" height="40" fill="#f6ffed" stroke="#52c41a" stroke-width="1" />
    <text x="0" y="85" font-family="Arial" font-size="12" text-anchor="middle" fill="#135200">数据</text>
    
    <!-- 标签 -->
    <text x="100" y="45" font-family="Arial" font-size="14" text-anchor="start" fill="#000">
      源IP: 192.168.1.10
      目标IP: 192.168.1.11
      协议: 4 (IPinIP)
    </text>
    
    <text x="100" y="85" font-family="Arial" font-size="14" text-anchor="start" fill="#000">
      源IP: 10.244.0.2 (Pod A)
      目标IP: 10.244.1.2 (Pod B)
    </text>
  </g>
  
  <!-- 步骤标记 -->
  <circle cx="200" y="210" r="15" fill="#1890ff" stroke="white" stroke-width="2" />
  <text x="200" y="215" font-family="Arial" font-size="12" text-anchor="middle" fill="white">1</text>
  
  <circle cx="200" y="320" r="15" fill="#1890ff" stroke="white" stroke-width="2" />
  <text x="200" y="325" font-family="Arial" font-size="12" text-anchor="middle" fill="white">2</text>
  
  <circle cx="200" y="430" r="15" fill="#1890ff" stroke="white" stroke-width="2" />
  <text x="200" y="435" font-family="Arial" font-size="12" text-anchor="middle" fill="white">3</text>
  
  <circle cx="400" y="490" r="15" fill="#1890ff" stroke="white" stroke-width="2" />
  <text x="400" y="495" font-family="Arial" font-size="12" text-anchor="middle" fill="white">4</text>
  
  <circle cx="600" y="430" r="15" fill="#1890ff" stroke="white" stroke-width="2" />
  <text x="600" y="435" font-family="Arial" font-size="12" text-anchor="middle" fill="white">5</text>
  
  <circle cx="600" y="320" r="15" fill="#1890ff" stroke="white" stroke-width="2" />
  <text x="600" y="325" font-family="Arial" font-size="12" text-anchor="middle" fill="white">6</text>
  
  <circle cx="600" y="210" r="15" fill="#1890ff" stroke="white" stroke-width="2" />
  <text x="600" y="215" font-family="Arial" font-size="12" text-anchor="middle" fill="white">7</text>
  
  <!-- 图例 -->
  <rect x="50" y="550" width="15" height="15" fill="#f6ffed" stroke="#52c41a" stroke-width="1" />
  <text x="75" y="563" font-family="Arial" font-size="14" fill="#000">Pod</text>
  
  <rect x="150" y="550" width="15" height="15" fill="#fff7e6" stroke="#fa8c16" stroke-width="1" />
  <text x="175" y="563" font-family="Arial" font-size="14" fill="#000">路由表</text>
  
  <rect x="250" y="550" width="15" height="15" fill="#f9f0ff" stroke="#722ed1" stroke-width="1" />
  <text x="275" y="563" font-family="Arial" font-size="14" fill="#000">IPinIP隧道</text>
  
  <rect x="350" y="550" width="15" height="15" fill="#fff0f6" stroke="#eb2f96" stroke-width="1" />
  <text x="375" y="563" font-family="Arial" font-size="14" fill="#000">外部IP头</text>
  
  <rect x="450" y="550" width="15" height="15" fill="#f0f5ff" stroke="#2f54eb" stroke-width="1" />
  <text x="475" y="563" font-family="Arial" font-size="14" fill="#000">内部IP头</text>
  
  <circle cx="550" y="558" r="15" fill="#1890ff" stroke="white" stroke-width="2" />
  <text x="550" y="563" font-family="Arial" font-size="12" text-anchor="middle" fill="white">1</text>
  <text x="575" y="563" font-family="Arial" font-size="14" fill="#000">步骤标记</text>
</svg>
