<?xml version="1.0" encoding="UTF-8" standalone="no"?>
<svg width="800" height="550" xmlns="http://www.w3.org/2000/svg">
  <defs>
    <marker id="arrowhead" markerWidth="10" markerHeight="7" refX="9" refY="3.5" orient="auto">
      <polygon points="0 0, 10 3.5, 0 7" fill="#333" />
    </marker>
  </defs>
  
  <!-- 背景 -->
  <rect x="0" y="0" width="800" height="550" fill="#f8f9fa" />
  
  <!-- 标题 -->
  <text x="400" y="40" font-family="Arial, sans-serif" font-size="24" text-anchor="middle" fill="#333">LoadBalancer Service 架构</text>
  
  <!-- 云环境边界 -->
  <rect x="40" y="70" width="720" height="430" rx="10" ry="10" fill="none" stroke="#333" stroke-width="2" stroke-dasharray="5,3" />
  <text x="400" y="90" font-family="Arial, sans-serif" font-size="16" text-anchor="middle" fill="#333">云环境</text>
  
  <!-- 集群边界 -->
  <rect x="70" y="140" width="660" height="330" rx="10" ry="10" fill="none" stroke="#333" stroke-width="2" stroke-dasharray="10,5" />
  <text x="400" y="160" font-family="Arial, sans-serif" font-size="16" text-anchor="middle" fill="#333">Kubernetes 集群</text>
  
  <!-- 外部客户端 -->
  <rect x="300" y="30" width="200" height="30" rx="5" ry="5" fill="#fdae6b" stroke="#333" stroke-width="2" />
  <text x="400" y="50" font-family="Arial, sans-serif" font-size="14" text-anchor="middle" fill="#333">外部客户端</text>
  
  <!-- 云负载均衡器 -->
  <rect x="250" y="100" width="300" height="40" rx="5" ry="5" fill="#bcbddc" stroke="#333" stroke-width="2" />
  <text x="400" y="125" font-family="Arial, sans-serif" font-size="14" text-anchor="middle" fill="#333">云负载均衡器 (192.168.1.100)</text>
  
  <!-- 节点 1 -->
  <rect x="100" y="190" width="260" height="250" rx="5" ry="5" fill="#f5f5f5" stroke="#333" stroke-width="2" />
  <text x="230" y="210" font-family="Arial, sans-serif" font-size="16" text-anchor="middle" fill="#333">节点 1</text>
  <text x="230" y="230" font-family="Arial, sans-serif" font-size="14" text-anchor="middle" fill="#333">192.168.1.10</text>
  
  <!-- 节点 2 -->
  <rect x="440" y="190" width="260" height="250" rx="5" ry="5" fill="#f5f5f5" stroke="#333" stroke-width="2" />
  <text x="570" y="210" font-family="Arial, sans-serif" font-size="16" text-anchor="middle" fill="#333">节点 2</text>
  <text x="570" y="230" font-family="Arial, sans-serif" font-size="14" text-anchor="middle" fill="#333">192.168.1.11</text>
  
  <!-- NodePort 1 -->
  <rect x="120" y="250" width="100" height="40" rx="5" ry="5" fill="#fdae6b" stroke="#333" stroke-width="2" />
  <text x="170" y="275" font-family="Arial, sans-serif" font-size="14" text-anchor="middle" fill="#333">NodePort</text>
  <text x="170" y="290" font-family="Arial, sans-serif" font-size="12" text-anchor="middle" fill="#333">30080</text>
  
  <!-- NodePort 2 -->
  <rect x="580" y="250" width="100" height="40" rx="5" ry="5" fill="#fdae6b" stroke="#333" stroke-width="2" />
  <text x="630" y="275" font-family="Arial, sans-serif" font-size="14" text-anchor="middle" fill="#333">NodePort</text>
  <text x="630" y="290" font-family="Arial, sans-serif" font-size="12" text-anchor="middle" fill="#333">30080</text>
  
  <!-- Service -->
  <ellipse cx="400" cy="300" rx="90" ry="50" fill="#fc8d59" stroke="#333" stroke-width="2" />
  <text x="400" y="290" font-family="Arial, sans-serif" font-size="16" text-anchor="middle" fill="#fff">LoadBalancer Service</text>
  <text x="400" y="310" font-family="Arial, sans-serif" font-size="14" text-anchor="middle" fill="#fff">ClusterIP: 10.96.1.10</text>
  <text x="400" y="330" font-family="Arial, sans-serif" font-size="12" text-anchor="middle" fill="#fff">port: 80</text>
  
  <!-- kube-proxy 1 -->
  <rect x="240" y="250" width="100" height="40" rx="5" ry="5" fill="#fd8d3c" stroke="#333" stroke-width="2" />
  <text x="290" y="275" font-family="Arial, sans-serif" font-size="14" text-anchor="middle" fill="#fff">kube-proxy</text>
  
  <!-- kube-proxy 2 -->
  <rect x="460" y="250" width="100" height="40" rx="5" ry="5" fill="#fd8d3c" stroke="#333" stroke-width="2" />
  <text x="510" y="275" font-family="Arial, sans-serif" font-size="14" text-anchor="middle" fill="#fff">kube-proxy</text>
  
  <!-- Pod 1 -->
  <rect x="130" y="360" width="80" height="50" rx="5" ry="5" fill="#9ecae1" stroke="#333" stroke-width="2" />
  <text x="170" y="385" font-family="Arial, sans-serif" font-size="14" text-anchor="middle" fill="#333">Pod 1</text>
  <text x="170" y="400" font-family="Arial, sans-serif" font-size="10" text-anchor="middle" fill="#333">10.244.1.2:8080</text>
  
  <!-- Pod 2 -->
  <rect x="250" y="360" width="80" height="50" rx="5" ry="5" fill="#9ecae1" stroke="#333" stroke-width="2" />
  <text x="290" y="385" font-family="Arial, sans-serif" font-size="14" text-anchor="middle" fill="#333">Pod 2</text>
  <text x="290" y="400" font-family="Arial, sans-serif" font-size="10" text-anchor="middle" fill="#333">10.244.1.3:8080</text>
  
  <!-- Pod 3 -->
  <rect x="490" y="360" width="80" height="50" rx="5" ry="5" fill="#9ecae1" stroke="#333" stroke-width="2" />
  <text x="530" y="385" font-family="Arial, sans-serif" font-size="14" text-anchor="middle" fill="#333">Pod 3</text>
  <text x="530" y="400" font-family="Arial, sans-serif" font-size="10" text-anchor="middle" fill="#333">10.244.2.2:8080</text>
  
  <!-- Pod 4 -->
  <rect x="590" y="360" width="80" height="50" rx="5" ry="5" fill="#9ecae1" stroke="#333" stroke-width="2" />
  <text x="630" y="385" font-family="Arial, sans-serif" font-size="14" text-anchor="middle" fill="#333">Pod 4</text>
  <text x="630" y="400" font-family="Arial, sans-serif" font-size="10" text-anchor="middle" fill="#333">10.244.2.3:8080</text>
  
  <!-- 云控制器管理器 -->
  <rect x="70" y="100" width="150" height="40" rx="5" ry="5" fill="#6baed6" stroke="#333" stroke-width="2" />
  <text x="145" y="125" font-family="Arial, sans-serif" font-size="14" text-anchor="middle" fill="#fff">云控制器管理器</text>
  
  <!-- 连接线 -->
  <!-- 外部客户端到负载均衡器 -->
  <line x1="400" y1="60" x2="400" y2="100" stroke="#333" stroke-width="2" marker-end="url(#arrowhead)" />
  <text x="420" y="85" font-family="Arial, sans-serif" font-size="10" fill="#333">1. 客户端请求</text>
  
  <!-- 云控制器到负载均衡器 -->
  <line x1="220" y1="120" x2="250" y2="120" stroke="#333" stroke-width="2" marker-end="url(#arrowhead)" />
  <text x="230" y="110" font-family="Arial, sans-serif" font-size="10" fill="#333">配置</text>
  
  <!-- 负载均衡器到 NodePort -->
  <path d="M 300 140 L 170 200 L 170 250" stroke="#333" stroke-width="2" marker-end="url(#arrowhead)" fill="none" />
  <text x="200" y="180" font-family="Arial, sans-serif" font-size="10" fill="#333">2. 转发到节点</text>
  
  <path d="M 500 140 L 630 200 L 630 250" stroke="#333" stroke-width="2" marker-end="url(#arrowhead)" fill="none" />
  <text x="570" y="180" font-family="Arial, sans-serif" font-size="10" fill="#333">2. 转发到节点</text>
  
  <!-- NodePort 到 kube-proxy -->
  <line x1="220" y1="270" x2="240" y2="270" stroke="#333" stroke-width="2" marker-end="url(#arrowhead)" />
  <line x1="580" y1="270" x2="560" y2="270" stroke="#333" stroke-width="2" marker-end="url(#arrowhead)" />
  
  <!-- kube-proxy 到 Service -->
  <line x1="340" y1="270" x2="360" y2="285" stroke="#333" stroke-width="2" marker-end="url(#arrowhead)" />
  <text x="330" y="260" font-family="Arial, sans-serif" font-size="10" fill="#333">3. 转发到 ClusterIP</text>
  
  <line x1="460" y1="270" x2="440" y2="285" stroke="#333" stroke-width="2" marker-end="url(#arrowhead)" />
  <text x="430" y="260" font-family="Arial, sans-serif" font-size="10" fill="#333">3. 转发到 ClusterIP</text>
  
  <!-- Service 到 Pod -->
  <path d="M 350 335 L 230 360" stroke="#333" stroke-width="2" marker-end="url(#arrowhead)" fill="none" />
  <text x="270" y="350" font-family="Arial, sans-serif" font-size="10" fill="#333">4. DNAT + 负载均衡</text>
  
  <path d="M 380 340 L 290 360" stroke="#333" stroke-width="2" marker-end="url(#arrowhead)" fill="none" />
  
  <path d="M 420 340 L 530 360" stroke="#333" stroke-width="2" marker-end="url(#arrowhead)" fill="none" />
  
  <path d="M 450 335 L 630 360" stroke="#333" stroke-width="2" marker-end="url(#arrowhead)" fill="none" />
  <text x="530" y="350" font-family="Arial, sans-serif" font-size="10" fill="#333">4. DNAT + 负载均衡</text>
  
  <!-- 标签选择器 -->
  <path d="M 320 340 C 300 350, 250 365, 230 380" stroke="#333" stroke-width="1.5" stroke-dasharray="4,2" fill="none" />
  <text x="240" y="370" font-family="Arial, sans-serif" font-size="10" fill="#333">标签选择器: app=MyApp</text>
  
  <!-- 健康检查 -->
  <path d="M 400 140 C 400 180, 400 220, 400 250" stroke="#333" stroke-width="1.5" stroke-dasharray="4,2" fill="none" />
  <text x="420" y="200" font-family="Arial, sans-serif" font-size="10" fill="#333">健康检查</text>
  
  <!-- Service 状态 -->
  <rect x="300" y="430" width="200" height="50" rx="5" ry="5" fill="#fdd0a2" stroke="#333" stroke-width="1.5" />
  <text x="400" y="450" font-family="Arial, sans-serif" font-size="12" text-anchor="middle" fill="#333">Service.status.loadBalancer.ingress:</text>
  <text x="400" y="470" font-family="Arial, sans-serif" font-size="12" text-anchor="middle" fill="#333">- ip: 192.168.1.100</text>
  
  <!-- 图例 -->
  <rect x="70" y="510" width="15" height="15" fill="#fdae6b" stroke="#333" stroke-width="1" />
  <text x="95" y="523" font-family="Arial, sans-serif" font-size="12" fill="#333">NodePort/客户端</text>
  
  <rect x="200" y="510" width="15" height="15" fill="#fc8d59" stroke="#333" stroke-width="1" />
  <text x="225" y="523" font-family="Arial, sans-serif" font-size="12" fill="#333">Service</text>
  
  <rect x="290" y="510" width="15" height="15" fill="#9ecae1" stroke="#333" stroke-width="1" />
  <text x="315" y="523" font-family="Arial, sans-serif" font-size="12" fill="#333">Pod</text>
  
  <rect x="370" y="510" width="15" height="15" fill="#bcbddc" stroke="#333" stroke-width="1" />
  <text x="395" y="523" font-family="Arial, sans-serif" font-size="12" fill="#333">云负载均衡器</text>
  
  <rect x="460" y="510" width="15" height="15" fill="#6baed6" stroke="#333" stroke-width="1" />
  <text x="485" y="523" font-family="Arial, sans-serif" font-size="12" fill="#333">云控制器</text>
  
  <rect x="550" y="510" width="15" height="15" fill="#fd8d3c" stroke="#333" stroke-width="1" />
  <text x="575" y="523" font-family="Arial, sans-serif" font-size="12" fill="#333">kube-proxy</text>
  
  <rect x="640" y="510" width="15" height="15" fill="#fdd0a2" stroke="#333" stroke-width="1" />
  <text x="665" y="523" font-family="Arial, sans-serif" font-size="12" fill="#333">状态信息</text>
</svg> 