<?xml version="1.0" encoding="UTF-8" standalone="no"?>
<svg width="800" height="600" xmlns="http://www.w3.org/2000/svg">
  <defs>
    <marker id="arrowhead" markerWidth="10" markerHeight="7" refX="9" refY="3.5" orient="auto">
      <polygon points="0 0, 10 3.5, 0 7" fill="#333" />
    </marker>
  </defs>
  
  <!-- 背景 -->
  <rect x="0" y="0" width="800" height="600" fill="#f8f9fa" />
  
  <!-- 标题 -->
  <text x="400" y="40" font-family="Arial, sans-serif" font-size="24" text-anchor="middle" fill="#333">LoadBalancer Service 数据包流向</text>
  
  <!-- 云环境边界 -->
  <rect x="50" y="70" width="700" height="480" rx="10" ry="10" fill="none" stroke="#333" stroke-width="2" stroke-dasharray="5,3" />
  <text x="400" y="90" font-family="Arial, sans-serif" font-size="16" text-anchor="middle" fill="#333">云环境</text>
  
  <!-- 集群边界 -->
  <rect x="100" y="180" width="600" height="340" rx="10" ry="10" fill="none" stroke="#333" stroke-width="2" stroke-dasharray="10,5" />
  <text x="400" y="200" font-family="Arial, sans-serif" font-size="16" text-anchor="middle" fill="#333">Kubernetes 集群</text>
  
  <!-- 外部客户端 -->
  <rect x="150" y="110" width="100" height="40" rx="5" ry="5" fill="#fdae6b" stroke="#333" stroke-width="2" />
  <text x="200" y="135" font-family="Arial, sans-serif" font-size="14" text-anchor="middle" fill="#333">外部客户端</text>
  
  <!-- 云负载均衡器 -->
  <rect x="350" y="110" width="100" height="40" rx="5" ry="5" fill="#bcbddc" stroke="#333" stroke-width="2" />
  <text x="400" y="135" font-family="Arial, sans-serif" font-size="14" text-anchor="middle" fill="#333">云负载均衡器</text>
  
  <!-- 节点 1 -->
  <rect x="150" y="230" width="220" height="250" rx="5" ry="5" fill="#f5f5f5" stroke="#333" stroke-width="2" />
  <text x="260" y="250" font-family="Arial, sans-serif" font-size="16" text-anchor="middle" fill="#333">节点 1</text>
  <text x="260" y="270" font-family="Arial, sans-serif" font-size="14" text-anchor="middle" fill="#333">192.168.1.10</text>
  
  <!-- 节点 2 -->
  <rect x="430" y="230" width="220" height="250" rx="5" ry="5" fill="#f5f5f5" stroke="#333" stroke-width="2" />
  <text x="540" y="250" font-family="Arial, sans-serif" font-size="16" text-anchor="middle" fill="#333">节点 2</text>
  <text x="540" y="270" font-family="Arial, sans-serif" font-size="14" text-anchor="middle" fill="#333">192.168.1.11</text>
  
  <!-- NodePort 1 -->
  <rect x="170" y="290" width="80" height="30" rx="5" ry="5" fill="#fdae6b" stroke="#333" stroke-width="2" />
  <text x="210" y="310" font-family="Arial, sans-serif" font-size="12" text-anchor="middle" fill="#333">NodePort: 30080</text>
  
  <!-- NodePort 2 -->
  <rect x="550" y="290" width="80" height="30" rx="5" ry="5" fill="#fdae6b" stroke="#333" stroke-width="2" />
  <text x="590" y="310" font-family="Arial, sans-serif" font-size="12" text-anchor="middle" fill="#333">NodePort: 30080</text>
  
  <!-- iptables 1 -->
  <rect x="170" y="340" width="180" height="30" rx="5" ry="5" fill="#74c476" stroke="#333" stroke-width="2" />
  <text x="260" y="360" font-family="Arial, sans-serif" font-size="12" text-anchor="middle" fill="#fff">iptables/IPVS 规则</text>
  
  <!-- iptables 2 -->
  <rect x="450" y="340" width="180" height="30" rx="5" ry="5" fill="#74c476" stroke="#333" stroke-width="2" />
  <text x="540" y="360" font-family="Arial, sans-serif" font-size="12" text-anchor="middle" fill="#fff">iptables/IPVS 规则</text>
  
  <!-- Service -->
  <ellipse cx="400" cy="390" rx="80" ry="40" fill="#fc8d59" stroke="#333" stroke-width="2" />
  <text x="400" y="385" font-family="Arial, sans-serif" font-size="16" text-anchor="middle" fill="#fff">Service</text>
  <text x="400" y="405" font-family="Arial, sans-serif" font-size="12" text-anchor="middle" fill="#fff">ClusterIP: 10.96.1.10</text>
  
  <!-- Pod 1 -->
  <rect x="170" y="430" width="80" height="40" rx="5" ry="5" fill="#9ecae1" stroke="#333" stroke-width="2" />
  <text x="210" y="450" font-family="Arial, sans-serif" font-size="12" text-anchor="middle" fill="#333">Pod 1</text>
  <text x="210" y="465" font-family="Arial, sans-serif" font-size="10" text-anchor="middle" fill="#333">10.244.1.2:8080</text>
  
  <!-- Pod 2 -->
  <rect x="270" y="430" width="80" height="40" rx="5" ry="5" fill="#9ecae1" stroke="#333" stroke-width="2" />
  <text x="310" y="450" font-family="Arial, sans-serif" font-size="12" text-anchor="middle" fill="#333">Pod 2</text>
  <text x="310" y="465" font-family="Arial, sans-serif" font-size="10" text-anchor="middle" fill="#333">10.244.1.3:8080</text>
  
  <!-- Pod 3 -->
  <rect x="450" y="430" width="80" height="40" rx="5" ry="5" fill="#9ecae1" stroke="#333" stroke-width="2" />
  <text x="490" y="450" font-family="Arial, sans-serif" font-size="12" text-anchor="middle" fill="#333">Pod 3</text>
  <text x="490" y="465" font-family="Arial, sans-serif" font-size="10" text-anchor="middle" fill="#333">10.244.2.2:8080</text>
  
  <!-- Pod 4 -->
  <rect x="550" y="430" width="80" height="40" rx="5" ry="5" fill="#9ecae1" stroke="#333" stroke-width="2" />
  <text x="590" y="450" font-family="Arial, sans-serif" font-size="12" text-anchor="middle" fill="#333">Pod 4</text>
  <text x="590" y="465" font-family="Arial, sans-serif" font-size="10" text-anchor="middle" fill="#333">10.244.2.3:8080</text>
  
  <!-- 健康检查组件 -->
  <rect x="550" y="110" width="100" height="40" rx="5" ry="5" fill="#9e9ac8" stroke="#333" stroke-width="2" />
  <text x="600" y="135" font-family="Arial, sans-serif" font-size="14" text-anchor="middle" fill="#fff">健康检查组件</text>
  
  <!-- 数据包流向 -->
  <!-- 1. 客户端到负载均衡器 -->
  <path d="M 250 130 L 350 130" stroke="#e41a1c" stroke-width="2" marker-end="url(#arrowhead)" fill="none" />
  <text x="300" y="120" font-family="Arial, sans-serif" font-size="10" fill="#e41a1c">1. 客户端请求 (目标: 192.168.1.100:80)</text>
  
  <!-- 2. 负载均衡器健康检查 -->
  <path d="M 450 130 L 550 130" stroke="#377eb8" stroke-width="1.5" stroke-dasharray="4,2" marker-end="url(#arrowhead)" fill="none" />
  <text x="500" y="120" font-family="Arial, sans-serif" font-size="10" fill="#377eb8">健康检查</text>
  
  <!-- 3. 负载均衡器选择节点 -->
  <path d="M 400 150 L 400 170 L 260 210" stroke="#377eb8" stroke-width="2" marker-end="url(#arrowhead)" fill="none" />
  <text x="300" y="180" font-family="Arial, sans-serif" font-size="10" fill="#377eb8">2. 负载均衡器选择节点</text>
  
  <!-- 4. 节点的 NodePort 接收流量 -->
  <path d="M 260 270 L 210 290" stroke="#4daf4a" stroke-width="2" marker-end="url(#arrowhead)" fill="none" />
  <text x="230" y="285" font-family="Arial, sans-serif" font-size="10" fill="#4daf4a">3. 流量到达 NodePort</text>
  
  <!-- 5. NodePort 到 iptables -->
  <path d="M 210 320 L 210 340" stroke="#4daf4a" stroke-width="2" marker-end="url(#arrowhead)" fill="none" />
  
  <!-- 6. iptables 到 Service -->
  <path d="M 260 370 L 350 390" stroke="#984ea3" stroke-width="2" marker-end="url(#arrowhead)" fill="none" />
  <text x="280" y="380" font-family="Arial, sans-serif" font-size="10" fill="#984ea3">4. 转发到 ClusterIP</text>
  
  <!-- 7. Service 到 Pod -->
  <path d="M 370 420 L 310 430" stroke="#ff7f00" stroke-width="2" marker-end="url(#arrowhead)" fill="none" />
  <text x="330" y="435" font-family="Arial, sans-serif" font-size="10" fill="#ff7f00">5. DNAT + 负载均衡</text>
  
  <!-- 8. 响应路径 -->
  <path d="M 310 430 C 310 420, 400 350, 400 150" stroke="#a65628" stroke-width="1.5" stroke-dasharray="4,2" marker-end="url(#arrowhead)" fill="none" />
  <text x="320" y="350" font-family="Arial, sans-serif" font-size="10" fill="#a65628">6. 响应返回</text>
  
  <!-- externalTrafficPolicy 说明 -->
  <rect x="200" y="500" width="400" height="40" rx="5" ry="5" fill="#fdd0a2" stroke="#333" stroke-width="1.5" />
  <text x="400" y="520" font-family="Arial, sans-serif" font-size="12" text-anchor="middle" fill="#333">externalTrafficPolicy: Cluster (默认) 或 Local (保留源 IP)</text>
  
  <!-- 图例 -->
  <rect x="100" y="560" width="15" height="15" fill="#fdae6b" stroke="#333" stroke-width="1" />
  <text x="125" y="573" font-family="Arial, sans-serif" font-size="12" fill="#333">客户端/NodePort</text>
  
  <rect x="230" y="560" width="15" height="15" fill="#bcbddc" stroke="#333" stroke-width="1" />
  <text x="255" y="573" font-family="Arial, sans-serif" font-size="12" fill="#333">云负载均衡器</text>
  
  <rect x="330" y="560" width="15" height="15" fill="#fc8d59" stroke="#333" stroke-width="1" />
  <text x="355" y="573" font-family="Arial, sans-serif" font-size="12" fill="#333">Service</text>
  
  <rect x="420" y="560" width="15" height="15" fill="#9ecae1" stroke="#333" stroke-width="1" />
  <text x="445" y="573" font-family="Arial, sans-serif" font-size="12" fill="#333">Pod</text>
  
  <rect x="500" y="560" width="15" height="15" fill="#74c476" stroke="#333" stroke-width="1" />
  <text x="525" y="573" font-family="Arial, sans-serif" font-size="12" fill="#333">iptables/IPVS</text>
  
  <rect x="590" y="560" width="15" height="15" fill="#9e9ac8" stroke="#333" stroke-width="1" />
  <text x="615" y="573" font-family="Arial, sans-serif" font-size="12" fill="#333">健康检查</text>
  
  <rect x="680" y="560" width="15" height="15" fill="#fdd0a2" stroke="#333" stroke-width="1" />
  <text x="705" y="573" font-family="Arial, sans-serif" font-size="12" fill="#333">流量策略</text>
</svg> 