<?xml version="1.0" encoding="UTF-8" standalone="no"?>
<svg width="800" height="600" xmlns="http://www.w3.org/2000/svg">
    <!-- 定义渐变和滤镜 -->
    <defs>
        <!-- 主机背景渐变 -->
        <linearGradient id="hostGradient" x1="0%" y1="0%" x2="0%" y2="100%">
            <stop offset="0%" style="stop-color:#f0f4f8;stop-opacity:1" />
            <stop offset="100%" style="stop-color:#d1e0ed;stop-opacity:1" />
        </linearGradient>
        
        <!-- 命名空间背景渐变 -->
        <linearGradient id="namespaceGradient" x1="0%" y1="0%" x2="0%" y2="100%">
            <stop offset="0%" style="stop-color:#e6f7ff;stop-opacity:1" />
            <stop offset="100%" style="stop-color:#bae7ff;stop-opacity:1" />
        </linearGradient>
        
        <!-- 网络设备背景渐变 -->
        <linearGradient id="deviceGradient" x1="0%" y1="0%" x2="0%" y2="100%">
            <stop offset="0%" style="stop-color:#f6ffed;stop-opacity:1" />
            <stop offset="100%" style="stop-color:#d9f7be;stop-opacity:1" />
        </linearGradient>
        
        <!-- veth 连接渐变 -->
        <linearGradient id="vethGradient" x1="0%" y1="0%" x2="100%" y2="0%">
            <stop offset="0%" style="stop-color:#ffa39e;stop-opacity:1" />
            <stop offset="100%" style="stop-color:#ff7875;stop-opacity:1" />
        </linearGradient>
        
        <!-- 阴影效果 -->
        <filter id="shadow" x="-10%" y="-10%" width="120%" height="120%">
            <feDropShadow dx="2" dy="2" stdDeviation="3" flood-color="#333" flood-opacity="0.3"/>
        </filter>
        
        <!-- 箭头标记 -->
        <marker id="arrow" viewBox="0 0 10 10" refX="9" refY="5"
                markerWidth="6" markerHeight="6" orient="auto">
            <path d="M 0 0 L 10 5 L 0 10 z" fill="#666"/>
        </marker>
        
        <!-- veth 箭头标记 -->
        <marker id="vethArrow" viewBox="0 0 10 10" refX="9" refY="5"
                markerWidth="6" markerHeight="6" orient="auto">
            <path d="M 0 0 L 10 5 L 0 10 z" fill="#ff7875"/>
        </marker>
    </defs>
    
    <!-- 背景 -->
    <rect width="800" height="600" fill="#f5f5f5" />
    
    <!-- 标题 -->
    <text x="400" y="30" font-family="Arial, sans-serif" font-size="20" text-anchor="middle" fill="#333">Linux 网络命名空间</text>
    
    <!-- 主机 -->
    <rect x="50" y="60" width="700" height="500" rx="10" ry="10" fill="url(#hostGradient)" stroke="#91caff" stroke-width="2" filter="url(#shadow)" />
    <text x="400" y="85" font-family="Arial, sans-serif" font-size="16" text-anchor="middle" fill="#333">主机 (Host)</text>
    
    <!-- 主机网络命名空间 -->
    <rect x="70" y="100" width="660" height="120" rx="8" ry="8" fill="url(#namespaceGradient)" stroke="#69c0ff" stroke-width="2" />
    <text x="400" y="120" font-family="Arial, sans-serif" font-size="14" text-anchor="middle" fill="#333">主机网络命名空间 (Root Network Namespace)</text>
    
    <!-- 主机网络设备 -->
    <rect x="100" y="140" width="120" height="60" rx="5" ry="5" fill="url(#deviceGradient)" stroke="#95de64" stroke-width="1" />
    <text x="160" y="165" font-family="Arial, sans-serif" font-size="12" text-anchor="middle" fill="#333">eth0</text>
    <text x="160" y="185" font-family="Arial, sans-serif" font-size="10" text-anchor="middle" fill="#666">192.168.1.100</text>
    
    <rect x="250" y="140" width="120" height="60" rx="5" ry="5" fill="url(#deviceGradient)" stroke="#95de64" stroke-width="1" />
    <text x="310" y="165" font-family="Arial, sans-serif" font-size="12" text-anchor="middle" fill="#333">lo</text>
    <text x="310" y="185" font-family="Arial, sans-serif" font-size="10" text-anchor="middle" fill="#666">127.0.0.1</text>
    
    <rect x="400" y="140" width="120" height="60" rx="5" ry="5" fill="url(#deviceGradient)" stroke="#95de64" stroke-width="1" />
    <text x="460" y="165" font-family="Arial, sans-serif" font-size="12" text-anchor="middle" fill="#333">veth1-host</text>
    <text x="460" y="185" font-family="Arial, sans-serif" font-size="10" text-anchor="middle" fill="#666">veth 对主机端</text>
    
    <rect x="550" y="140" width="120" height="60" rx="5" ry="5" fill="url(#deviceGradient)" stroke="#95de64" stroke-width="1" />
    <text x="610" y="165" font-family="Arial, sans-serif" font-size="12" text-anchor="middle" fill="#333">veth2-host</text>
    <text x="610" y="185" font-family="Arial, sans-serif" font-size="10" text-anchor="middle" fill="#666">veth 对主机端</text>
    
    <!-- 网络命名空间 1 -->
    <rect x="70" y="250" width="300" height="150" rx="8" ry="8" fill="url(#namespaceGradient)" stroke="#69c0ff" stroke-width="2" />
    <text x="220" y="270" font-family="Arial, sans-serif" font-size="14" text-anchor="middle" fill="#333">网络命名空间 1 (netns1)</text>
    
    <!-- 网络命名空间 1 的网络设备 -->
    <rect x="100" y="290" width="120" height="60" rx="5" ry="5" fill="url(#deviceGradient)" stroke="#95de64" stroke-width="1" />
    <text x="160" y="315" font-family="Arial, sans-serif" font-size="12" text-anchor="middle" fill="#333">veth1</text>
    <text x="160" y="335" font-family="Arial, sans-serif" font-size="10" text-anchor="middle" fill="#666">10.0.0.1/24</text>
    
    <rect x="250" y="290" width="80" height="60" rx="5" ry="5" fill="url(#deviceGradient)" stroke="#95de64" stroke-width="1" />
    <text x="290" y="315" font-family="Arial, sans-serif" font-size="12" text-anchor="middle" fill="#333">lo</text>
    <text x="290" y="335" font-family="Arial, sans-serif" font-size="10" text-anchor="middle" fill="#666">127.0.0.1</text>
    
    <!-- 网络命名空间 1 的路由表 -->
    <rect x="100" y="360" width="230" height="30" rx="3" ry="3" fill="#fff" stroke="#d9d9d9" stroke-width="1" />
    <text x="215" y="380" font-family="Arial, sans-serif" font-size="10" text-anchor="middle" fill="#666">路由表: 10.0.0.0/24 via veth1</text>
    
    <!-- 网络命名空间 2 -->
    <rect x="430" y="250" width="300" height="150" rx="8" ry="8" fill="url(#namespaceGradient)" stroke="#69c0ff" stroke-width="2" />
    <text x="580" y="270" font-family="Arial, sans-serif" font-size="14" text-anchor="middle" fill="#333">网络命名空间 2 (netns2)</text>
    
    <!-- 网络命名空间 2 的网络设备 -->
    <rect x="460" y="290" width="120" height="60" rx="5" ry="5" fill="url(#deviceGradient)" stroke="#95de64" stroke-width="1" />
    <text x="520" y="315" font-family="Arial, sans-serif" font-size="12" text-anchor="middle" fill="#333">veth2</text>
    <text x="520" y="335" font-family="Arial, sans-serif" font-size="10" text-anchor="middle" fill="#666">10.0.0.2/24</text>
    
    <rect x="610" y="290" width="80" height="60" rx="5" ry="5" fill="url(#deviceGradient)" stroke="#95de64" stroke-width="1" />
    <text x="650" y="315" font-family="Arial, sans-serif" font-size="12" text-anchor="middle" fill="#333">lo</text>
    <text x="650" y="335" font-family="Arial, sans-serif" font-size="10" text-anchor="middle" fill="#666">127.0.0.1</text>
    
    <!-- 网络命名空间 2 的路由表 -->
    <rect x="460" y="360" width="230" height="30" rx="3" ry="3" fill="#fff" stroke="#d9d9d9" stroke-width="1" />
    <text x="575" y="380" font-family="Arial, sans-serif" font-size="10" text-anchor="middle" fill="#666">路由表: 10.0.0.0/24 via veth2</text>
    
    <!-- Pod 网络命名空间示例 -->
    <rect x="70" y="430" width="660" height="110" rx="8" ry="8" fill="url(#namespaceGradient)" stroke="#69c0ff" stroke-width="2" />
    <text x="400" y="450" font-family="Arial, sans-serif" font-size="14" text-anchor="middle" fill="#333">Kubernetes Pod 网络命名空间</text>
    
    <!-- Pod 内容器 -->
    <rect x="100" y="470" width="120" height="50" rx="5" ry="5" fill="#fff" stroke="#d9d9d9" stroke-width="1" />
    <text x="160" y="495" font-family="Arial, sans-serif" font-size="12" text-anchor="middle" fill="#333">Pause 容器</text>
    
    <rect x="250" y="470" width="120" height="50" rx="5" ry="5" fill="#fff" stroke="#d9d9d9" stroke-width="1" />
    <text x="310" y="495" font-family="Arial, sans-serif" font-size="12" text-anchor="middle" fill="#333">容器 1</text>
    
    <rect x="400" y="470" width="120" height="50" rx="5" ry="5" fill="#fff" stroke="#d9d9d9" stroke-width="1" />
    <text x="460" y="495" font-family="Arial, sans-serif" font-size="12" text-anchor="middle" fill="#333">容器 2</text>
    
    <!-- Pod 网络设备 -->
    <rect x="550" y="470" width="150" height="50" rx="5" ry="5" fill="url(#deviceGradient)" stroke="#95de64" stroke-width="1" />
    <text x="625" y="490" font-family="Arial, sans-serif" font-size="12" text-anchor="middle" fill="#333">eth0 (共享)</text>
    <text x="625" y="510" font-family="Arial, sans-serif" font-size="10" text-anchor="middle" fill="#666">10.244.1.2</text>
    
    <!-- veth 连接 -->
    <path d="M 160 200 C 160,230 160,250 160,290" stroke="url(#vethGradient)" stroke-width="3" fill="none" marker-end="url(#vethArrow)" class="veth-connection" />
    <text x="140" y="240" font-family="Arial, sans-serif" font-size="10" fill="#333">veth 对</text>
    
    <path d="M 520 200 C 520,230 520,250 520,290" stroke="url(#vethGradient)" stroke-width="3" fill="none" marker-end="url(#vethArrow)" class="veth-connection" />
    <text x="500" y="240" font-family="Arial, sans-serif" font-size="10" fill="#333">veth 对</text>
    
    <!-- 通信路径 -->
    <path d="M 180 320 C 250,320 430,320 500,320" stroke="#666" stroke-width="1.5" stroke-dasharray="4,2" marker-end="url(#arrow)" />
    <text x="340" y="310" font-family="Arial, sans-serif" font-size="10" fill="#333">直接通信</text>
    
    <!-- 图例 -->
    <g id="legend" transform="translate(50, 560)">
        <rect x="0" y="0" width="15" height="10" fill="url(#namespaceGradient)" stroke="#69c0ff" stroke-width="1" />
        <text x="20" y="9" font-family="Arial, sans-serif" font-size="10" fill="#333">网络命名空间</text>
        
        <rect x="150" y="0" width="15" height="10" fill="url(#deviceGradient)" stroke="#95de64" stroke-width="1" />
        <text x="170" y="9" font-family="Arial, sans-serif" font-size="10" fill="#333">网络设备</text>
        
        <line x1="300" y1="5" x2="330" y2="5" stroke="url(#vethGradient)" stroke-width="3" />
        <text x="340" y="9" font-family="Arial, sans-serif" font-size="10" fill="#333">veth 对连接</text>
        
        <line x1="450" y1="5" x2="480" y2="5" stroke="#666" stroke-width="1.5" stroke-dasharray="4,2" marker-end="url(#arrow)" />
        <text x="490" y="9" font-family="Arial, sans-serif" font-size="10" fill="#333">通信路径</text>
    </g>
    
    <!-- 交互式元素的 JavaScript 支持 -->
    <script type="text/javascript"><![CDATA[
        // 这里可以添加交互式功能的 JavaScript 代码
    ]]></script>
</svg>
