<?xml version="1.0" encoding="UTF-8" standalone="no"?>
<svg width="800" height="550" xmlns="http://www.w3.org/2000/svg">
  <defs>
    <marker id="arrowhead" markerWidth="10" markerHeight="7" refX="9" refY="3.5" orient="auto">
      <polygon points="0 0, 10 3.5, 0 7" fill="#333" />
    </marker>
  </defs>
  
  <!-- 背景 -->
  <rect x="0" y="0" width="800" height="550" fill="#f8f9fa" />
  
  <!-- 标题 -->
  <text x="400" y="40" font-family="Arial, sans-serif" font-size="24" text-anchor="middle" fill="#333">NodePort Service 访问机制</text>
  
  <!-- 集群边界 -->
  <rect x="50" y="120" width="700" height="380" rx="10" ry="10" fill="none" stroke="#333" stroke-width="2" stroke-dasharray="10,5" />
  <text x="400" y="140" font-family="Arial, sans-serif" font-size="16" text-anchor="middle" fill="#333">Kubernetes 集群</text>
  
  <!-- 节点 1 -->
  <rect x="100" y="170" width="280" height="280" rx="5" ry="5" fill="#f5f5f5" stroke="#333" stroke-width="2" />
  <text x="240" y="190" font-family="Arial, sans-serif" font-size="16" text-anchor="middle" fill="#333">节点 1</text>
  <text x="240" y="210" font-family="Arial, sans-serif" font-size="14" text-anchor="middle" fill="#333">192.168.1.10</text>
  
  <!-- 节点 2 -->
  <rect x="420" y="170" width="280" height="280" rx="5" ry="5" fill="#f5f5f5" stroke="#333" stroke-width="2" />
  <text x="560" y="190" font-family="Arial, sans-serif" font-size="16" text-anchor="middle" fill="#333">节点 2</text>
  <text x="560" y="210" font-family="Arial, sans-serif" font-size="14" text-anchor="middle" fill="#333">192.168.1.11</text>
  
  <!-- NodePort 1 -->
  <rect x="120" y="230" width="100" height="40" rx="5" ry="5" fill="#fdae6b" stroke="#333" stroke-width="2" />
  <text x="170" y="255" font-family="Arial, sans-serif" font-size="14" text-anchor="middle" fill="#333">NodePort</text>
  <text x="170" y="270" font-family="Arial, sans-serif" font-size="12" text-anchor="middle" fill="#333">30080</text>
  
  <!-- NodePort 2 -->
  <rect x="580" y="230" width="100" height="40" rx="5" ry="5" fill="#fdae6b" stroke="#333" stroke-width="2" />
  <text x="630" y="255" font-family="Arial, sans-serif" font-size="14" text-anchor="middle" fill="#333">NodePort</text>
  <text x="630" y="270" font-family="Arial, sans-serif" font-size="12" text-anchor="middle" fill="#333">30080</text>
  
  <!-- iptables/IPVS 1 -->
  <rect x="120" y="290" width="100" height="40" rx="5" ry="5" fill="#74c476" stroke="#333" stroke-width="2" />
  <text x="170" y="315" font-family="Arial, sans-serif" font-size="12" text-anchor="middle" fill="#fff">iptables/IPVS</text>
  
  <!-- iptables/IPVS 2 -->
  <rect x="580" y="290" width="100" height="40" rx="5" ry="5" fill="#74c476" stroke="#333" stroke-width="2" />
  <text x="630" y="315" font-family="Arial, sans-serif" font-size="12" text-anchor="middle" fill="#fff">iptables/IPVS</text>
  
  <!-- Service -->
  <ellipse cx="400" cy="290" rx="80" ry="50" fill="#fc8d59" stroke="#333" stroke-width="2" />
  <text x="400" y="280" font-family="Arial, sans-serif" font-size="16" text-anchor="middle" fill="#fff">NodePort Service</text>
  <text x="400" y="300" font-family="Arial, sans-serif" font-size="14" text-anchor="middle" fill="#fff">ClusterIP: 10.96.1.10</text>
  <text x="400" y="320" font-family="Arial, sans-serif" font-size="12" text-anchor="middle" fill="#fff">port: 80</text>
  
  <!-- Pod 1 -->
  <rect x="130" y="380" width="80" height="50" rx="5" ry="5" fill="#9ecae1" stroke="#333" stroke-width="2" />
  <text x="170" y="405" font-family="Arial, sans-serif" font-size="14" text-anchor="middle" fill="#333">Pod 1</text>
  <text x="170" y="420" font-family="Arial, sans-serif" font-size="10" text-anchor="middle" fill="#333">10.244.1.2:8080</text>
  
  <!-- Pod 2 -->
  <rect x="250" y="380" width="80" height="50" rx="5" ry="5" fill="#9ecae1" stroke="#333" stroke-width="2" />
  <text x="290" y="405" font-family="Arial, sans-serif" font-size="14" text-anchor="middle" fill="#333">Pod 2</text>
  <text x="290" y="420" font-family="Arial, sans-serif" font-size="10" text-anchor="middle" fill="#333">10.244.1.3:8080</text>
  
  <!-- Pod 3 -->
  <rect x="490" y="380" width="80" height="50" rx="5" ry="5" fill="#9ecae1" stroke="#333" stroke-width="2" />
  <text x="530" y="405" font-family="Arial, sans-serif" font-size="14" text-anchor="middle" fill="#333">Pod 3</text>
  <text x="530" y="420" font-family="Arial, sans-serif" font-size="10" text-anchor="middle" fill="#333">10.244.2.2:8080</text>
  
  <!-- 外部客户端 1 -->
  <rect x="150" y="70" width="100" height="40" rx="5" ry="5" fill="#fdae6b" stroke="#333" stroke-width="2" />
  <text x="200" y="95" font-family="Arial, sans-serif" font-size="14" text-anchor="middle" fill="#333">外部客户端</text>
  
  <!-- 外部客户端 2 -->
  <rect x="550" y="70" width="100" height="40" rx="5" ry="5" fill="#fdae6b" stroke="#333" stroke-width="2" />
  <text x="600" y="95" font-family="Arial, sans-serif" font-size="14" text-anchor="middle" fill="#333">外部客户端</text>
  
  <!-- 连接线 -->
  <!-- 外部客户端到NodePort -->
  <line x1="200" y1="110" x2="170" y2="230" stroke="#333" stroke-width="2" marker-end="url(#arrowhead)" />
  <text x="130" y="160" font-family="Arial, sans-serif" font-size="10" fill="#333">1. 访问 192.168.1.10:30080</text>
  
  <line x1="600" y1="110" x2="630" y2="230" stroke="#333" stroke-width="2" marker-end="url(#arrowhead)" />
  <text x="660" y="160" font-family="Arial, sans-serif" font-size="10" fill="#333">1. 访问 192.168.1.11:30080</text>
  
  <!-- NodePort到iptables -->
  <line x1="170" y1="270" x2="170" y2="290" stroke="#333" stroke-width="2" marker-end="url(#arrowhead)" />
  <line x1="630" y1="270" x2="630" y2="290" stroke="#333" stroke-width="2" marker-end="url(#arrowhead)" />
  
  <!-- iptables到Service -->
  <line x1="220" y1="310" x2="320" y2="310" stroke="#333" stroke-width="2" marker-end="url(#arrowhead)" />
  <text x="260" y="300" font-family="Arial, sans-serif" font-size="10" fill="#333">2. 转发到 ClusterIP</text>
  
  <line x1="580" y1="310" x2="480" y2="310" stroke="#333" stroke-width="2" marker-end="url(#arrowhead)" />
  <text x="510" y="300" font-family="Arial, sans-serif" font-size="10" fill="#333">2. 转发到 ClusterIP</text>
  
  <!-- Service到Pod -->
  <line x1="350" y1="330" x2="170" y2="380" stroke="#333" stroke-width="2" marker-end="url(#arrowhead)" />
  <text x="240" y="365" font-family="Arial, sans-serif" font-size="10" fill="#333">3. DNAT + 负载均衡</text>
  
  <line x1="400" y1="340" x2="290" y2="380" stroke="#333" stroke-width="2" marker-end="url(#arrowhead)" />
  
  <line x1="450" y1="330" x2="530" y2="380" stroke="#333" stroke-width="2" marker-end="url(#arrowhead)" />
  <text x="520" y="365" font-family="Arial, sans-serif" font-size="10" fill="#333">3. DNAT + 负载均衡</text>
  
  <!-- externalTrafficPolicy -->
  <rect x="300" y="450" width="200" height="60" rx="5" ry="5" fill="#fdd0a2" stroke="#333" stroke-width="1.5" />
  <text x="400" y="470" font-family="Arial, sans-serif" font-size="14" text-anchor="middle" fill="#333">externalTrafficPolicy</text>
  <text x="400" y="490" font-family="Arial, sans-serif" font-size="12" text-anchor="middle" fill="#333">Cluster（默认）或 Local</text>
  
  <!-- externalTrafficPolicy 到 Service 的连接 -->
  <path d="M 400 450 C 400 430, 420 370, 400 340" stroke="#333" stroke-width="1.5" stroke-dasharray="4,2" fill="none" />
  
  <!-- 标签选择器 -->
  <path d="M 320 330 C 300 350, 250 365, 230 380" stroke="#333" stroke-width="1.5" stroke-dasharray="4,2" fill="none" />
  <text x="220" y="350" font-family="Arial, sans-serif" font-size="10" fill="#333">标签选择器: app=MyApp</text>
  
  <!-- 图例 -->
  <rect x="100" y="520" width="15" height="15" fill="#fdae6b" stroke="#333" stroke-width="1" />
  <text x="125" y="533" font-family="Arial, sans-serif" font-size="12" fill="#333">NodePort/客户端</text>
  
  <rect x="240" y="520" width="15" height="15" fill="#fc8d59" stroke="#333" stroke-width="1" />
  <text x="265" y="533" font-family="Arial, sans-serif" font-size="12" fill="#333">Service</text>
  
  <rect x="330" y="520" width="15" height="15" fill="#9ecae1" stroke="#333" stroke-width="1" />
  <text x="355" y="533" font-family="Arial, sans-serif" font-size="12" fill="#333">Pod</text>
  
  <rect x="420" y="520" width="15" height="15" fill="#74c476" stroke="#333" stroke-width="1" />
  <text x="445" y="533" font-family="Arial, sans-serif" font-size="12" fill="#333">iptables/IPVS</text>
  
  <rect x="550" y="520" width="15" height="15" fill="#fdd0a2" stroke="#333" stroke-width="1" />
  <text x="575" y="533" font-family="Arial, sans-serif" font-size="12" fill="#333">流量策略</text>
  
  <line x1="650" y1="520" x2="670" y2="520" stroke="#333" stroke-width="2" marker-end="url(#arrowhead)" />
  <text x="700" y="525" font-family="Arial, sans-serif" font-size="12" fill="#333">流量流向</text>
</svg> 