<?xml version="1.0" encoding="UTF-8" standalone="no"?>
<svg width="800" height="500" xmlns="http://www.w3.org/2000/svg">
  <defs>
    <marker id="arrowhead" markerWidth="10" markerHeight="7" refX="9" refY="3.5" orient="auto">
      <polygon points="0 0, 10 3.5, 0 7" fill="#333" />
    </marker>
  </defs>
  
  <!-- 背景 -->
  <rect x="0" y="0" width="800" height="500" fill="#f8f9fa" />
  
  <!-- 标题 -->
  <text x="400" y="40" font-family="Arial, sans-serif" font-size="24" text-anchor="middle" fill="#333">NodeLocal DNSCache 架构</text>
  
  <!-- 集群边界 -->
  <rect x="50" y="70" width="700" height="400" rx="10" ry="10" fill="none" stroke="#333" stroke-width="2" stroke-dasharray="10,5" />
  <text x="100" y="90" font-family="Arial, sans-serif" font-size="16" fill="#333">Kubernetes 集群</text>
  
  <!-- 节点 1 -->
  <rect x="80" y="110" width="320" height="320" rx="5" ry="5" fill="#f5f5f5" stroke="#333" stroke-width="2" />
  <text x="240" y="130" font-family="Arial, sans-serif" font-size="16" text-anchor="middle" fill="#333">节点 1</text>
  
  <!-- 节点 2 -->
  <rect x="420" y="110" width="320" height="320" rx="5" ry="5" fill="#f5f5f5" stroke="#333" stroke-width="2" />
  <text x="580" y="130" font-family="Arial, sans-serif" font-size="16" text-anchor="middle" fill="#333">节点 2</text>
  
  <!-- CoreDNS 服务 -->
  <rect x="350" y="70" width="100" height="50" rx="5" ry="5" fill="#fdae6b" stroke="#e6550d" stroke-width="2" />
  <text x="400" y="100" font-family="Arial, sans-serif" font-size="14" text-anchor="middle" fill="#333">CoreDNS</text>
  <text x="400" y="115" font-family="Arial, sans-serif" font-size="10" text-anchor="middle" fill="#333">Service: 10.96.0.10</text>
  
  <!-- NodeLocal DNSCache Pod 1 -->
  <rect x="100" y="160" width="150" height="60" rx="5" ry="5" fill="#a1d99b" stroke="#31a354" stroke-width="2" />
  <text x="175" y="180" font-family="Arial, sans-serif" font-size="14" text-anchor="middle" fill="#333">NodeLocal DNSCache</text>
  <text x="175" y="200" font-family="Arial, sans-serif" font-size="10" text-anchor="middle" fill="#333">IP: 169.254.20.10</text>
  <text x="175" y="215" font-family="Arial, sans-serif" font-size="10" text-anchor="middle" fill="#333">缓存DNS请求</text>
  
  <!-- NodeLocal DNSCache Pod 2 -->
  <rect x="440" y="160" width="150" height="60" rx="5" ry="5" fill="#a1d99b" stroke="#31a354" stroke-width="2" />
  <text x="515" y="180" font-family="Arial, sans-serif" font-size="14" text-anchor="middle" fill="#333">NodeLocal DNSCache</text>
  <text x="515" y="200" font-family="Arial, sans-serif" font-size="10" text-anchor="middle" fill="#333">IP: 169.254.20.10</text>
  <text x="515" y="215" font-family="Arial, sans-serif" font-size="10" text-anchor="middle" fill="#333">缓存DNS请求</text>
  
  <!-- Pod 1 -->
  <rect x="100" y="250" width="60" height="50" rx="5" ry="5" fill="#9ecae1" stroke="#3182bd" stroke-width="2" />
  <text x="130" y="275" font-family="Arial, sans-serif" font-size="12" text-anchor="middle" fill="#333">Pod 1</text>
  <text x="130" y="290" font-family="Arial, sans-serif" font-size="8" text-anchor="middle" fill="#333">10.244.1.2</text>
  
  <!-- Pod 2 -->
  <rect x="180" y="250" width="60" height="50" rx="5" ry="5" fill="#9ecae1" stroke="#3182bd" stroke-width="2" />
  <text x="210" y="275" font-family="Arial, sans-serif" font-size="12" text-anchor="middle" fill="#333">Pod 2</text>
  <text x="210" y="290" font-family="Arial, sans-serif" font-size="8" text-anchor="middle" fill="#333">10.244.1.3</text>
  
  <!-- Pod 3 -->
  <rect x="260" y="250" width="60" height="50" rx="5" ry="5" fill="#9ecae1" stroke="#3182bd" stroke-width="2" />
  <text x="290" y="275" font-family="Arial, sans-serif" font-size="12" text-anchor="middle" fill="#333">Pod 3</text>
  <text x="290" y="290" font-family="Arial, sans-serif" font-size="8" text-anchor="middle" fill="#333">10.244.1.4</text>
  
  <!-- Pod 4 -->
  <rect x="440" y="250" width="60" height="50" rx="5" ry="5" fill="#9ecae1" stroke="#3182bd" stroke-width="2" />
  <text x="470" y="275" font-family="Arial, sans-serif" font-size="12" text-anchor="middle" fill="#333">Pod 4</text>
  <text x="470" y="290" font-family="Arial, sans-serif" font-size="8" text-anchor="middle" fill="#333">10.244.2.2</text>
  
  <!-- Pod 5 -->
  <rect x="520" y="250" width="60" height="50" rx="5" ry="5" fill="#9ecae1" stroke="#3182bd" stroke-width="2" />
  <text x="550" y="275" font-family="Arial, sans-serif" font-size="12" text-anchor="middle" fill="#333">Pod 5</text>
  <text x="550" y="290" font-family="Arial, sans-serif" font-size="8" text-anchor="middle" fill="#333">10.244.2.3</text>
  
  <!-- Pod 6 -->
  <rect x="600" y="250" width="60" height="50" rx="5" ry="5" fill="#9ecae1" stroke="#3182bd" stroke-width="2" />
  <text x="630" y="275" font-family="Arial, sans-serif" font-size="12" text-anchor="middle" fill="#333">Pod 6</text>
  <text x="630" y="290" font-family="Arial, sans-serif" font-size="8" text-anchor="middle" fill="#333">10.244.2.4</text>
  
  <!-- resolv.conf -->
  <rect x="100" y="340" width="110" height="60" rx="5" ry="5" fill="#fee0d2" stroke="#de2d26" stroke-width="1" />
  <text x="155" y="365" font-family="Arial, sans-serif" font-size="12" text-anchor="middle" fill="#333">resolv.conf</text>
  <text x="155" y="385" font-family="Arial, sans-serif" font-size="8" text-anchor="middle" fill="#333">nameserver 169.254.20.10</text>
  
  <!-- resolv.conf 2 -->
  <rect x="440" y="340" width="110" height="60" rx="5" ry="5" fill="#fee0d2" stroke="#de2d26" stroke-width="1" />
  <text x="495" y="365" font-family="Arial, sans-serif" font-size="12" text-anchor="middle" fill="#333">resolv.conf</text>
  <text x="495" y="385" font-family="Arial, sans-serif" font-size="8" text-anchor="middle" fill="#333">nameserver 169.254.20.10</text>
  
  <!-- 连接线 - 节点1上的Pod到本地DNS缓存 -->
  <line x1="130" y1="250" x2="150" y2="220" stroke="#333" stroke-width="1" marker-end="url(#arrowhead)" />
  <line x1="210" y1="250" x2="180" y2="220" stroke="#333" stroke-width="1" marker-end="url(#arrowhead)" />
  <line x1="290" y1="250" x2="220" y2="220" stroke="#333" stroke-width="1" marker-end="url(#arrowhead)" />
  
  <!-- 连接线 - 节点2上的Pod到本地DNS缓存 -->
  <line x1="470" y1="250" x2="490" y2="220" stroke="#333" stroke-width="1" marker-end="url(#arrowhead)" />
  <line x1="550" y1="250" x2="520" y2="220" stroke="#333" stroke-width="1" marker-end="url(#arrowhead)" />
  <line x1="630" y1="250" x2="560" y2="220" stroke="#333" stroke-width="1" marker-end="url(#arrowhead)" />
  
  <!-- 连接线 - NodeLocal DNSCache到CoreDNS -->
  <path d="M 175,160 Q 175,120 350,95" stroke="#333" stroke-width="1" stroke-dasharray="5,3" marker-end="url(#arrowhead)" />
  <path d="M 515,160 Q 515,120 450,95" stroke="#333" stroke-width="1" stroke-dasharray="5,3" marker-end="url(#arrowhead)" />
  
  <!-- 说明文本 -->
  <text x="155" y="235" font-family="Arial, sans-serif" font-size="10" fill="#333" transform="rotate(-25, 155, 235)">DNS 查询</text>
  <text x="535" y="235" font-family="Arial, sans-serif" font-size="10" fill="#333" transform="rotate(25, 535, 235)">DNS 查询</text>
  
  <text x="260" y="120" font-family="Arial, sans-serif" font-size="10" fill="#333" transform="rotate(-20, 260, 120)">缓存未命中时查询</text>
  <text x="510" y="120" font-family="Arial, sans-serif" font-size="10" fill="#333" transform="rotate(20, 510, 120)">缓存未命中时查询</text>
  
  <!-- 特性说明 -->
  <text x="400" y="440" font-family="Arial, sans-serif" font-size="14" font-weight="bold" text-anchor="middle" fill="#333">NodeLocal DNSCache 优势</text>
  
  <circle cx="160" y="465" r="5" fill="#31a354" />
  <text x="170" y="470" font-family="Arial, sans-serif" font-size="12" fill="#333" text-anchor="start">减少 DNS 查询延迟</text>
  
  <circle cx="320" y="465" r="5" fill="#31a354" />
  <text x="330" y="470" font-family="Arial, sans-serif" font-size="12" fill="#333" text-anchor="start">避免 conntrack 表争用</text>
  
  <circle cx="500" y="465" r="5" fill="#31a354" />
  <text x="510" y="470" font-family="Arial, sans-serif" font-size="12" fill="#333" text-anchor="start">提高 DNS 可靠性</text>
  
  <circle cx="640" y="465" r="5" fill="#31a354" />
  <text x="650" y="470" font-family="Arial, sans-serif" font-size="12" fill="#333" text-anchor="start">缓解 CoreDNS 负载</text>
</svg> 