<?xml version="1.0" encoding="UTF-8" standalone="no"?>
<svg width="800" height="600" xmlns="http://www.w3.org/2000/svg">
  <defs>
    <marker id="arrowhead" markerWidth="10" markerHeight="7" refX="9" refY="3.5" orient="auto">
      <polygon points="0 0, 10 3.5, 0 7" fill="#333" />
    </marker>
  </defs>
  
  <!-- 背景 -->
  <rect x="0" y="0" width="800" height="600" fill="#f8f9fa" />
  
  <!-- 标题 -->
  <text x="400" y="40" font-family="Arial, sans-serif" font-size="24" text-anchor="middle" fill="#333">NodePort Service 数据包流向</text>
  
  <!-- 集群边界 -->
  <rect x="50" y="80" width="700" height="460" rx="10" ry="10" fill="none" stroke="#333" stroke-width="2" stroke-dasharray="10,5" />
  <text x="400" y="100" font-family="Arial, sans-serif" font-size="16" text-anchor="middle" fill="#333">Kubernetes 集群</text>
  
  <!-- 外部客户端 -->
  <rect x="150" y="20" width="120" height="40" rx="5" ry="5" fill="#fdae6b" stroke="#333" stroke-width="2" />
  <text x="210" y="45" font-family="Arial, sans-serif" font-size="14" text-anchor="middle" fill="#333">外部客户端</text>
  
  <!-- 节点 1 - Cluster 模式 -->
  <rect x="100" y="120" width="240" height="400" rx="5" ry="5" fill="#f5f5f5" stroke="#333" stroke-width="2" />
  <text x="220" y="140" font-family="Arial, sans-serif" font-size="16" text-anchor="middle" fill="#333">节点 1 (externalTrafficPolicy: Cluster)</text>
  <text x="220" y="160" font-family="Arial, sans-serif" font-size="14" text-anchor="middle" fill="#333">192.168.1.10</text>
  
  <!-- 节点 2 - Local 模式 -->
  <rect x="460" y="120" width="240" height="400" rx="5" ry="5" fill="#f5f5f5" stroke="#333" stroke-width="2" />
  <text x="580" y="140" font-family="Arial, sans-serif" font-size="16" text-anchor="middle" fill="#333">节点 2 (externalTrafficPolicy: Local)</text>
  <text x="580" y="160" font-family="Arial, sans-serif" font-size="14" text-anchor="middle" fill="#333">192.168.1.11</text>
  
  <!-- NodePort 1 -->
  <rect x="130" y="180" width="100" height="40" rx="5" ry="5" fill="#fdae6b" stroke="#333" stroke-width="2" />
  <text x="180" y="205" font-family="Arial, sans-serif" font-size="14" text-anchor="middle" fill="#333">NodePort</text>
  <text x="180" y="220" font-family="Arial, sans-serif" font-size="12" text-anchor="middle" fill="#333">30080</text>
  
  <!-- NodePort 2 -->
  <rect x="570" y="180" width="100" height="40" rx="5" ry="5" fill="#fdae6b" stroke="#333" stroke-width="2" />
  <text x="620" y="205" font-family="Arial, sans-serif" font-size="14" text-anchor="middle" fill="#333">NodePort</text>
  <text x="620" y="220" font-family="Arial, sans-serif" font-size="12" text-anchor="middle" fill="#333">30080</text>
  
  <!-- iptables/IPVS 1 -->
  <rect x="130" y="240" width="180" height="40" rx="5" ry="5" fill="#74c476" stroke="#333" stroke-width="2" />
  <text x="220" y="265" font-family="Arial, sans-serif" font-size="14" text-anchor="middle" fill="#fff">iptables/IPVS 规则</text>
  
  <!-- iptables/IPVS 2 -->
  <rect x="490" y="240" width="180" height="40" rx="5" ry="5" fill="#74c476" stroke="#333" stroke-width="2" />
  <text x="580" y="265" font-family="Arial, sans-serif" font-size="14" text-anchor="middle" fill="#fff">iptables/IPVS 规则</text>
  
  <!-- 节点 1 内部网络组件 -->
  <rect x="130" y="300" width="180" height="60" rx="5" ry="5" fill="#e5f5e0" stroke="#333" stroke-width="1.5" />
  <text x="220" y="320" font-family="Arial, sans-serif" font-size="14" text-anchor="middle" fill="#333">SNAT</text>
  <text x="220" y="340" font-family="Arial, sans-serif" font-size="12" text-anchor="middle" fill="#333">客户端 IP → 节点 IP</text>
  
  <!-- 节点 2 内部网络组件 -->
  <rect x="490" y="300" width="180" height="60" rx="5" ry="5" fill="#e5f5e0" stroke="#333" stroke-width="1.5" />
  <text x="580" y="320" font-family="Arial, sans-serif" font-size="14" text-anchor="middle" fill="#333">保留客户端 IP</text>
  <text x="580" y="340" font-family="Arial, sans-serif" font-size="12" text-anchor="middle" fill="#333">不执行 SNAT</text>
  
  <!-- Service -->
  <ellipse cx="400" cy="320" rx="80" ry="40" fill="#fc8d59" stroke="#333" stroke-width="2" />
  <text x="400" y="320" font-family="Arial, sans-serif" font-size="16" text-anchor="middle" fill="#fff">Service</text>
  <text x="400" y="340" font-family="Arial, sans-serif" font-size="12" text-anchor="middle" fill="#fff">ClusterIP: 10.96.1.10</text>
  
  <!-- Pod 1 - 节点 1 -->
  <rect x="130" y="400" width="80" height="50" rx="5" ry="5" fill="#9ecae1" stroke="#333" stroke-width="2" />
  <text x="170" y="425" font-family="Arial, sans-serif" font-size="14" text-anchor="middle" fill="#333">Pod 1</text>
  <text x="170" y="440" font-family="Arial, sans-serif" font-size="10" text-anchor="middle" fill="#333">10.244.1.2</text>
  
  <!-- Pod 2 - 节点 1 -->
  <rect x="230" y="400" width="80" height="50" rx="5" ry="5" fill="#9ecae1" stroke="#333" stroke-width="2" />
  <text x="270" y="425" font-family="Arial, sans-serif" font-size="14" text-anchor="middle" fill="#333">Pod 2</text>
  <text x="270" y="440" font-family="Arial, sans-serif" font-size="10" text-anchor="middle" fill="#333">10.244.1.3</text>
  
  <!-- Pod 3 - 节点 2 -->
  <rect x="490" y="400" width="80" height="50" rx="5" ry="5" fill="#9ecae1" stroke="#333" stroke-width="2" />
  <text x="530" y="425" font-family="Arial, sans-serif" font-size="14" text-anchor="middle" fill="#333">Pod 3</text>
  <text x="530" y="440" font-family="Arial, sans-serif" font-size="10" text-anchor="middle" fill="#333">10.244.2.2</text>
  
  <!-- Pod 4 - 节点 2 -->
  <rect x="590" y="400" width="80" height="50" rx="5" ry="5" fill="#9ecae1" stroke="#333" stroke-width="2" />
  <text x="630" y="425" font-family="Arial, sans-serif" font-size="14" text-anchor="middle" fill="#333">Pod 4</text>
  <text x="630" y="440" font-family="Arial, sans-serif" font-size="10" text-anchor="middle" fill="#333">10.244.2.3</text>
  
  <!-- kube-proxy 标签 -->
  <text x="200" y="480" font-family="Arial, sans-serif" font-size="12" text-anchor="middle" fill="#333">kube-proxy</text>
  <text x="580" y="480" font-family="Arial, sans-serif" font-size="12" text-anchor="middle" fill="#333">kube-proxy</text>
  
  <!-- 连接线 - Cluster 模式 -->
  <!-- 外部客户端到NodePort -->
  <line x1="210" y1="60" x2="180" y2="180" stroke="#e41a1c" stroke-width="2" marker-end="url(#arrowhead)" />
  <text x="150" y="100" font-family="Arial, sans-serif" font-size="10" fill="#e41a1c">1. 访问 192.168.1.10:30080</text>
  
  <!-- NodePort到iptables -->
  <line x1="180" y1="220" x2="180" y2="240" stroke="#e41a1c" stroke-width="2" marker-end="url(#arrowhead)" />
  
  <!-- iptables到SNAT -->
  <line x1="180" y1="280" x2="180" y2="300" stroke="#e41a1c" stroke-width="2" marker-end="url(#arrowhead)" />
  <text x="130" y="290" font-family="Arial, sans-serif" font-size="10" fill="#e41a1c">2. iptables 规则匹配</text>
  
  <!-- SNAT到Service -->
  <line x1="310" y1="320" x2="320" y2="320" stroke="#377eb8" stroke-width="2" marker-end="url(#arrowhead)" />
  <text x="320" y="310" font-family="Arial, sans-serif" font-size="10" fill="#377eb8">3. 转发到 ClusterIP</text>
  
  <!-- Service到Pod 2 -->
  <line x1="360" y1="350" x2="270" y2="400" stroke="#4daf4a" stroke-width="2" marker-end="url(#arrowhead)" />
  <text x="290" y="380" font-family="Arial, sans-serif" font-size="10" fill="#4daf4a">4. 负载均衡到 Pod</text>
  
  <!-- Service到Pod 3 -->
  <line x1="440" y1="350" x2="530" y2="400" stroke="#4daf4a" stroke-width="2" marker-end="url(#arrowhead)" />
  
  <!-- 连接线 - Local 模式 -->
  <!-- 外部客户端到NodePort -->
  <path d="M 210 60 C 300 60, 550 100, 620 180" stroke="#984ea3" stroke-width="2" marker-end="url(#arrowhead)" fill="none" />
  <text x="450" y="80" font-family="Arial, sans-serif" font-size="10" fill="#984ea3">1. 访问 192.168.1.11:30080</text>
  
  <!-- NodePort到iptables -->
  <line x1="620" y1="220" x2="620" y2="240" stroke="#984ea3" stroke-width="2" marker-end="url(#arrowhead)" />
  
  <!-- iptables到保留IP -->
  <line x1="620" y1="280" x2="620" y2="300" stroke="#984ea3" stroke-width="2" marker-end="url(#arrowhead)" />
  <text x="650" y="290" font-family="Arial, sans-serif" font-size="10" fill="#984ea3">2. iptables 规则匹配</text>
  
  <!-- 保留IP到Service -->
  <line x1="490" y1="320" x2="480" y2="320" stroke="#ff7f00" stroke-width="2" marker-end="url(#arrowhead)" />
  <text x="460" y="310" font-family="Arial, sans-serif" font-size="10" fill="#ff7f00">3. 转发到 ClusterIP</text>
  
  <!-- Service到本地Pod -->
  <path d="M 440 340 C 490 360, 570 380, 590 400" stroke="#a65628" stroke-width="2" marker-end="url(#arrowhead)" fill="none" />
  <text x="550" y="380" font-family="Arial, sans-serif" font-size="10" fill="#a65628">4. 只路由到本地 Pod</text>
  
  <!-- 响应返回路径 -->
  <path d="M 270 400 C 270 380, 300 370, 300 300 C 300 200, 280 100, 220 60" stroke="#f781bf" stroke-width="1.5" stroke-dasharray="4,2" marker-end="url(#arrowhead)" fill="none" />
  <text x="240" y="200" font-family="Arial, sans-serif" font-size="10" fill="#f781bf">5. 响应返回</text>
  
  <path d="M 630 400 C 630 380, 650 350, 650 250 C 650 150, 550 80, 240 50" stroke="#f781bf" stroke-width="1.5" stroke-dasharray="4,2" marker-end="url(#arrowhead)" fill="none" />
  
  <!-- 图例 -->
  <rect x="100" y="550" width="15" height="15" fill="#e41a1c" stroke="#333" stroke-width="1" />
  <text x="125" y="563" font-family="Arial, sans-serif" font-size="12" fill="#333">Cluster 模式请求</text>
  
  <rect x="230" y="550" width="15" height="15" fill="#377eb8" stroke="#333" stroke-width="1" />
  <text x="255" y="563" font-family="Arial, sans-serif" font-size="12" fill="#333">SNAT 后的请求</text>
  
  <rect x="360" y="550" width="15" height="15" fill="#984ea3" stroke="#333" stroke-width="1" />
  <text x="385" y="563" font-family="Arial, sans-serif" font-size="12" fill="#333">Local 模式请求</text>
  
  <rect x="490" y="550" width="15" height="15" fill="#ff7f00" stroke="#333" stroke-width="1" />
  <text x="515" y="563" font-family="Arial, sans-serif" font-size="12" fill="#333">保留源 IP 的请求</text>
  
  <rect x="620" y="550" width="15" height="15" fill="#f781bf" stroke="#333" stroke-width="1" />
  <text x="645" y="563" font-family="Arial, sans-serif" font-size="12" fill="#333">响应返回路径</text>
</svg> 