<?xml version="1.0" encoding="UTF-8" standalone="no"?>
<svg width="800" height="600" xmlns="http://www.w3.org/2000/svg">
    <!-- 背景 -->
    <rect width="800" height="600" fill="#f8f9fa" />
    
    <!-- 标题 -->
    <text x="400" y="30" font-family="Arial, sans-serif" font-size="24" text-anchor="middle" fill="#333">Kubernetes Overlay网络原理</text>
    
    <!-- 物理网络 -->
    <rect x="50" y="500" width="700" height="50" rx="5" ry="5" fill="#adb5bd" stroke="#495057" stroke-width="2" />
    <text x="400" y="530" font-family="Arial, sans-serif" font-size="16" text-anchor="middle" fill="white">物理网络 (Underlay)</text>
    
    <!-- 节点1 -->
    <rect x="100" y="150" width="280" height="300" rx="10" ry="10" fill="#e9ecef" stroke="#adb5bd" stroke-width="2" />
    <text x="240" y="175" font-family="Arial, sans-serif" font-size="18" text-anchor="middle" fill="#495057">节点1 (192.168.1.10)</text>
    
    <!-- 节点2 -->
    <rect x="420" y="150" width="280" height="300" rx="10" ry="10" fill="#e9ecef" stroke="#adb5bd" stroke-width="2" />
    <text x="560" y="175" font-family="Arial, sans-serif" font-size="18" text-anchor="middle" fill="#495057">节点2 (192.168.1.11)</text>
    
    <!-- Pod 1 -->
    <rect x="120" y="200" width="120" height="80" rx="10" ry="10" fill="#d0bfff" stroke="#9775fa" stroke-width="2" />
    <text x="180" y="225" font-family="Arial, sans-serif" font-size="16" text-anchor="middle" fill="#495057">Pod 1</text>
    <text x="180" y="250" font-family="Arial, sans-serif" font-size="14" text-anchor="middle" fill="#495057">10.244.1.2</text>
    
    <!-- Pod 2 -->
    <rect x="240" y="200" width="120" height="80" rx="10" ry="10" fill="#d0bfff" stroke="#9775fa" stroke-width="2" />
    <text x="300" y="225" font-family="Arial, sans-serif" font-size="16" text-anchor="middle" fill="#495057">Pod 2</text>
    <text x="300" y="250" font-family="Arial, sans-serif" font-size="14" text-anchor="middle" fill="#495057">10.244.1.3</text>
    
    <!-- Pod 3 -->
    <rect x="440" y="200" width="120" height="80" rx="10" ry="10" fill="#d0bfff" stroke="#9775fa" stroke-width="2" />
    <text x="500" y="225" font-family="Arial, sans-serif" font-size="16" text-anchor="middle" fill="#495057">Pod 3</text>
    <text x="500" y="250" font-family="Arial, sans-serif" font-size="14" text-anchor="middle" fill="#495057">10.244.2.2</text>
    
    <!-- Pod 4 -->
    <rect x="560" y="200" width="120" height="80" rx="10" ry="10" fill="#d0bfff" stroke="#9775fa" stroke-width="2" />
    <text x="620" y="225" font-family="Arial, sans-serif" font-size="16" text-anchor="middle" fill="#495057">Pod 4</text>
    <text x="620" y="250" font-family="Arial, sans-serif" font-size="14" text-anchor="middle" fill="#495057">10.244.2.3</text>
    
    <!-- 网桥1 -->
    <rect x="120" y="320" width="240" height="40" rx="5" ry="5" fill="#4dabf7" stroke="#339af0" stroke-width="2" />
    <text x="240" y="345" font-family="Arial, sans-serif" font-size="16" text-anchor="middle" fill="white">网桥 (cni0)</text>
    
    <!-- 网桥2 -->
    <rect x="440" y="320" width="240" height="40" rx="5" ry="5" fill="#4dabf7" stroke="#339af0" stroke-width="2" />
    <text x="560" y="345" font-family="Arial, sans-serif" font-size="16" text-anchor="middle" fill="white">网桥 (cni0)</text>
    
    <!-- Overlay设备1 -->
    <rect x="170" y="400" width="140" height="40" rx="5" ry="5" fill="#ffa94d" stroke="#fd7e14" stroke-width="2" />
    <text x="240" y="425" font-family="Arial, sans-serif" font-size="16" text-anchor="middle" fill="white">Overlay设备 (flannel.1)</text>
    
    <!-- Overlay设备2 -->
    <rect x="490" y="400" width="140" height="40" rx="5" ry="5" fill="#ffa94d" stroke="#fd7e14" stroke-width="2" />
    <text x="560" y="425" font-family="Arial, sans-serif" font-size="16" text-anchor="middle" fill="white">Overlay设备 (flannel.1)</text>
    
    <!-- 连接线 -->
    <!-- Pod到网桥的连接 -->
    <line x1="180" y1="280" x2="180" y2="320" stroke="#74c0fc" stroke-width="2" />
    <line x1="300" y1="280" x2="300" y2="320" stroke="#74c0fc" stroke-width="2" />
    <line x1="500" y1="280" x2="500" y2="320" stroke="#74c0fc" stroke-width="2" />
    <line x1="620" y1="280" x2="620" y2="320" stroke="#74c0fc" stroke-width="2" />
    
    <!-- 网桥到Overlay设备的连接 -->
    <line x1="240" y1="360" x2="240" y2="400" stroke="#74c0fc" stroke-width="2" />
    <line x1="560" y1="360" x2="560" y2="400" stroke="#74c0fc" stroke-width="2" />
    
    <!-- Overlay设备到物理网络的连接 -->
    <line x1="240" y1="440" x2="240" y2="500" stroke="#74c0fc" stroke-width="2" />
    <line x1="560" y1="440" x2="560" y2="500" stroke="#74c0fc" stroke-width="2" />
    
    <!-- Overlay通信 -->
    <path d="M 180 240 Q 400 100 620 240" fill="none" stroke="#fa5252" stroke-width="2" stroke-dasharray="5,5" />
    <text x="400" y="120" font-family="Arial, sans-serif" font-size="14" text-anchor="middle" fill="#fa5252">Pod间逻辑通信 (Overlay)</text>
    
    <!-- 物理通信 -->
    <path d="M 240 470 Q 400 580 560 470" fill="none" stroke="#40c057" stroke-width="2" stroke-dasharray="5,5" />
    <text x="400" y="580" font-family="Arial, sans-serif" font-size="14" text-anchor="middle" fill="#40c057">实际物理通信 (Underlay)</text>
    
    <!-- 图例 -->
    <rect x="650" y="50" width="20" height="10" fill="#d0bfff" stroke="#9775fa" stroke-width="1" />
    <text x="675" y="60" font-family="Arial, sans-serif" font-size="12" fill="#495057">Pod</text>
    
    <rect x="650" y="70" width="20" height="10" fill="#4dabf7" stroke="#339af0" stroke-width="1" />
    <text x="675" y="80" font-family="Arial, sans-serif" font-size="12" fill="#495057">网桥</text>
    
    <rect x="650" y="90" width="20" height="10" fill="#ffa94d" stroke="#fd7e14" stroke-width="1" />
    <text x="675" y="100" font-family="Arial, sans-serif" font-size="12" fill="#495057">Overlay设备</text>
</svg>
