<?xml version="1.0" encoding="UTF-8" standalone="no"?>
<svg width="800" height="600" xmlns="http://www.w3.org/2000/svg">
    <!-- 背景 -->
    <rect width="800" height="600" fill="#f8f9fa" />
    
    <!-- 标题 -->
    <text x="400" y="30" font-family="Arial, sans-serif" font-size="24" text-anchor="middle" fill="#333">Pod网络数据包流向详解</text>
    
    <!-- 主机节点边框 -->
    <rect x="50" y="60" width="700" height="500" rx="10" ry="10" fill="#e9ecef" stroke="#adb5bd" stroke-width="2" />
    <text x="400" y="80" font-family="Arial, sans-serif" font-size="18" text-anchor="middle" fill="#495057">Kubernetes 节点</text>
    
    <!-- Pod A -->
    <rect x="100" y="120" width="200" height="140" rx="10" ry="10" fill="#d0bfff" stroke="#9775fa" stroke-width="2" />
    <text x="200" y="140" font-family="Arial, sans-serif" font-size="16" text-anchor="middle" fill="#495057">Pod A (10.244.1.2)</text>
    
    <!-- Pod A 网络栈 -->
    <rect x="120" y="160" width="160" height="80" rx="5" ry="5" fill="#f3f0ff" stroke="#d0bfff" stroke-width="1" />
    <text x="200" y="180" font-family="Arial, sans-serif" font-size="14" text-anchor="middle" fill="#495057">网络栈</text>
    <text x="200" y="200" font-family="Arial, sans-serif" font-size="12" text-anchor="middle" fill="#495057">eth0: 10.244.1.2</text>
    <text x="200" y="220" font-family="Arial, sans-serif" font-size="12" text-anchor="middle" fill="#495057">MAC: AA:BB:CC:DD:EE:01</text>
    
    <!-- Pod B -->
    <rect x="500" y="120" width="200" height="140" rx="10" ry="10" fill="#d0bfff" stroke="#9775fa" stroke-width="2" />
    <text x="600" y="140" font-family="Arial, sans-serif" font-size="16" text-anchor="middle" fill="#495057">Pod B (10.244.1.3)</text>
    
    <!-- Pod B 网络栈 -->
    <rect x="520" y="160" width="160" height="80" rx="5" ry="5" fill="#f3f0ff" stroke="#d0bfff" stroke-width="1" />
    <text x="600" y="180" font-family="Arial, sans-serif" font-size="14" text-anchor="middle" fill="#495057">网络栈</text>
    <text x="600" y="200" font-family="Arial, sans-serif" font-size="12" text-anchor="middle" fill="#495057">eth0: 10.244.1.3</text>
    <text x="600" y="220" font-family="Arial, sans-serif" font-size="12" text-anchor="middle" fill="#495057">MAC: AA:BB:CC:DD:EE:02</text>
    
    <!-- 网桥 -->
    <rect x="150" y="350" width="500" height="60" rx="5" ry="5" fill="#4dabf7" stroke="#339af0" stroke-width="2" />
    <text x="400" y="385" font-family="Arial, sans-serif" font-size="16" text-anchor="middle" fill="white">网桥 (cni0)</text>
    
    <!-- veth pairs -->
    <!-- Pod A veth pair -->
    <line x1="200" y1="260" x2="200" y2="350" stroke="#74c0fc" stroke-width="3" />
    <circle cx="200" cy="260" r="5" fill="#228be6" />
    <circle cx="200" cy="350" r="5" fill="#228be6" />
    <text x="170" y="310" font-family="Arial, sans-serif" font-size="12" fill="#495057">vethA</text>
    
    <!-- Pod B veth pair -->
    <line x1="600" y1="260" x2="600" y2="350" stroke="#74c0fc" stroke-width="3" />
    <circle cx="600" cy="260" r="5" fill="#228be6" />
    <circle cx="600" cy="350" r="5" fill="#228be6" />
    <text x="570" y="310" font-family="Arial, sans-serif" font-size="12" fill="#495057">vethB</text>
    
    <!-- MAC地址表 -->
    <rect x="300" y="420" width="200" height="80" rx="5" ry="5" fill="#e7f5ff" stroke="#74c0fc" stroke-width="1" />
    <text x="400" y="440" font-family="Arial, sans-serif" font-size="14" text-anchor="middle" fill="#495057">网桥MAC地址表</text>
    <text x="400" y="460" font-family="Arial, sans-serif" font-size="12" text-anchor="middle" fill="#495057">AA:BB:CC:DD:EE:01 -> vethA</text>
    <text x="400" y="480" font-family="Arial, sans-serif" font-size="12" text-anchor="middle" fill="#495057">AA:BB:CC:DD:EE:02 -> vethB</text>
    
    <!-- 数据包流向 -->
    <!-- 步骤1: Pod A生成数据包 -->
    <circle cx="200" cy="200" r="10" fill="#fa5252" />
    <text x="220" cy="200" font-family="Arial, sans-serif" font-size="12" fill="#495057">1</text>
    
    <!-- 步骤2: 数据包通过Pod A的eth0 -->
    <circle cx="200" cy="240" r="10" fill="#fa5252" />
    <text x="220" cy="240" font-family="Arial, sans-serif" font-size="12" fill="#495057">2</text>
    <path d="M 200 210 L 200 230" fill="none" stroke="#fa5252" stroke-width="2" marker-end="url(#arrowhead)" />
    
    <!-- 步骤3: 数据包通过veth到达主机 -->
    <circle cx="200" cy="300" r="10" fill="#fa5252" />
    <text x="220" cy="300" font-family="Arial, sans-serif" font-size="12" fill="#495057">3</text>
    <path d="M 200 250 L 200 290" fill="none" stroke="#fa5252" stroke-width="2" marker-end="url(#arrowhead)" />
    
    <!-- 步骤4: 数据包到达网桥 -->
    <circle cx="300" cy="370" r="10" fill="#fa5252" />
    <text x="320" cy="370" font-family="Arial, sans-serif" font-size="12" fill="#495057">4</text>
    <path d="M 200 310 Q 250 370 290 370" fill="none" stroke="#fa5252" stroke-width="2" marker-end="url(#arrowhead)" />
    
    <!-- 步骤5: 网桥查找MAC地址表 -->
    <circle cx="400" cy="450" r="10" fill="#fa5252" />
    <text x="420" cy="450" font-family="Arial, sans-serif" font-size="12" fill="#495057">5</text>
    <path d="M 310 370 Q 350 400 390 440" fill="none" stroke="#fa5252" stroke-width="2" marker-end="url(#arrowhead)" />
    
    <!-- 步骤6: 网桥转发到目标veth -->
    <circle cx="500" cy="370" r="10" fill="#fa5252" />
    <text x="520" cy="370" font-family="Arial, sans-serif" font-size="12" fill="#495057">6</text>
    <path d="M 410 440 Q 450 400 490 370" fill="none" stroke="#fa5252" stroke-width="2" marker-end="url(#arrowhead)" />
    
    <!-- 步骤7: 数据包通过veth到达Pod B -->
    <circle cx="600" cy="300" r="10" fill="#fa5252" />
    <text x="620" cy="300" font-family="Arial, sans-serif" font-size="12" fill="#495057">7</text>
    <path d="M 510 370 Q 550 370 590 310" fill="none" stroke="#fa5252" stroke-width="2" marker-end="url(#arrowhead)" />
    
    <!-- 步骤8: Pod B接收数据包 -->
    <circle cx="600" cy="240" r="10" fill="#fa5252" />
    <text x="620" cy="240" font-family="Arial, sans-serif" font-size="12" fill="#495057">8</text>
    <path d="M 600 290 L 600 250" fill="none" stroke="#fa5252" stroke-width="2" marker-end="url(#arrowhead)" />
    
    <!-- 步骤9: 数据包到达Pod B应用 -->
    <circle cx="600" cy="200" r="10" fill="#fa5252" />
    <text x="620" cy="200" font-family="Arial, sans-serif" font-size="12" fill="#495057">9</text>
    <path d="M 600 230 L 600 210" fill="none" stroke="#fa5252" stroke-width="2" marker-end="url(#arrowhead)" />
    
    <!-- 箭头定义 -->
    <defs>
        <marker id="arrowhead" markerWidth="10" markerHeight="7" refX="9" refY="3.5" orient="auto">
            <polygon points="0 0, 10 3.5, 0 7" fill="#fa5252" />
        </marker>
    </defs>
    
    <!-- 详细说明 -->
    <text x="100" y="520" font-family="Arial, sans-serif" font-size="14" fill="#495057">1-2: Pod A生成数据包，目标是Pod B的IP地址</text>
    <text x="100" y="545" font-family="Arial, sans-serif" font-size="14" fill="#495057">3-4: 数据包通过veth pair到达网桥</text>
    <text x="100" y="570" font-family="Arial, sans-serif" font-size="14" fill="#495057">5-7: 网桥查找MAC地址表，将数据包转发到Pod B的veth接口</text>
    <text x="100" y="595" font-family="Arial, sans-serif" font-size="14" fill="#495057">8-9: 数据包到达Pod B并被应用程序接收</text>
</svg>
