<?xml version="1.0" encoding="UTF-8" standalone="no"?>
<svg width="800" height="500" xmlns="http://www.w3.org/2000/svg">
  <defs>
    <marker id="arrowhead" markerWidth="10" markerHeight="7" refX="9" refY="3.5" orient="auto">
      <polygon points="0 0, 10 3.5, 0 7" fill="#333" />
    </marker>
  </defs>
  
  <!-- 背景 -->
  <rect x="0" y="0" width="800" height="500" fill="#f8f9fa" />
  
  <!-- 标题 -->
  <text x="400" y="40" font-family="Arial, sans-serif" font-size="24" text-anchor="middle" fill="#333">Pod 内部网络结构</text>
  
  <!-- Pod 边界 -->
  <rect x="100" y="80" width="600" height="320" rx="10" ry="10" fill="#e3f2fd" stroke="#1976d2" stroke-width="3" />
  <text x="400" y="105" font-family="Arial, sans-serif" font-size="18" text-anchor="middle" font-weight="bold" fill="#1976d2">Pod (10.244.1.2)</text>
  
  <!-- Pause 容器 -->
  <rect x="130" y="130" width="160" height="220" rx="5" ry="5" fill="#bbdefb" stroke="#1976d2" stroke-width="2" />
  <text x="210" y="150" font-family="Arial, sans-serif" font-size="16" text-anchor="middle" fill="#333">Pause 容器</text>
  <text x="210" y="170" font-family="Arial, sans-serif" font-size="12" text-anchor="middle" fill="#333">(基础设施容器)</text>
  
  <!-- 网络命名空间区域 -->
  <rect x="140" y="185" width="140" height="155" rx="5" ry="5" fill="#e1f5fe" stroke="#03a9f4" stroke-width="1" stroke-dasharray="5,3" />
  <text x="210" y="200" font-family="Arial, sans-serif" font-size="12" text-anchor="middle" fill="#0288d1">网络命名空间</text>
  
  <!-- 网络接口 -->
  <rect x="155" y="215" width="110" height="40" rx="5" ry="5" fill="#b3e5fc" stroke="#0288d1" stroke-width="1" />
  <text x="210" y="240" font-family="Arial, sans-serif" font-size="14" text-anchor="middle" fill="#333">lo</text>
  
  <rect x="155" y="265" width="110" height="60" rx="5" ry="5" fill="#e1bee7" stroke="#8e24aa" stroke-width="1" />
  <text x="210" y="290" font-family="Arial, sans-serif" font-size="14" text-anchor="middle" fill="#333">eth0</text>
  <text x="210" y="310" font-family="Arial, sans-serif" font-size="10" text-anchor="middle" fill="#333">IP: 10.244.1.2</text>
  
  <!-- 容器 1 -->
  <rect x="310" y="130" width="180" height="100" rx="5" ry="5" fill="#c8e6c9" stroke="#388e3c" stroke-width="2" />
  <text x="400" y="150" font-family="Arial, sans-serif" font-size="16" text-anchor="middle" fill="#333">容器 1</text>
  <text x="400" y="170" font-family="Arial, sans-serif" font-size="12" text-anchor="middle" fill="#333">(应用容器)</text>
  
  <rect x="330" y="180" width="140" height="40" rx="5" ry="5" fill="#dcedc8" stroke="#7cb342" stroke-width="1" />
  <text x="400" y="205" font-family="Arial, sans-serif" font-size="14" text-anchor="middle" fill="#333">应用进程</text>
  
  <!-- 容器 2 -->
  <rect x="310" y="250" width="180" height="100" rx="5" ry="5" fill="#ffecb3" stroke="#ffa000" stroke-width="2" />
  <text x="400" y="270" font-family="Arial, sans-serif" font-size="16" text-anchor="middle" fill="#333">容器 2</text>
  <text x="400" y="290" font-family="Arial, sans-serif" font-size="12" text-anchor="middle" fill="#333">(应用容器)</text>
  
  <rect x="330" y="300" width="140" height="40" rx="5" ry="5" fill="#fff8e1" stroke="#ffb300" stroke-width="1" />
  <text x="400" y="325" font-family="Arial, sans-serif" font-size="14" text-anchor="middle" fill="#333">应用进程</text>
  
  <!-- 主机网络连接 -->
  <rect x="155" y="360" width="110" height="30" rx="15" ry="15" fill="#e1bee7" stroke="#8e24aa" stroke-width="1" />
  <text x="210" y="380" font-family="Arial, sans-serif" font-size="12" text-anchor="middle" fill="#333">veth0</text>
  
  <rect x="510" y="170" width="180" height="150" rx="5" ry="5" fill="#d1c4e9" stroke="#673ab7" stroke-width="2" />
  <text x="600" y="190" font-family="Arial, sans-serif" font-size="16" text-anchor="middle" fill="#333">挂载的卷</text>
  <text x="600" y="210" font-family="Arial, sans-serif" font-size="12" text-anchor="middle" fill="#333">(共享存储)</text>
  
  <rect x="530" y="230" width="140" height="70" rx="5" ry="5" fill="#ede7f6" stroke="#673ab7" stroke-width="1" />
  <text x="600" y="265" font-family="Arial, sans-serif" font-size="14" text-anchor="middle" fill="#333">共享目录</text>
  
  <!-- 节点网络 -->
  <rect x="50" y="420" width="700" height="50" rx="5" ry="5" fill="#ffcdd2" stroke="#d32f2f" stroke-width="2" />
  <text x="400" y="450" font-family="Arial, sans-serif" font-size="16" text-anchor="middle" fill="#333">节点网络</text>
  
  <!-- 连接线 -->
  <line x1="210" y1="325" x2="210" y2="360" stroke="#8e24aa" stroke-width="3" />
  <line x1="210" y1="390" x2="210" y2="420" stroke="#8e24aa" stroke-width="3" />
  
  <!-- 容器与网络接口的连接 -->
  <path d="M 310,200 Q 265,215 210,215" stroke="#333" stroke-width="1.5" fill="none" marker-end="url(#arrowhead)" stroke-dasharray="5,3" />
  <path d="M 310,320 Q 265,295 210,295" stroke="#333" stroke-width="1.5" fill="none" marker-end="url(#arrowhead)" stroke-dasharray="5,3" />
  
  <!-- 容器与共享卷的连接 -->
  <path d="M 490,200 Q 500,200 530,235" stroke="#673ab7" stroke-width="1.5" fill="none" marker-end="url(#arrowhead)" stroke-dasharray="5,3" />
  <path d="M 490,320 Q 500,320 530,265" stroke="#673ab7" stroke-width="1.5" fill="none" marker-end="url(#arrowhead)" stroke-dasharray="5,3" />
  
  <!-- 文本标签 -->
  <text x="265" y="195" font-family="Arial, sans-serif" font-size="10" fill="#333">共享网络栈</text>
  <text x="510" y="255" font-family="Arial, sans-serif" font-size="10" fill="#333">共享存储</text>
  <text x="210" y="410" font-family="Arial, sans-serif" font-size="10" fill="#333">连接到主机</text>
  
  <!-- 图例 -->
  <rect x="650" y="360" width="15" height="15" fill="#bbdefb" stroke="#1976d2" stroke-width="1" />
  <text x="670" y="373" font-family="Arial, sans-serif" font-size="10" fill="#333">Pause 容器</text>
  
  <rect x="650" y="380" width="15" height="15" fill="#c8e6c9" stroke="#388e3c" stroke-width="1" />
  <text x="670" y="393" font-family="Arial, sans-serif" font-size="10" fill="#333">应用容器</text>
  
  <rect x="650" y="400" width="15" height="15" fill="#e1bee7" stroke="#8e24aa" stroke-width="1" />
  <text x="670" y="413" font-family="Arial, sans-serif" font-size="10" fill="#333">网络接口</text>
  
  <line x1="650" y1="425" x2="665" y2="425" stroke="#333" stroke-width="1.5" stroke-dasharray="5,3" marker-end="url(#arrowhead)" />
  <text x="670" y="428" font-family="Arial, sans-serif" font-size="10" fill="#333">共享访问</text>
</svg> 