<?xml version="1.0" encoding="UTF-8" standalone="no"?>
<svg width="800" height="500" xmlns="http://www.w3.org/2000/svg">
  <defs>
    <marker id="arrowhead" markerWidth="10" markerHeight="7" refX="9" refY="3.5" orient="auto">
      <polygon points="0 0, 10 3.5, 0 7" fill="#333" />
    </marker>
  </defs>
  
  <!-- 背景 -->
  <rect x="0" y="0" width="800" height="500" fill="#f8f9fa" />
  
  <!-- 标题 -->
  <text x="400" y="40" font-family="Arial, sans-serif" font-size="24" text-anchor="middle" fill="#333">Kubernetes Pod IP 分配机制</text>
  
  <!-- 集群总体CIDR -->
  <rect x="50" y="70" width="700" height="380" rx="10" ry="10" fill="none" stroke="#333" stroke-width="2" stroke-dasharray="10,5" />
  <text x="150" y="90" font-family="Arial, sans-serif" font-size="16" fill="#333">集群 Pod CIDR: 10.244.0.0/16</text>
  
  <!-- 节点 1 -->
  <rect x="80" y="110" width="320" height="310" rx="5" ry="5" fill="#e3f2fd" stroke="#1976d2" stroke-width="2" />
  <text x="240" y="130" font-family="Arial, sans-serif" font-size="16" text-anchor="middle" fill="#1976d2">节点 1</text>
  <text x="240" y="150" font-family="Arial, sans-serif" font-size="14" text-anchor="middle" fill="#1976d2">Node CIDR: 10.244.1.0/24</text>
  
  <!-- 节点 2 -->
  <rect x="420" y="110" width="320" height="310" rx="5" ry="5" fill="#e8f5e9" stroke="#388e3c" stroke-width="2" />
  <text x="580" y="130" font-family="Arial, sans-serif" font-size="16" text-anchor="middle" fill="#388e3c">节点 2</text>
  <text x="580" y="150" font-family="Arial, sans-serif" font-size="14" text-anchor="middle" fill="#388e3c">Node CIDR: 10.244.2.0/24</text>
  
  <!-- CNI 插件 - 节点 1 -->
  <rect x="100" y="170" width="280" height="60" rx="5" ry="5" fill="#bbdefb" stroke="#1976d2" stroke-width="1" />
  <text x="240" y="200" font-family="Arial, sans-serif" font-size="16" text-anchor="middle" fill="#333">CNI 插件 (如 Calico, Flannel)</text>
  <text x="240" y="220" font-family="Arial, sans-serif" font-size="12" text-anchor="middle" fill="#333">负责分配和管理 Pod IP 地址</text>
  
  <!-- CNI 插件 - 节点 2 -->
  <rect x="440" y="170" width="280" height="60" rx="5" ry="5" fill="#c8e6c9" stroke="#388e3c" stroke-width="1" />
  <text x="580" y="200" font-family="Arial, sans-serif" font-size="16" text-anchor="middle" fill="#333">CNI 插件 (如 Calico, Flannel)</text>
  <text x="580" y="220" font-family="Arial, sans-serif" font-size="12" text-anchor="middle" fill="#333">负责分配和管理 Pod IP 地址</text>
  
  <!-- Pod 1-1 -->
  <rect x="110" y="250" width="120" height="50" rx="5" ry="5" fill="#e1bee7" stroke="#8e24aa" stroke-width="1" />
  <text x="170" y="275" font-family="Arial, sans-serif" font-size="14" text-anchor="middle" fill="#333">Pod 1-1</text>
  <text x="170" y="290" font-family="Arial, sans-serif" font-size="12" text-anchor="middle" fill="#333">IP: 10.244.1.2</text>
  
  <!-- Pod 1-2 -->
  <rect x="110" y="310" width="120" height="50" rx="5" ry="5" fill="#e1bee7" stroke="#8e24aa" stroke-width="1" />
  <text x="170" y="335" font-family="Arial, sans-serif" font-size="14" text-anchor="middle" fill="#333">Pod 1-2</text>
  <text x="170" y="350" font-family="Arial, sans-serif" font-size="12" text-anchor="middle" fill="#333">IP: 10.244.1.3</text>
  
  <!-- Pod 1-3 -->
  <rect x="110" y="370" width="120" height="40" rx="5" ry="5" fill="#f3e5f5" stroke="#9c27b0" stroke-width="1" stroke-dasharray="5,3" />
  <text x="170" y="395" font-family="Arial, sans-serif" font-size="12" text-anchor="middle" fill="#9c27b0">Pod 1-3 (将分配)</text>
  
  <!-- IPAM 状态 - 节点 1 -->
  <rect x="250" y="250" width="130" height="150" rx="5" ry="5" fill="#e1f5fe" stroke="#03a9f4" stroke-width="1" />
  <text x="315" y="270" font-family="Arial, sans-serif" font-size="14" text-anchor="middle" fill="#333">IPAM 状态</text>
  <text x="315" y="290" font-family="Arial, sans-serif" font-size="12" text-anchor="middle" fill="#333">已分配:</text>
  <text x="315" y="310" font-family="Arial, sans-serif" font-size="12" text-anchor="middle" fill="#333">10.244.1.1 (主机)</text>
  <text x="315" y="330" font-family="Arial, sans-serif" font-size="12" text-anchor="middle" fill="#333">10.244.1.2 (Pod 1-1)</text>
  <text x="315" y="350" font-family="Arial, sans-serif" font-size="12" text-anchor="middle" fill="#333">10.244.1.3 (Pod 1-2)</text>
  <text x="315" y="370" font-family="Arial, sans-serif" font-size="12" text-anchor="middle" fill="#333">下一个可用:</text>
  <text x="315" y="390" font-family="Arial, sans-serif" font-size="12" text-anchor="middle" fill="#333">10.244.1.4</text>
  
  <!-- Pod 2-1 -->
  <rect x="450" y="250" width="120" height="50" rx="5" ry="5" fill="#ffecb3" stroke="#ffa000" stroke-width="1" />
  <text x="510" y="275" font-family="Arial, sans-serif" font-size="14" text-anchor="middle" fill="#333">Pod 2-1</text>
  <text x="510" y="290" font-family="Arial, sans-serif" font-size="12" text-anchor="middle" fill="#333">IP: 10.244.2.2</text>
  
  <!-- Pod 2-2 -->
  <rect x="450" y="310" width="120" height="50" rx="5" ry="5" fill="#ffecb3" stroke="#ffa000" stroke-width="1" />
  <text x="510" y="335" font-family="Arial, sans-serif" font-size="14" text-anchor="middle" fill="#333">Pod 2-2</text>
  <text x="510" y="350" font-family="Arial, sans-serif" font-size="12" text-anchor="middle" fill="#333">IP: 10.244.2.3</text>
  
  <!-- Pod 2-3 -->
  <rect x="450" y="370" width="120" height="40" rx="5" ry="5" fill="#fff8e1" stroke="#ffb300" stroke-width="1" stroke-dasharray="5,3" />
  <text x="510" y="395" font-family="Arial, sans-serif" font-size="12" text-anchor="middle" fill="#ffb300">Pod 2-3 (将分配)</text>
  
  <!-- IPAM 状态 - 节点 2 -->
  <rect x="590" y="250" width="130" height="150" rx="5" ry="5" fill="#e8f5fe" stroke="#26c6da" stroke-width="1" />
  <text x="655" y="270" font-family="Arial, sans-serif" font-size="14" text-anchor="middle" fill="#333">IPAM 状态</text>
  <text x="655" y="290" font-family="Arial, sans-serif" font-size="12" text-anchor="middle" fill="#333">已分配:</text>
  <text x="655" y="310" font-family="Arial, sans-serif" font-size="12" text-anchor="middle" fill="#333">10.244.2.1 (主机)</text>
  <text x="655" y="330" font-family="Arial, sans-serif" font-size="12" text-anchor="middle" fill="#333">10.244.2.2 (Pod 2-1)</text>
  <text x="655" y="350" font-family="Arial, sans-serif" font-size="12" text-anchor="middle" fill="#333">10.244.2.3 (Pod 2-2)</text>
  <text x="655" y="370" font-family="Arial, sans-serif" font-size="12" text-anchor="middle" fill="#333">下一个可用:</text>
  <text x="655" y="390" font-family="Arial, sans-serif" font-size="12" text-anchor="middle" fill="#333">10.244.2.4</text>
  
  <!-- 连接线 -->
  <line x1="240" y1="230" x2="240" y2="250" stroke="#1976d2" stroke-width="1.5" marker-end="url(#arrowhead)" />
  <line x1="580" y1="230" x2="580" y2="250" stroke="#388e3c" stroke-width="1.5" marker-end="url(#arrowhead)" />
  
  <!-- 控制平面 -->
  <rect x="300" y="430" width="200" height="40" rx="5" ry="5" fill="#ffcdd2" stroke="#d32f2f" stroke-width="2" />
  <text x="400" y="455" font-family="Arial, sans-serif" font-size="16" text-anchor="middle" fill="#333">Kubernetes 控制平面</text>
  
  <!-- 控制平面连接 -->
  <path d="M 400,430 Q 240,410 240,370" stroke="#d32f2f" stroke-width="1.5" fill="none" stroke-dasharray="5,3" marker-end="url(#arrowhead)" />
  <path d="M 400,430 Q 580,410 580,370" stroke="#d32f2f" stroke-width="1.5" fill="none" stroke-dasharray="5,3" marker-end="url(#arrowhead)" />
  
  <!-- 文本标签 -->
  <text x="300" y="400" font-family="Arial, sans-serif" font-size="10" fill="#d32f2f">分配子网</text>
  <text x="480" y="400" font-family="Arial, sans-serif" font-size="10" fill="#d32f2f">分配子网</text>
  
  <!-- 图例 -->
  <rect x="50" y="440" width="15" height="15" fill="#e3f2fd" stroke="#1976d2" stroke-width="1" />
  <text x="75" y="453" font-family="Arial, sans-serif" font-size="12" fill="#333">节点 1</text>
  
  <rect x="140" y="440" width="15" height="15" fill="#e8f5e9" stroke="#388e3c" stroke-width="1" />
  <text x="165" y="453" font-family="Arial, sans-serif" font-size="12" fill="#333">节点 2</text>
  
  <rect x="520" y="440" width="15" height="15" fill="#e1bee7" stroke="#8e24aa" stroke-width="1" />
  <text x="545" y="453" font-family="Arial, sans-serif" font-size="12" fill="#333">Pod (节点 1)</text>
  
  <rect x="620" y="440" width="15" height="15" fill="#ffecb3" stroke="#ffa000" stroke-width="1" />
  <text x="645" y="453" font-family="Arial, sans-serif" font-size="12" fill="#333">Pod (节点 2)</text>
  
  <rect x="720" y="440" width="15" height="15" fill="#ffcdd2" stroke="#d32f2f" stroke-width="1" />
  <text x="745" y="453" font-family="Arial, sans-serif" font-size="12" fill="#333">控制平面</text>
</svg> 