<?xml version="1.0" encoding="UTF-8" standalone="no"?>
<svg width="800" height="500" xmlns="http://www.w3.org/2000/svg">
  <defs>
    <marker id="arrowhead" markerWidth="10" markerHeight="7" refX="9" refY="3.5" orient="auto">
      <polygon points="0 0, 10 3.5, 0 7" fill="#333" />
    </marker>
  </defs>
  
  <!-- 背景 -->
  <rect x="0" y="0" width="800" height="500" fill="#f8f9fa" />
  
  <!-- 标题 -->
  <text x="400" y="40" font-family="Arial, sans-serif" font-size="24" text-anchor="middle" fill="#333">Pod 间通信原理</text>
  
  <!-- 节点边界 -->
  <rect x="50" y="70" width="700" height="380" rx="10" ry="10" fill="none" stroke="#333" stroke-width="2" stroke-dasharray="10,5" />
  <text x="100" y="90" font-family="Arial, sans-serif" font-size="16" fill="#333">Kubernetes 节点</text>
  
  <!-- Pod A -->
  <rect x="100" y="120" width="250" height="150" rx="5" ry="5" fill="#e3f2fd" stroke="#1976d2" stroke-width="2" />
  <text x="225" y="140" font-family="Arial, sans-serif" font-size="16" text-anchor="middle" fill="#333">Pod A (10.244.1.2)</text>
  
  <!-- Container A -->
  <rect x="120" y="160" width="100" height="80" rx="5" ry="5" fill="#bbdefb" stroke="#1976d2" stroke-width="1" />
  <text x="170" y="185" font-family="Arial, sans-serif" font-size="14" text-anchor="middle" fill="#333">Container</text>
  <text x="170" y="205" font-family="Arial, sans-serif" font-size="12" text-anchor="middle" fill="#333">应用进程</text>
  
  <!-- Pod A eth0 -->
  <rect x="230" y="160" width="100" height="80" rx="5" ry="5" fill="#e1bee7" stroke="#8e24aa" stroke-width="1" />
  <text x="280" y="185" font-family="Arial, sans-serif" font-size="14" text-anchor="middle" fill="#333">eth0</text>
  <text x="280" y="205" font-family="Arial, sans-serif" font-size="12" text-anchor="middle" fill="#333">Pod网络接口</text>
  
  <!-- Pod B -->
  <rect x="450" y="120" width="250" height="150" rx="5" ry="5" fill="#e8f5e9" stroke="#388e3c" stroke-width="2" />
  <text x="575" y="140" font-family="Arial, sans-serif" font-size="16" text-anchor="middle" fill="#333">Pod B (10.244.1.3)</text>
  
  <!-- Container B -->
  <rect x="470" y="160" width="100" height="80" rx="5" ry="5" fill="#c8e6c9" stroke="#388e3c" stroke-width="1" />
  <text x="520" y="185" font-family="Arial, sans-serif" font-size="14" text-anchor="middle" fill="#333">Container</text>
  <text x="520" y="205" font-family="Arial, sans-serif" font-size="12" text-anchor="middle" fill="#333">应用进程</text>
  
  <!-- Pod B eth0 -->
  <rect x="580" y="160" width="100" height="80" rx="5" ry="5" fill="#e1bee7" stroke="#8e24aa" stroke-width="1" />
  <text x="630" y="185" font-family="Arial, sans-serif" font-size="14" text-anchor="middle" fill="#333">eth0</text>
  <text x="630" y="205" font-family="Arial, sans-serif" font-size="12" text-anchor="middle" fill="#333">Pod网络接口</text>
  
  <!-- veth pair A -->
  <line x1="280" y1="240" x2="280" y2="300" stroke="#8e24aa" stroke-width="3" />
  <rect x="250" y="300" width="60" height="30" rx="15" ry="15" fill="#e1bee7" stroke="#8e24aa" stroke-width="1" />
  <text x="280" y="320" font-family="Arial, sans-serif" font-size="12" text-anchor="middle" fill="#333">veth0</text>
  
  <!-- veth pair B -->
  <line x1="630" y1="240" x2="630" y2="300" stroke="#8e24aa" stroke-width="3" />
  <rect x="600" y="300" width="60" height="30" rx="15" ry="15" fill="#e1bee7" stroke="#8e24aa" stroke-width="1" />
  <text x="630" y="320" font-family="Arial, sans-serif" font-size="12" text-anchor="middle" fill="#333">veth1</text>
  
  <!-- 网桥 -->
  <rect x="200" y="350" width="400" height="60" rx="5" ry="5" fill="#ffecb3" stroke="#ffa000" stroke-width="2" />
  <text x="400" y="380" font-family="Arial, sans-serif" font-size="16" text-anchor="middle" fill="#333">Linux Bridge (cni0/cbr0)</text>
  
  <!-- 连接线 - veth到网桥 -->
  <line x1="280" y1="330" x2="280" y2="350" stroke="#8e24aa" stroke-width="2" />
  <line x1="630" y1="330" x2="630" y2="350" stroke="#8e24aa" stroke-width="2" />
  
  <!-- 数据包流向 -->
  <path d="M 170,190 Q 225,170 280,190" stroke="#1976d2" stroke-width="1.5" fill="none" marker-end="url(#arrowhead)" stroke-dasharray="5,3" />
  <path d="M 280,220 Q 280,260 280,300" stroke="#1976d2" stroke-width="1.5" fill="none" marker-end="url(#arrowhead)" stroke-dasharray="5,3" />
  <path d="M 280,380 Q 450,400 630,380" stroke="#1976d2" stroke-width="1.5" fill="none" marker-end="url(#arrowhead)" stroke-dasharray="5,3" />
  <path d="M 630,300 Q 630,260 630,220" stroke="#1976d2" stroke-width="1.5" fill="none" marker-end="url(#arrowhead)" stroke-dasharray="5,3" />
  <path d="M 630,190 Q 575,170 520,190" stroke="#1976d2" stroke-width="1.5" fill="none" marker-end="url(#arrowhead)" stroke-dasharray="5,3" />
  
  <!-- 文本标签 -->
  <text x="225" y="165" font-family="Arial, sans-serif" font-size="10" fill="#1976d2" transform="rotate(-10, 225, 165)">1. 应用发送数据</text>
  <text x="290" y="270" font-family="Arial, sans-serif" font-size="10" fill="#1976d2">2. 通过veth</text>
  <text x="450" y="365" font-family="Arial, sans-serif" font-size="10" fill="#1976d2">3. 通过网桥</text>
  <text x="640" y="270" font-family="Arial, sans-serif" font-size="10" fill="#1976d2">4. 通过veth</text>
  <text x="575" y="165" font-family="Arial, sans-serif" font-size="10" fill="#1976d2" transform="rotate(10, 575, 165)">5. 数据到达应用</text>
  
  <!-- 图例 -->
  <rect x="100" y="440" width="15" height="15" fill="#e3f2fd" stroke="#1976d2" stroke-width="1" />
  <text x="125" y="453" font-family="Arial, sans-serif" font-size="12" fill="#333">Pod A</text>
  
  <rect x="200" y="440" width="15" height="15" fill="#e8f5e9" stroke="#388e3c" stroke-width="1" />
  <text x="225" y="453" font-family="Arial, sans-serif" font-size="12" fill="#333">Pod B</text>
  
  <rect x="300" y="440" width="15" height="15" fill="#e1bee7" stroke="#8e24aa" stroke-width="1" />
  <text x="325" y="453" font-family="Arial, sans-serif" font-size="12" fill="#333">网络接口</text>
  
  <rect x="400" y="440" width="15" height="15" fill="#ffecb3" stroke="#ffa000" stroke-width="1" />
  <text x="425" y="453" font-family="Arial, sans-serif" font-size="12" fill="#333">网桥</text>
  
  <line x1="500" y1="445" x2="530" y2="445" stroke="#1976d2" stroke-width="1.5" stroke-dasharray="5,3" marker-end="url(#arrowhead)" />
  <text x="550" y="453" font-family="Arial, sans-serif" font-size="12" fill="#333">数据流向</text>
  
  <text x="400" y="480" font-family="Arial, sans-serif" font-size="14" text-anchor="middle" fill="#333">同一节点上Pod间通信示意图</text>
</svg> 