<?xml version="1.0" encoding="UTF-8" standalone="no"?>
<svg width="800" height="600" xmlns="http://www.w3.org/2000/svg">
  <defs>
    <marker id="arrowhead" markerWidth="10" markerHeight="7" refX="9" refY="3.5" orient="auto">
      <polygon points="0 0, 10 3.5, 0 7" fill="#333" />
    </marker>
  </defs>
  
  <!-- 背景 -->
  <rect x="0" y="0" width="800" height="600" fill="#f8f9fa" />
  
  <!-- 标题 -->
  <text x="400" y="40" font-family="Arial, sans-serif" font-size="24" text-anchor="middle" fill="#333">Kubernetes Service 网络</text>
  
  <!-- 集群边界 -->
  <rect x="40" y="70" width="720" height="480" rx="10" ry="10" fill="none" stroke="#333" stroke-width="2" stroke-dasharray="10,5" />
  
  <!-- 节点 1 -->
  <rect x="70" y="130" width="320" height="390" rx="5" ry="5" fill="#f5f5f5" stroke="#333" stroke-width="2" />
  <text x="230" y="150" font-family="Arial, sans-serif" font-size="16" text-anchor="middle" fill="#333">节点 1</text>
  
  <!-- 节点 2 -->
  <rect x="410" y="130" width="320" height="390" rx="5" ry="5" fill="#f5f5f5" stroke="#333" stroke-width="2" />
  <text x="570" y="150" font-family="Arial, sans-serif" font-size="16" text-anchor="middle" fill="#333">节点 2</text>
  
  <!-- Service -->
  <ellipse cx="400" cy="250" rx="100" ry="60" fill="#fc8d59" stroke="#333" stroke-width="2" />
  <text x="400" y="240" font-family="Arial, sans-serif" font-size="16" text-anchor="middle" fill="#fff">ClusterIP Service</text>
  <text x="400" y="260" font-family="Arial, sans-serif" font-size="14" text-anchor="middle" fill="#fff">10.96.1.10</text>
  <text x="400" y="280" font-family="Arial, sans-serif" font-size="12" text-anchor="middle" fill="#fff">端口: 80</text>
  
  <!-- Pod 1 -->
  <rect x="110" y="380" width="80" height="60" rx="5" ry="5" fill="#9ecae1" stroke="#333" stroke-width="2" />
  <text x="150" y="410" font-family="Arial, sans-serif" font-size="14" text-anchor="middle" fill="#333">Pod 1</text>
  <text x="150" y="430" font-family="Arial, sans-serif" font-size="12" text-anchor="middle" fill="#333">10.244.1.2</text>
  
  <!-- Pod 2 -->
  <rect x="230" y="380" width="80" height="60" rx="5" ry="5" fill="#9ecae1" stroke="#333" stroke-width="2" />
  <text x="270" y="410" font-family="Arial, sans-serif" font-size="14" text-anchor="middle" fill="#333">Pod 2</text>
  <text x="270" y="430" font-family="Arial, sans-serif" font-size="12" text-anchor="middle" fill="#333">10.244.1.3</text>
  
  <!-- Pod 3 -->
  <rect x="490" y="380" width="80" height="60" rx="5" ry="5" fill="#9ecae1" stroke="#333" stroke-width="2" />
  <text x="530" y="410" font-family="Arial, sans-serif" font-size="14" text-anchor="middle" fill="#333">Pod 3</text>
  <text x="530" y="430" font-family="Arial, sans-serif" font-size="12" text-anchor="middle" fill="#333">10.244.2.2</text>
  
  <!-- Pod 4 -->
  <rect x="610" y="380" width="80" height="60" rx="5" ry="5" fill="#9ecae1" stroke="#333" stroke-width="2" />
  <text x="650" y="410" font-family="Arial, sans-serif" font-size="14" text-anchor="middle" fill="#333">Pod 4</text>
  <text x="650" y="430" font-family="Arial, sans-serif" font-size="12" text-anchor="middle" fill="#333">10.244.2.3</text>
  
  <!-- NodePort -->
  <rect x="110" y="180" width="100" height="40" rx="5" ry="5" fill="#fdae6b" stroke="#333" stroke-width="2" />
  <text x="160" y="205" font-family="Arial, sans-serif" font-size="14" text-anchor="middle" fill="#333">NodePort</text>
  <text x="160" y="220" font-family="Arial, sans-serif" font-size="12" text-anchor="middle" fill="#333">30080</text>
  
  <rect x="590" y="180" width="100" height="40" rx="5" ry="5" fill="#fdae6b" stroke="#333" stroke-width="2" />
  <text x="640" y="205" font-family="Arial, sans-serif" font-size="14" text-anchor="middle" fill="#333">NodePort</text>
  <text x="640" y="220" font-family="Arial, sans-serif" font-size="12" text-anchor="middle" fill="#333">30080</text>
  
  <!-- LoadBalancer -->
  <rect x="300" y="80" width="200" height="40" rx="5" ry="5" fill="#bcbddc" stroke="#333" stroke-width="2" />
  <text x="400" y="105" font-family="Arial, sans-serif" font-size="14" text-anchor="middle" fill="#333">LoadBalancer (192.168.1.100)</text>
  
  <!-- 外部客户端 -->
  <rect x="350" y="30" width="100" height="30" rx="5" ry="5" fill="#fdae6b" stroke="#333" stroke-width="2" />
  <text x="400" y="50" font-family="Arial, sans-serif" font-size="14" text-anchor="middle" fill="#333">外部客户端</text>
  
  <!-- 内部客户端 -->
  <rect x="300" y="470" width="200" height="30" rx="5" ry="5" fill="#fdae6b" stroke="#333" stroke-width="2" />
  <text x="400" y="490" font-family="Arial, sans-serif" font-size="14" text-anchor="middle" fill="#333">集群内部客户端</text>
  
  <!-- 连接线 -->
  <!-- 外部客户端到LoadBalancer -->
  <line x1="400" y1="60" x2="400" y2="80" stroke="#333" stroke-width="2" marker-end="url(#arrowhead)" />
  
  <!-- LoadBalancer到NodePort -->
  <line x1="350" y1="120" x2="160" y2="180" stroke="#333" stroke-width="2" marker-end="url(#arrowhead)" />
  <line x1="450" y1="120" x2="640" y2="180" stroke="#333" stroke-width="2" marker-end="url(#arrowhead)" />
  
  <!-- NodePort到Service -->
  <line x1="210" y1="200" x2="300" y2="250" stroke="#333" stroke-width="2" marker-end="url(#arrowhead)" />
  <line x1="590" y1="200" x2="500" y2="250" stroke="#333" stroke-width="2" marker-end="url(#arrowhead)" />
  
  <!-- Service到Pod -->
  <line x1="340" y1="300" x2="150" y2="380" stroke="#333" stroke-width="2" marker-end="url(#arrowhead)" />
  <line x1="370" y1="300" x2="270" y2="380" stroke="#333" stroke-width="2" marker-end="url(#arrowhead)" />
  <line x1="430" y1="300" x2="530" y2="380" stroke="#333" stroke-width="2" marker-end="url(#arrowhead)" />
  <line x1="460" y1="300" x2="650" y2="380" stroke="#333" stroke-width="2" marker-end="url(#arrowhead)" />
  
  <!-- 内部客户端到Service -->
  <line x1="400" y1="470" x2="400" y2="310" stroke="#333" stroke-width="2" marker-end="url(#arrowhead)" />
  
  <!-- 图例 -->
  <rect x="50" y="560" width="15" height="15" fill="#fc8d59" stroke="#333" stroke-width="1" />
  <text x="75" y="573" font-family="Arial, sans-serif" font-size="12" fill="#333">Service (ClusterIP)</text>
  
  <rect x="200" y="560" width="15" height="15" fill="#fdae6b" stroke="#333" stroke-width="1" />
  <text x="225" y="573" font-family="Arial, sans-serif" font-size="12" fill="#333">NodePort / 客户端</text>
  
  <rect x="350" y="560" width="15" height="15" fill="#bcbddc" stroke="#333" stroke-width="1" />
  <text x="375" y="573" font-family="Arial, sans-serif" font-size="12" fill="#333">LoadBalancer</text>
  
  <rect x="500" y="560" width="15" height="15" fill="#9ecae1" stroke="#333" stroke-width="1" />
  <text x="525" y="573" font-family="Arial, sans-serif" font-size="12" fill="#333">Pod</text>
  
  <line x1="600" y1="560" x2="615" y2="560" stroke="#333" stroke-width="2" marker-end="url(#arrowhead)" />
  <text x="645" y="565" font-family="Arial, sans-serif" font-size="12" fill="#333">流量方向</text>
  
  <text x="400" y="540" font-family="Arial, sans-serif" font-size="14" text-anchor="middle" fill="#333">Service 网络流量路径</text>
</svg>
