<?xml version="1.0" encoding="UTF-8" standalone="no"?>
<svg width="800" height="600" xmlns="http://www.w3.org/2000/svg">
  <defs>
    <marker id="arrowhead" markerWidth="10" markerHeight="7" refX="9" refY="3.5" orient="auto">
      <polygon points="0 0, 10 3.5, 0 7" fill="#333" />
    </marker>
  </defs>
  
  <!-- 背景 -->
  <rect x="0" y="0" width="800" height="600" fill="#f8f9fa" />
  
  <!-- 标题 -->
  <text x="400" y="40" font-family="Arial, sans-serif" font-size="24" text-anchor="middle" fill="#333">Kubernetes Service 实现机制</text>
  
  <!-- 节点区域 -->
  <rect x="30" y="80" width="740" height="490" rx="10" ry="10" fill="#f5f5f5" stroke="#333" stroke-width="2" />
  <text x="400" y="100" font-family="Arial, sans-serif" font-size="16" text-anchor="middle" fill="#333">Kubernetes 节点</text>
  
  <!-- kube-proxy 组件 -->
  <rect x="50" y="120" width="300" height="280" rx="5" ry="5" fill="#f0f7fb" stroke="#333" stroke-width="2" />
  <text x="200" y="140" font-family="Arial, sans-serif" font-size="16" text-anchor="middle" fill="#333">kube-proxy</text>
  
  <!-- API Server 监听 -->
  <rect x="70" y="160" width="260" height="60" rx="5" ry="5" fill="#d4ebf2" stroke="#333" stroke-width="2" />
  <text x="200" y="185" font-family="Arial, sans-serif" font-size="14" text-anchor="middle" fill="#333">监听 API Server 变化</text>
  <text x="200" y="205" font-family="Arial, sans-serif" font-size="12" text-anchor="middle" fill="#333">Service 和 Endpoints 对象</text>
  
  <!-- 网络规则管理 -->
  <rect x="70" y="240" width="120" height="80" rx="5" ry="5" fill="#d4ebf2" stroke="#333" stroke-width="2" />
  <text x="130" y="265" font-family="Arial, sans-serif" font-size="14" text-anchor="middle" fill="#333">iptables 模式</text>
  <text x="130" y="285" font-family="Arial, sans-serif" font-size="12" text-anchor="middle" fill="#333">NAT 和转发规则</text>
  <text x="130" y="305" font-family="Arial, sans-serif" font-size="12" text-anchor="middle" fill="#333">PREROUTING 和</text>
  <text x="130" y="320" font-family="Arial, sans-serif" font-size="12" text-anchor="middle" fill="#333">DNAT 规则</text>
  
  <rect x="210" y="240" width="120" height="80" rx="5" ry="5" fill="#d4ebf2" stroke="#333" stroke-width="2" />
  <text x="270" y="265" font-family="Arial, sans-serif" font-size="14" text-anchor="middle" fill="#333">IPVS 模式</text>
  <text x="270" y="285" font-family="Arial, sans-serif" font-size="12" text-anchor="middle" fill="#333">虚拟服务器</text>
  <text x="270" y="305" font-family="Arial, sans-serif" font-size="12" text-anchor="middle" fill="#333">负载均衡算法</text>
  <text x="270" y="320" font-family="Arial, sans-serif" font-size="12" text-anchor="middle" fill="#333">哈希表高效查找</text>
  
  <!-- 对外暴露 -->
  <rect x="70" y="340" width="260" height="50" rx="5" ry="5" fill="#d4ebf2" stroke="#333" stroke-width="2" />
  <text x="200" y="365" font-family="Arial, sans-serif" font-size="14" text-anchor="middle" fill="#333">维护 NodePort 和 外部负载均衡</text>
  <text x="200" y="383" font-family="Arial, sans-serif" font-size="12" text-anchor="middle" fill="#333">ClusterIP、NodePort、LoadBalancer</text>
  
  <!-- 内核网络实现 -->
  <rect x="450" y="120" width="300" height="280" rx="5" ry="5" fill="#f0f7fb" stroke="#333" stroke-width="2" />
  <text x="600" y="140" font-family="Arial, sans-serif" font-size="16" text-anchor="middle" fill="#333">内核网络组件</text>
  
  <!-- iptables 部分 -->
  <rect x="470" y="160" width="120" height="190" rx="5" ry="5" fill="#d4ebf2" stroke="#333" stroke-width="2" />
  <text x="530" y="180" font-family="Arial, sans-serif" font-size="14" text-anchor="middle" fill="#333">iptables</text>
  
  <rect x="480" y="195" width="100" height="30" rx="2" ry="2" fill="#fff" stroke="#333" stroke-width="1" />
  <text x="530" y="215" font-family="Arial, sans-serif" font-size="12" text-anchor="middle" fill="#333">PREROUTING</text>
  
  <rect x="480" y="235" width="100" height="30" rx="2" ry="2" fill="#fff" stroke="#333" stroke-width="1" />
  <text x="530" y="255" font-family="Arial, sans-serif" font-size="12" text-anchor="middle" fill="#333">KUBE-SERVICES</text>
  
  <rect x="480" y="275" width="100" height="30" rx="2" ry="2" fill="#fff" stroke="#333" stroke-width="1" />
  <text x="530" y="295" font-family="Arial, sans-serif" font-size="12" text-anchor="middle" fill="#333">KUBE-SVC-XXX</text>
  
  <rect x="480" y="315" width="100" height="30" rx="2" ry="2" fill="#fff" stroke="#333" stroke-width="1" />
  <text x="530" y="335" font-family="Arial, sans-serif" font-size="12" text-anchor="middle" fill="#333">KUBE-SEP-XXX</text>
  
  <!-- IPVS 部分 -->
  <rect x="610" y="160" width="120" height="190" rx="5" ry="5" fill="#d4ebf2" stroke="#333" stroke-width="2" />
  <text x="670" y="180" font-family="Arial, sans-serif" font-size="14" text-anchor="middle" fill="#333">IPVS</text>
  
  <rect x="620" y="195" width="100" height="40" rx="2" ry="2" fill="#fff" stroke="#333" stroke-width="1" />
  <text x="670" y="215" font-family="Arial, sans-serif" font-size="12" text-anchor="middle" fill="#333">虚拟服务器</text>
  <text x="670" y="230" font-family="Arial, sans-serif" font-size="10" text-anchor="middle" fill="#333">ClusterIP:Port</text>
  
  <rect x="620" y="245" width="100" height="100" rx="2" ry="2" fill="#fff" stroke="#333" stroke-width="1" />
  <text x="670" y="265" font-family="Arial, sans-serif" font-size="12" text-anchor="middle" fill="#333">真实服务器</text>
  <text x="670" y="285" font-family="Arial, sans-serif" font-size="10" text-anchor="middle" fill="#333">Pod1 IP:Port</text>
  <text x="670" y="305" font-family="Arial, sans-serif" font-size="10" text-anchor="middle" fill="#333">Pod2 IP:Port</text>
  <text x="670" y="325" font-family="Arial, sans-serif" font-size="10" text-anchor="middle" fill="#333">Pod3 IP:Port</text>
  
  <!-- conntrack -->
  <rect x="470" y="360" width="260" height="40" rx="5" ry="5" fill="#d4ebf2" stroke="#333" stroke-width="2" />
  <text x="600" y="385" font-family="Arial, sans-serif" font-size="14" text-anchor="middle" fill="#333">conntrack - 连接跟踪模块</text>
  
  <!-- 服务和Pod -->
  <ellipse cx="200" y="450" rx="90" ry="50" fill="#fc8d59" stroke="#333" stroke-width="2" />
  <text x="200" y="440" font-family="Arial, sans-serif" font-size="16" text-anchor="middle" fill="#fff">Service</text>
  <text x="200" y="460" font-family="Arial, sans-serif" font-size="14" text-anchor="middle" fill="#fff">10.96.1.10:80</text>
  <text x="200" y="480" font-family="Arial, sans-serif" font-size="12" text-anchor="middle" fill="#fff">虚拟IP和端口</text>
  
  <rect x="480" y="420" width="70" height="50" rx="5" ry="5" fill="#9ecae1" stroke="#333" stroke-width="2" />
  <text x="515" y="445" font-family="Arial, sans-serif" font-size="14" text-anchor="middle" fill="#333">Pod 1</text>
  <text x="515" y="460" font-family="Arial, sans-serif" font-size="12" text-anchor="middle" fill="#333">10.244.1.2</text>
  
  <rect x="565" y="420" width="70" height="50" rx="5" ry="5" fill="#9ecae1" stroke="#333" stroke-width="2" />
  <text x="600" y="445" font-family="Arial, sans-serif" font-size="14" text-anchor="middle" fill="#333">Pod 2</text>
  <text x="600" y="460" font-family="Arial, sans-serif" font-size="12" text-anchor="middle" fill="#333">10.244.1.3</text>
  
  <rect x="650" y="420" width="70" height="50" rx="5" ry="5" fill="#9ecae1" stroke="#333" stroke-width="2" />
  <text x="685" y="445" font-family="Arial, sans-serif" font-size="14" text-anchor="middle" fill="#333">Pod 3</text>
  <text x="685" y="460" font-family="Arial, sans-serif" font-size="12" text-anchor="middle" fill="#333">10.244.2.2</text>
  
  <!-- 客户端Pod -->
  <rect x="390" y="480" width="70" height="50" rx="5" ry="5" fill="#fdae6b" stroke="#333" stroke-width="2" />
  <text x="425" y="505" font-family="Arial, sans-serif" font-size="14" text-anchor="middle" fill="#333">客户端</text>
  <text x="425" y="520" font-family="Arial, sans-serif" font-size="12" text-anchor="middle" fill="#333">Pod</text>
  
  <!-- 连线 -->
  <!-- kube-proxy 到 iptables 和 IPVS -->
  <line x1="350" y1="200" x2="470" y2="200" stroke="#333" stroke-width="2" marker-end="url(#arrowhead)" />
  <line x1="350" y1="280" x2="470" y2="280" stroke="#333" stroke-width="2" marker-end="url(#arrowhead)" />
  <line x1="350" y1="230" x2="610" y2="230" stroke="#333" stroke-width="2" marker-end="url(#arrowhead)" />
  <line x1="350" y1="290" x2="610" y2="290" stroke="#333" stroke-width="2" marker-end="url(#arrowhead)" />
  
  <!-- Service 到 iptables/IPVS -->
  <line x1="290" y1="450" x2="450" y2="320" stroke="#333" stroke-width="2" marker-end="url(#arrowhead)" />
  <line x1="290" y1="450" x2="590" y2="320" stroke="#333" stroke-width="2" marker-end="url(#arrowhead)" />
  
  <!-- 客户端访问 Service -->
  <line x1="410" y1="480" x2="260" y2="450" stroke="#333" stroke-width="2" marker-end="url(#arrowhead)" />
  
  <!-- iptables/IPVS 到 Pod -->
  <line x1="530" y1="350" x2="515" y2="420" stroke="#333" stroke-width="2" marker-end="url(#arrowhead)" />
  <line x1="600" y1="350" x2="600" y2="420" stroke="#333" stroke-width="2" marker-end="url(#arrowhead)" />
  <line x1="650" y1="350" x2="685" y2="420" stroke="#333" stroke-width="2" marker-end="url(#arrowhead)" />
  
  <!-- 数据流向标签 -->
  <text x="380" y="190" font-family="Arial, sans-serif" font-size="10" text-anchor="middle" fill="#666">1. 配置规则</text>
  <text x="360" y="450" font-family="Arial, sans-serif" font-size="10" text-anchor="middle" fill="#666">2. 请求服务</text>
  <text x="440" y="400" font-family="Arial, sans-serif" font-size="10" text-anchor="middle" fill="#666">3. 流量拦截和转发</text>
  <text x="650" y="390" font-family="Arial, sans-serif" font-size="10" text-anchor="middle" fill="#666">4. 分发到后端Pod</text>
  
  <!-- 图例 -->
  <rect x="40" y="550" width="15" height="15" fill="#f0f7fb" stroke="#333" stroke-width="1" />
  <text x="175" y="563" font-family="Arial, sans-serif" font-size="12" fill="#333">kube-proxy和内核网络组件</text>
  
  <rect x="250" y="550" width="15" height="15" fill="#fc8d59" stroke="#333" stroke-width="1" />
  <text x="290" y="563" font-family="Arial, sans-serif" font-size="12" fill="#333">Service</text>
  
  <rect x="330" y="550" width="15" height="15" fill="#9ecae1" stroke="#333" stroke-width="1" />
  <text x="360" y="563" font-family="Arial, sans-serif" font-size="12" fill="#333">Pod</text>
  
  <rect x="400" y="550" width="15" height="15" fill="#fdae6b" stroke="#333" stroke-width="1" />
  <text x="440" y="563" font-family="Arial, sans-serif" font-size="12" fill="#333">客户端</text>
  
  <line x1="470" y1="550" x2="485" y2="550" stroke="#333" stroke-width="2" marker-end="url(#arrowhead)" />
  <text x="525" y="563" font-family="Arial, sans-serif" font-size="12" fill="#333">数据流向</text>
</svg> 