<?xml version="1.0" encoding="UTF-8" standalone="no"?>
<svg width="800" height="600" xmlns="http://www.w3.org/2000/svg">
  <defs>
    <marker id="arrowhead" markerWidth="10" markerHeight="7" refX="9" refY="3.5" orient="auto">
      <polygon points="0 0, 10 3.5, 0 7" fill="#333" />
    </marker>
  </defs>
  
  <!-- 背景 -->
  <rect x="0" y="0" width="800" height="600" fill="#f8f9fa" />
  
  <!-- 标题 -->
  <text x="400" y="40" font-family="Arial, sans-serif" font-size="24" text-anchor="middle" fill="#333">Service 组件交互流程</text>
  
  <!-- API Server -->
  <rect x="350" y="70" width="100" height="50" rx="5" ry="5" fill="#e3f2fd" stroke="#1976d2" stroke-width="2" />
  <text x="400" y="100" font-family="Arial, sans-serif" font-size="14" text-anchor="middle" fill="#333">API Server</text>
  
  <!-- Controller Manager -->
  <rect x="120" y="170" width="140" height="50" rx="5" ry="5" fill="#e8f5e9" stroke="#43a047" stroke-width="2" />
  <text x="190" y="200" font-family="Arial, sans-serif" font-size="14" text-anchor="middle" fill="#333">Controller Manager</text>
  
  <!-- kube-proxy -->
  <rect x="350" y="350" width="100" height="50" rx="5" ry="5" fill="#fff3e0" stroke="#ff9800" stroke-width="2" />
  <text x="400" y="380" font-family="Arial, sans-serif" font-size="14" text-anchor="middle" fill="#333">kube-proxy</text>
  
  <!-- CoreDNS -->
  <rect x="540" y="170" width="100" height="50" rx="5" ry="5" fill="#e8eaf6" stroke="#3f51b5" stroke-width="2" />
  <text x="590" y="200" font-family="Arial, sans-serif" font-size="14" text-anchor="middle" fill="#333">CoreDNS</text>
  
  <!-- Cloud Controller Manager -->
  <rect x="100" y="350" width="180" height="50" rx="5" ry="5" fill="#f3e5f5" stroke="#9c27b0" stroke-width="2" />
  <text x="190" y="380" font-family="Arial, sans-serif" font-size="14" text-anchor="middle" fill="#333">Cloud Controller Manager</text>
  
  <!-- etcd 数据库 -->
  <ellipse cx="400" cy="500" rx="80" ry="40" fill="#f1f8e9" stroke="#689f38" stroke-width="2" />
  <text x="400" y="505" font-family="Arial, sans-serif" font-size="14" text-anchor="middle" fill="#333">etcd</text>
  
  <!-- Service 资源对象 -->
  <rect x="200" y="260" width="120" height="50" rx="5" ry="5" fill="#fce4ec" stroke="#ec407a" stroke-width="2" />
  <text x="260" y="290" font-family="Arial, sans-serif" font-size="14" text-anchor="middle" fill="#333">Service</text>
  
  <!-- Endpoints/EndpointSlices -->
  <rect x="350" y="260" width="180" height="50" rx="5" ry="5" fill="#ffebee" stroke="#e53935" stroke-width="2" />
  <text x="440" y="290" font-family="Arial, sans-serif" font-size="14" text-anchor="middle" fill="#333">Endpoints/EndpointSlices</text>
  
  <!-- 外部负载均衡器 -->
  <rect x="100" y="450" width="150" height="50" rx="5" ry="5" fill="#e0f7fa" stroke="#00acc1" stroke-width="2" />
  <text x="175" y="480" font-family="Arial, sans-serif" font-size="14" text-anchor="middle" fill="#333">外部负载均衡器</text>
  
  <!-- 网络规则 (iptables/IPVS) -->
  <rect x="550" y="350" width="180" height="50" rx="5" ry="5" fill="#fff8e1" stroke="#ffa000" stroke-width="2" />
  <text x="640" y="380" font-family="Arial, sans-serif" font-size="14" text-anchor="middle" fill="#333">网络规则 (iptables/IPVS)</text>
  
  <!-- Pod 组 -->
  <ellipse cx="590" cy="450" rx="60" ry="40" fill="#e0f2f1" stroke="#009688" stroke-width="2" />
  <text x="590" y="455" font-family="Arial, sans-serif" font-size="14" text-anchor="middle" fill="#333">后端 Pod</text>
  
  <!-- 连接线 -->
  <!-- API Server 与 Controller Manager -->
  <line x1="350" y1="95" x2="190" y2="170" stroke="#333" stroke-width="1.5" marker-end="url(#arrowhead)" />
  <text x="230" y="120" font-family="Arial, sans-serif" font-size="10" fill="#333">1. 监听 Service 变化</text>
  
  <!-- API Server 与 CoreDNS -->
  <line x1="450" y1="95" x2="590" y2="170" stroke="#333" stroke-width="1.5" marker-end="url(#arrowhead)" />
  <text x="540" y="120" font-family="Arial, sans-serif" font-size="10" fill="#333">5. 监听 Service 变化</text>
  
  <!-- Controller Manager 与 Service -->
  <line x1="190" y1="220" x2="230" y2="260" stroke="#333" stroke-width="1.5" marker-end="url(#arrowhead)" />
  <text x="180" y="250" font-family="Arial, sans-serif" font-size="10" fill="#333">2. 处理 Service</text>
  
  <!-- Controller Manager 与 Endpoints -->
  <line x1="220" y1="195" x2="400" y2="260" stroke="#333" stroke-width="1.5" marker-end="url(#arrowhead)" />
  <text x="270" y="220" font-family="Arial, sans-serif" font-size="10" fill="#333">3. 创建/更新 Endpoints</text>
  
  <!-- kube-proxy 与 Service -->
  <line x1="335" y1="350" x2="260" y2="310" stroke="#333" stroke-width="1.5" marker-end="url(#arrowhead)" />
  <text x="250" y="340" font-family="Arial, sans-serif" font-size="10" fill="#333">7. 监听 Service</text>
  
  <!-- kube-proxy 与 Endpoints -->
  <line x1="400" y1="350" x2="400" y2="310" stroke="#333" stroke-width="1.5" marker-end="url(#arrowhead)" />
  <text x="410" y="335" font-family="Arial, sans-serif" font-size="10" fill="#333">8. 监听 Endpoints</text>
  
  <!-- kube-proxy 与 网络规则 -->
  <line x1="450" y1="375" x2="550" y2="375" stroke="#333" stroke-width="1.5" marker-end="url(#arrowhead)" />
  <text x="490" y="365" font-family="Arial, sans-serif" font-size="10" fill="#333">9. 更新规则</text>
  
  <!-- 网络规则 与 Pod -->
  <line x1="640" y1="400" x2="605" y2="420" stroke="#333" stroke-width="1.5" marker-end="url(#arrowhead)" />
  <text x="650" y="420" font-family="Arial, sans-serif" font-size="10" fill="#333">10. 流量转发</text>
  
  <!-- CoreDNS 与 DNS 记录 -->
  <path d="M 590,220 Q 650,240 630,290" stroke="#333" stroke-width="1.5" fill="none" marker-end="url(#arrowhead)" />
  <text x="630" y="260" font-family="Arial, sans-serif" font-size="10" fill="#333">6. 更新 DNS 记录</text>
  
  <!-- Cloud Controller Manager 与 API Server -->
  <line x1="190" y1="350" x2="380" y2="120" stroke="#333" stroke-width="1.5" marker-end="url(#arrowhead)" />
  <text x="240" y="170" font-family="Arial, sans-serif" font-size="10" fill="#333">4. 监听 LoadBalancer Service</text>
  
  <!-- Cloud Controller Manager 与 外部负载均衡器 -->
  <line x1="175" y1="400" x2="175" y2="450" stroke="#333" stroke-width="1.5" marker-end="url(#arrowhead)" />
  <text x="120" y="430" font-family="Arial, sans-serif" font-size="10" fill="#333">11. 配置负载均衡器</text>
  
  <!-- 所有组件与 etcd -->
  <line x1="400" y1="120" x2="400" y2="460" stroke="#333" stroke-width="1" stroke-dasharray="5,5" marker-end="url(#arrowhead)" />
  <text x="415" y="160" transform="rotate(90, 415, 160)" font-family="Arial, sans-serif" font-size="10" fill="#333">持久化存储</text>
  
  <!-- 处理阶段指示 -->
  <rect x="50" y="90" width="30" height="20" rx="10" ry="10" fill="#1976d2" />
  <text x="65" y="105" font-family="Arial, sans-serif" font-size="14" text-anchor="middle" fill="#fff">1</text>
  <text x="90" y="105" font-family="Arial, sans-serif" font-size="12" fill="#333">服务创建阶段</text>
  
  <rect x="50" y="120" width="30" height="20" rx="10" ry="10" fill="#43a047" />
  <text x="65" y="135" font-family="Arial, sans-serif" font-size="14" text-anchor="middle" fill="#fff">2</text>
  <text x="90" y="135" font-family="Arial, sans-serif" font-size="12" fill="#333">服务同步阶段</text>
  
  <rect x="50" y="150" width="30" height="20" rx="10" ry="10" fill="#ff9800" />
  <text x="65" y="165" font-family="Arial, sans-serif" font-size="14" text-anchor="middle" fill="#fff">3</text>
  <text x="90" y="165" font-family="Arial, sans-serif" font-size="12" fill="#333">网络规则配置阶段</text>
  
  <rect x="50" y="180" width="30" height="20" rx="10" ry="10" fill="#e53935" />
  <text x="65" y="195" font-family="Arial, sans-serif" font-size="14" text-anchor="middle" fill="#fff">4</text>
  <text x="90" y="195" font-family="Arial, sans-serif" font-size="12" fill="#333">外部资源配置阶段</text>
  
  <!-- 图例 -->
  <rect x="50" y="540" width="15" height="15" fill="#e3f2fd" stroke="#1976d2" stroke-width="1" />
  <text x="75" y="552" font-family="Arial, sans-serif" font-size="12" fill="#333">控制平面组件</text>
  
  <rect x="200" y="540" width="15" height="15" fill="#fce4ec" stroke="#ec407a" stroke-width="1" />
  <text x="225" y="552" font-family="Arial, sans-serif" font-size="12" fill="#333">资源对象</text>
  
  <rect x="330" y="540" width="15" height="15" fill="#fff3e0" stroke="#ff9800" stroke-width="1" />
  <text x="355" y="552" font-family="Arial, sans-serif" font-size="12" fill="#333">网络代理</text>
  
  <rect x="450" y="540" width="15" height="15" fill="#e0f7fa" stroke="#00acc1" stroke-width="1" />
  <text x="475" y="552" font-family="Arial, sans-serif" font-size="12" fill="#333">外部资源</text>
  
  <ellipse cx="550" cy="547" rx="7.5" ry="7.5" fill="#f1f8e9" stroke="#689f38" stroke-width="1" />
  <text x="570" y="552" font-family="Arial, sans-serif" font-size="12" fill="#333">存储</text>
  
  <line x1="620" y1="547" x2="650" y2="547" stroke="#333" stroke-width="1.5" marker-end="url(#arrowhead)" />
  <text x="670" y="552" font-family="Arial, sans-serif" font-size="12" fill="#333">数据流</text>
  
  <text x="400" y="575" font-family="Arial, sans-serif" font-size="14" text-anchor="middle" fill="#333">Kubernetes Service 组件交互示意图</text>
</svg> 