<?xml version="1.0" encoding="UTF-8" standalone="no"?>
<svg width="800" height="600" xmlns="http://www.w3.org/2000/svg">
    <!-- 定义渐变和滤镜 -->
    <defs>
        <!-- 命名空间背景渐变 -->
        <linearGradient id="namespaceGradient" x1="0%" y1="0%" x2="0%" y2="100%">
            <stop offset="0%" style="stop-color:#e6f7ff;stop-opacity:1" />
            <stop offset="100%" style="stop-color:#bae7ff;stop-opacity:1" />
        </linearGradient>
        
        <!-- 网络设备背景渐变 -->
        <linearGradient id="deviceGradient" x1="0%" y1="0%" x2="0%" y2="100%">
            <stop offset="0%" style="stop-color:#f6ffed;stop-opacity:1" />
            <stop offset="100%" style="stop-color:#d9f7be;stop-opacity:1" />
        </linearGradient>
        
        <!-- 网桥背景渐变 -->
        <linearGradient id="bridgeGradient" x1="0%" y1="0%" x2="0%" y2="100%">
            <stop offset="0%" style="stop-color:#fcffe6;stop-opacity:1" />
            <stop offset="100%" style="stop-color:#f4ffb8;stop-opacity:1" />
        </linearGradient>
        
        <!-- veth 连接渐变 -->
        <linearGradient id="vethGradient" x1="0%" y1="0%" x2="100%" y2="0%">
            <stop offset="0%" style="stop-color:#ffa39e;stop-opacity:1" />
            <stop offset="100%" style="stop-color:#ff7875;stop-opacity:1" />
        </linearGradient>
        
        <!-- 阴影效果 -->
        <filter id="shadow" x="-10%" y="-10%" width="120%" height="120%">
            <feDropShadow dx="2" dy="2" stdDeviation="3" flood-color="#333" flood-opacity="0.3"/>
        </filter>
        
        <!-- 箭头标记 -->
        <marker id="arrow" viewBox="0 0 10 10" refX="9" refY="5"
                markerWidth="6" markerHeight="6" orient="auto">
            <path d="M 0 0 L 10 5 L 0 10 z" fill="#666"/>
        </marker>
        
        <!-- veth 箭头标记 -->
        <marker id="vethArrow" viewBox="0 0 10 10" refX="9" refY="5"
                markerWidth="6" markerHeight="6" orient="auto">
            <path d="M 0 0 L 10 5 L 0 10 z" fill="#ff7875"/>
        </marker>
    </defs>
    
    <!-- 背景 -->
    <rect width="800" height="600" fill="#f5f5f5" />
    
    <!-- 标题 -->
    <text x="400" y="30" font-family="Arial, sans-serif" font-size="20" text-anchor="middle" fill="#333">Veth 对高级网络拓扑</text>
    
    <!-- 三种拓扑图 -->
    <g id="triangle-topology" transform="translate(0, 50)">
        <text x="130" y="30" font-family="Arial, sans-serif" font-size="16" text-anchor="middle" fill="#333">三角形拓扑</text>
        
        <!-- 命名空间 ns1 -->
        <rect x="50" y="70" width="160" height="120" rx="8" ry="8" fill="url(#namespaceGradient)" stroke="#69c0ff" stroke-width="2" filter="url(#shadow)" />
        <text x="130" y="90" font-family="Arial, sans-serif" font-size="14" text-anchor="middle" fill="#333">命名空间 ns1</text>
        
        <!-- ns1 的设备 -->
        <rect x="70" y="110" width="50" height="30" rx="5" ry="5" fill="url(#deviceGradient)" stroke="#95de64" stroke-width="1" />
        <text x="95" y="130" font-family="Arial, sans-serif" font-size="10" text-anchor="middle" fill="#333">veth1-1</text>
        
        <rect x="140" y="110" width="50" height="30" rx="5" ry="5" fill="url(#deviceGradient)" stroke="#95de64" stroke-width="1" />
        <text x="165" y="130" font-family="Arial, sans-serif" font-size="10" text-anchor="middle" fill="#333">veth3-1</text>
        
        <!-- 命名空间 ns2 -->
        <rect x="10" y="230" width="160" height="120" rx="8" ry="8" fill="url(#namespaceGradient)" stroke="#69c0ff" stroke-width="2" filter="url(#shadow)" />
        <text x="90" y="250" font-family="Arial, sans-serif" font-size="14" text-anchor="middle" fill="#333">命名空间 ns2</text>
        
        <!-- ns2 的设备 -->
        <rect x="30" y="270" width="50" height="30" rx="5" ry="5" fill="url(#deviceGradient)" stroke="#95de64" stroke-width="1" />
        <text x="55" y="290" font-family="Arial, sans-serif" font-size="10" text-anchor="middle" fill="#333">veth1-2</text>
        
        <rect x="100" y="270" width="50" height="30" rx="5" ry="5" fill="url(#deviceGradient)" stroke="#95de64" stroke-width="1" />
        <text x="125" y="290" font-family="Arial, sans-serif" font-size="10" text-anchor="middle" fill="#333">veth2-2</text>
        
        <!-- 命名空间 ns3 -->
        <rect x="190" y="230" width="160" height="120" rx="8" ry="8" fill="url(#namespaceGradient)" stroke="#69c0ff" stroke-width="2" filter="url(#shadow)" />
        <text x="270" y="250" font-family="Arial, sans-serif" font-size="14" text-anchor="middle" fill="#333">命名空间 ns3</text>
        
        <!-- ns3 的设备 -->
        <rect x="210" y="270" width="50" height="30" rx="5" ry="5" fill="url(#deviceGradient)" stroke="#95de64" stroke-width="1" />
        <text x="235" y="290" font-family="Arial, sans-serif" font-size="10" text-anchor="middle" fill="#333">veth2-3</text>
        
        <rect x="280" y="270" width="50" height="30" rx="5" ry="5" fill="url(#deviceGradient)" stroke="#95de64" stroke-width="1" />
        <text x="305" y="290" font-family="Arial, sans-serif" font-size="10" text-anchor="middle" fill="#333">veth3-3</text>
        
        <!-- Veth 连接 -->
        <path d="M 95 140 C 95,190 55,230 55,270" stroke="url(#vethGradient)" stroke-width="2" fill="none" marker-end="url(#vethArrow)" />
        <text x="60" y="200" font-family="Arial, sans-serif" font-size="10" fill="#333">10.0.1.0/24</text>
        
        <path d="M 125 270 C 125,230 235,230 235,270" stroke="url(#vethGradient)" stroke-width="2" fill="none" marker-end="url(#vethArrow)" />
        <text x="180" y="220" font-family="Arial, sans-serif" font-size="10" fill="#333">10.0.2.0/24</text>
        
        <path d="M 165 140 C 200,190 305,230 305,270" stroke="url(#vethGradient)" stroke-width="2" fill="none" marker-end="url(#vethArrow)" />
        <text x="240" y="180" font-family="Arial, sans-serif" font-size="10" fill="#333">10.0.3.0/24</text>
    </g>
    
    <g id="star-topology" transform="translate(400, 50)">
        <text x="130" y="30" font-family="Arial, sans-serif" font-size="16" text-anchor="middle" fill="#333">星型拓扑</text>
        
        <!-- 中心命名空间 ns1 -->
        <rect x="50" y="150" width="160" height="120" rx="8" ry="8" fill="url(#namespaceGradient)" stroke="#69c0ff" stroke-width="2" filter="url(#shadow)" />
        <text x="130" y="170" font-family="Arial, sans-serif" font-size="14" text-anchor="middle" fill="#333">命名空间 ns1 (中心)</text>
        
        <!-- ns1 的设备 -->
        <rect x="70" y="190" width="50" height="30" rx="5" ry="5" fill="url(#deviceGradient)" stroke="#95de64" stroke-width="1" />
        <text x="95" y="210" font-family="Arial, sans-serif" font-size="10" text-anchor="middle" fill="#333">veth1-1</text>
        
        <rect x="140" y="190" width="50" height="30" rx="5" ry="5" fill="url(#deviceGradient)" stroke="#95de64" stroke-width="1" />
        <text x="165" y="210" font-family="Arial, sans-serif" font-size="10" text-anchor="middle" fill="#333">veth2-1</text>
        
        <!-- 命名空间 ns2 -->
        <rect x="10" y="70" width="160" height="60" rx="8" ry="8" fill="url(#namespaceGradient)" stroke="#69c0ff" stroke-width="2" filter="url(#shadow)" />
        <text x="90" y="90" font-family="Arial, sans-serif" font-size="14" text-anchor="middle" fill="#333">命名空间 ns2</text>
        
        <!-- ns2 的设备 -->
        <rect x="65" y="100" width="50" height="30" rx="5" ry="5" fill="url(#deviceGradient)" stroke="#95de64" stroke-width="1" />
        <text x="90" y="120" font-family="Arial, sans-serif" font-size="10" text-anchor="middle" fill="#333">veth1-2</text>
        
        <!-- 命名空间 ns3 -->
        <rect x="190" y="70" width="160" height="60" rx="8" ry="8" fill="url(#namespaceGradient)" stroke="#69c0ff" stroke-width="2" filter="url(#shadow)" />
        <text x="270" y="90" font-family="Arial, sans-serif" font-size="14" text-anchor="middle" fill="#333">命名空间 ns3</text>
        
        <!-- ns3 的设备 -->
        <rect x="245" y="100" width="50" height="30" rx="5" ry="5" fill="url(#deviceGradient)" stroke="#95de64" stroke-width="1" />
        <text x="270" y="120" font-family="Arial, sans-serif" font-size="10" text-anchor="middle" fill="#333">veth2-3</text>
        
        <!-- 命名空间 ns4 -->
        <rect x="10" y="290" width="160" height="60" rx="8" ry="8" fill="url(#namespaceGradient)" stroke="#69c0ff" stroke-width="2" filter="url(#shadow)" />
        <text x="90" y="310" font-family="Arial, sans-serif" font-size="14" text-anchor="middle" fill="#333">命名空间 ns4</text>
        
        <!-- ns4 的设备 -->
        <rect x="65" y="320" width="50" height="30" rx="5" ry="5" fill="url(#deviceGradient)" stroke="#95de64" stroke-width="1" />
        <text x="90" y="340" font-family="Arial, sans-serif" font-size="10" text-anchor="middle" fill="#333">veth3-4</text>
        
        <!-- 命名空间 ns5 -->
        <rect x="190" y="290" width="160" height="60" rx="8" ry="8" fill="url(#namespaceGradient)" stroke="#69c0ff" stroke-width="2" filter="url(#shadow)" />
        <text x="270" y="310" font-family="Arial, sans-serif" font-size="14" text-anchor="middle" fill="#333">命名空间 ns5</text>
        
        <!-- ns5 的设备 -->
        <rect x="245" y="320" width="50" height="30" rx="5" ry="5" fill="url(#deviceGradient)" stroke="#95de64" stroke-width="1" />
        <text x="270" y="340" font-family="Arial, sans-serif" font-size="10" text-anchor="middle" fill="#333">veth4-5</text>
        
        <!-- Veth 连接 -->
        <path d="M 90 130 L 90 190" stroke="url(#vethGradient)" stroke-width="2" fill="none" marker-end="url(#vethArrow)" />
        <text x="75" y="160" font-family="Arial, sans-serif" font-size="10" fill="#333">veth1</text>
        
        <path d="M 270 130 L 165 190" stroke="url(#vethGradient)" stroke-width="2" fill="none" marker-end="url(#vethArrow)" />
        <text x="220" y="160" font-family="Arial, sans-serif" font-size="10" fill="#333">veth2</text>
        
        <path d="M 90 320 L 90 250" stroke="url(#vethGradient)" stroke-width="2" fill="none" marker-start="url(#vethArrow)" />
        <text x="75" y="280" font-family="Arial, sans-serif" font-size="10" fill="#333">veth3</text>
        
        <path d="M 270 320 L 165 250" stroke="url(#vethGradient)" stroke-width="2" fill="none" marker-start="url(#vethArrow)" />
        <text x="220" y="280" font-family="Arial, sans-serif" font-size="10" fill="#333">veth4</text>
    </g>
    
    <g id="bridge-topology" transform="translate(200, 380)">
        <text x="200" y="30" font-family="Arial, sans-serif" font-size="16" text-anchor="middle" fill="#333">网桥拓扑</text>
        
        <!-- 网桥 -->
        <rect x="150" y="50" width="100" height="50" rx="5" ry="5" fill="url(#bridgeGradient)" stroke="#d3f261" stroke-width="2" filter="url(#shadow)" />
        <text x="200" y="80" font-family="Arial, sans-serif" font-size="14" text-anchor="middle" fill="#333">网桥 br0</text>
        
        <!-- 命名空间 ns1 -->
        <rect x="50" y="130" width="100" height="80" rx="8" ry="8" fill="url(#namespaceGradient)" stroke="#69c0ff" stroke-width="2" filter="url(#shadow)" />
        <text x="100" y="150" font-family="Arial, sans-serif" font-size="12" text-anchor="middle" fill="#333">ns1</text>
        
        <!-- ns1 的设备 -->
        <rect x="75" y="170" width="50" height="30" rx="5" ry="5" fill="url(#deviceGradient)" stroke="#95de64" stroke-width="1" />
        <text x="100" y="190" font-family="Arial, sans-serif" font-size="10" text-anchor="middle" fill="#333">veth1</text>
        
        <!-- 命名空间 ns2 -->
        <rect x="175" y="130" width="100" height="80" rx="8" ry="8" fill="url(#namespaceGradient)" stroke="#69c0ff" stroke-width="2" filter="url(#shadow)" />
        <text x="225" y="150" font-family="Arial, sans-serif" font-size="12" text-anchor="middle" fill="#333">ns2</text>
        
        <!-- ns2 的设备 -->
        <rect x="200" y="170" width="50" height="30" rx="5" ry="5" fill="url(#deviceGradient)" stroke="#95de64" stroke-width="1" />
        <text x="225" y="190" font-family="Arial, sans-serif" font-size="10" text-anchor="middle" fill="#333">veth2</text>
        
        <!-- 命名空间 ns3 -->
        <rect x="300" y="130" width="100" height="80" rx="8" ry="8" fill="url(#namespaceGradient)" stroke="#69c0ff" stroke-width="2" filter="url(#shadow)" />
        <text x="350" y="150" font-family="Arial, sans-serif" font-size="12" text-anchor="middle" fill="#333">ns3</text>
        
        <!-- ns3 的设备 -->
        <rect x="325" y="170" width="50" height="30" rx="5" ry="5" fill="url(#deviceGradient)" stroke="#95de64" stroke-width="1" />
        <text x="350" y="190" font-family="Arial, sans-serif" font-size="10" text-anchor="middle" fill="#333">veth3</text>
        
        <!-- Veth 连接 -->
        <path d="M 100 170 L 175 75" stroke="url(#vethGradient)" stroke-width="2" fill="none" marker-end="url(#vethArrow)" />
        <path d="M 225 170 L 200 100" stroke="url(#vethGradient)" stroke-width="2" fill="none" marker-end="url(#vethArrow)" />
        <path d="M 350 170 L 225 75" stroke="url(#vethGradient)" stroke-width="2" fill="none" marker-end="url(#vethArrow)" />
    </g>
    
    <!-- 图例 -->
    <g id="legend" transform="translate(650, 540)">
        <rect x="0" y="0" width="10" height="5" fill="url(#namespaceGradient)" stroke="#69c0ff" stroke-width="1" />
        <text x="15" y="5" font-family="Arial, sans-serif" font-size="10" fill="#333">网络命名空间</text>
        
        <rect x="0" y="15" width="10" height="5" fill="url(#deviceGradient)" stroke="#95de64" stroke-width="1" />
        <text x="15" y="20" font-family="Arial, sans-serif" font-size="10" fill="#333">网络设备</text>
        
        <rect x="0" y="30" width="10" height="5" fill="url(#bridgeGradient)" stroke="#d3f261" stroke-width="1" />
        <text x="15" y="35" font-family="Arial, sans-serif" font-size="10" fill="#333">Linux 网桥</text>
        
        <line x1="0" y1="45" x2="10" y2="45" stroke="url(#vethGradient)" stroke-width="2" />
        <text x="15" y="48" font-family="Arial, sans-serif" font-size="10" fill="#333">veth 对连接</text>
    </g>
</svg>
