<?xml version="1.0" encoding="UTF-8"?>
<svg width="800" height="600" xmlns="http://www.w3.org/2000/svg">
  <!-- 背景 -->
  <rect width="800" height="600" fill="#f8f9fa" />
  
  <!-- 标题 -->
  <text x="400" y="30" font-family="Arial" font-size="20" text-anchor="middle" fill="#1890ff" font-weight="bold">VXLAN数据包流程详解</text>
  
  <!-- 节点1 -->
  <rect x="50" y="80" width="300" height="450" rx="10" fill="#e6f7ff" stroke="#1890ff" stroke-width="2" />
  <text x="200" y="110" font-family="Arial" font-size="18" text-anchor="middle" fill="#0050b3">节点1 (192.168.1.10)</text>
  
  <!-- 节点1上的Pod A -->
  <rect x="80" y="130" width="240" height="80" rx="5" fill="#d9f7be" stroke="#52c41a" stroke-width="2" />
  <text x="200" y="155" font-family="Arial" font-size="16" text-anchor="middle" fill="#135200">Pod A</text>
  <text x="200" y="180" font-family="Arial" font-size="14" text-anchor="middle" fill="#135200">IP: 10.244.1.2</text>
  
  <!-- 节点1上的网络命名空间 -->
  <rect x="80" y="230" width="240" height="80" rx="5" fill="#f9f0ff" stroke="#722ed1" stroke-width="2" />
  <text x="200" y="255" font-family="Arial" font-size="16" text-anchor="middle" fill="#391085">节点1网络命名空间</text>
  <text x="200" y="280" font-family="Arial" font-size="14" text-anchor="middle" fill="#391085">路由表、iptables规则</text>
  
  <!-- 节点1上的VXLAN接口 -->
  <rect x="80" y="330" width="240" height="80" rx="5" fill="#fff1f0" stroke="#ff4d4f" stroke-width="2" />
  <text x="200" y="355" font-family="Arial" font-size="16" text-anchor="middle" fill="#820014">flannel.1 (VTEP)</text>
  <text x="200" y="380" font-family="Arial" font-size="14" text-anchor="middle" fill="#820014">IP: 10.244.1.0, VNI: 1</text>
  
  <!-- 节点1上的物理网卡 -->
  <rect x="80" y="430" width="240" height="80" rx="5" fill="#f0f5ff" stroke="#2f54eb" stroke-width="2" />
  <text x="200" y="455" font-family="Arial" font-size="16" text-anchor="middle" fill="#10239e">eth0</text>
  <text x="200" y="480" font-family="Arial" font-size="14" text-anchor="middle" fill="#10239e">IP: 192.168.1.10</text>
  
  <!-- 节点2 -->
  <rect x="450" y="80" width="300" height="450" rx="10" fill="#e6f7ff" stroke="#1890ff" stroke-width="2" />
  <text x="600" y="110" font-family="Arial" font-size="18" text-anchor="middle" fill="#0050b3">节点2 (192.168.1.11)</text>
  
  <!-- 节点2上的Pod B -->
  <rect x="480" y="130" width="240" height="80" rx="5" fill="#d9f7be" stroke="#52c41a" stroke-width="2" />
  <text x="600" y="155" font-family="Arial" font-size="16" text-anchor="middle" fill="#135200">Pod B</text>
  <text x="600" y="180" font-family="Arial" font-size="14" text-anchor="middle" fill="#135200">IP: 10.244.2.3</text>
  
  <!-- 节点2上的网络命名空间 -->
  <rect x="480" y="230" width="240" height="80" rx="5" fill="#f9f0ff" stroke="#722ed1" stroke-width="2" />
  <text x="600" y="255" font-family="Arial" font-size="16" text-anchor="middle" fill="#391085">节点2网络命名空间</text>
  <text x="600" y="280" font-family="Arial" font-size="14" text-anchor="middle" fill="#391085">路由表、iptables规则</text>
  
  <!-- 节点2上的VXLAN接口 -->
  <rect x="480" y="330" width="240" height="80" rx="5" fill="#fff1f0" stroke="#ff4d4f" stroke-width="2" />
  <text x="600" y="355" font-family="Arial" font-size="16" text-anchor="middle" fill="#820014">flannel.1 (VTEP)</text>
  <text x="600" y="380" font-family="Arial" font-size="14" text-anchor="middle" fill="#820014">IP: 10.244.2.0, VNI: 1</text>
  
  <!-- 节点2上的物理网卡 -->
  <rect x="480" y="430" width="240" height="80" rx="5" fill="#f0f5ff" stroke="#2f54eb" stroke-width="2" />
  <text x="600" y="455" font-family="Arial" font-size="16" text-anchor="middle" fill="#10239e">eth0</text>
  <text x="600" y="480" font-family="Arial" font-size="14" text-anchor="middle" fill="#10239e">IP: 192.168.1.11</text>
  
  <!-- 物理网络 -->
  <rect x="50" y="550" width="700" height="30" rx="5" fill="#f0f5ff" stroke="#2f54eb" stroke-width="2" />
  <text x="400" y="570" font-family="Arial" font-size="14" text-anchor="middle" fill="#10239e">物理网络 (192.168.1.0/24)</text>
  
  <!-- 数据包流向 - 步骤1：Pod A发送数据包 -->
  <line x1="200" y1="210" x2="200" y2="230" stroke="#52c41a" stroke-width="2" />
  <circle cx="200" cy="220" r="10" fill="#fff" stroke="#52c41a" stroke-width="2" />
  <text x="200" cy="220" font-family="Arial" font-size="12" text-anchor="middle" fill="#52c41a" dominant-baseline="middle">1</text>
  
  <!-- 数据包1：原始IP数据包 -->
  <g transform="translate(240, 215)">
    <rect x="-60" y="-15" width="120" height="30" rx="5" fill="#fff" stroke="#52c41a" stroke-width="2" />
    <text x="0" y="5" font-family="Arial" font-size="10" text-anchor="middle" fill="#52c41a">IP: 10.244.1.2 → 10.244.2.3</text>
  </g>
  
  <!-- 数据包流向 - 步骤2：路由到flannel.1 -->
  <line x1="200" y1="310" x2="200" y2="330" stroke="#722ed1" stroke-width="2" />
  <circle cx="200" cy="320" r="10" fill="#fff" stroke="#722ed1" stroke-width="2" />
  <text x="200" cy="320" font-family="Arial" font-size="12" text-anchor="middle" fill="#722ed1" dominant-baseline="middle">2</text>
  
  <!-- 数据包流向 - 步骤3：VXLAN封装 -->
  <line x1="200" y1="410" x2="200" y2="430" stroke="#ff4d4f" stroke-width="2" />
  <circle cx="200" cy="420" r="10" fill="#fff" stroke="#ff4d4f" stroke-width="2" />
  <text x="200" cy="420" font-family="Arial" font-size="12" text-anchor="middle" fill="#ff4d4f" dominant-baseline="middle">3</text>
  
  <!-- 数据包2：VXLAN封装后的数据包 -->
  <g transform="translate(270, 415)">
    <rect x="-100" y="-20" width="200" height="40" rx="5" fill="#fff" stroke="#ff4d4f" stroke-width="2" />
    <text x="0" y="-5" font-family="Arial" font-size="10" text-anchor="middle" fill="#ff4d4f">IP: 192.168.1.10 → 192.168.1.11</text>
    <text x="0" y="10" font-family="Arial" font-size="10" text-anchor="middle" fill="#ff4d4f">UDP:4789 + VXLAN + 原始数据包</text>
  </g>
  
  <!-- 数据包流向 - 步骤4：通过物理网络传输 -->
  <line x1="200" y1="510" x2="200" y2="550" stroke="#2f54eb" stroke-width="2" />
  <circle cx="200" cy="530" r="10" fill="#fff" stroke="#2f54eb" stroke-width="2" />
  <text x="200" cy="530" font-family="Arial" font-size="12" text-anchor="middle" fill="#2f54eb" dominant-baseline="middle">4</text>
  
  <!-- 物理网络传输 -->
  <path d="M 200 565 C 200 585, 600 585, 600 565" stroke="#2f54eb" stroke-width="3" stroke-dasharray="10,5" fill="none" />
  <polygon points="590,565 600,560 600,570" fill="#2f54eb" />
  
  <!-- 数据包流向 - 步骤5：节点2物理网卡接收 -->
  <line x1="600" y1="550" x2="600" y2="510" stroke="#2f54eb" stroke-width="2" />
  <circle cx="600" cy="530" r="10" fill="#fff" stroke="#2f54eb" stroke-width="2" />
  <text x="600" cy="530" font-family="Arial" font-size="12" text-anchor="middle" fill="#2f54eb" dominant-baseline="middle">5</text>
  
  <!-- 数据包流向 - 步骤6：VXLAN解封装 -->
  <line x1="600" y1="430" x2="600" y2="410" stroke="#ff4d4f" stroke-width="2" />
  <circle cx="600" cy="420" r="10" fill="#fff" stroke="#ff4d4f" stroke-width="2" />
  <text x="600" cy="420" font-family="Arial" font-size="12" text-anchor="middle" fill="#ff4d4f" dominant-baseline="middle">6</text>
  
  <!-- 数据包流向 - 步骤7：转发到网络命名空间 -->
  <line x1="600" y1="330" x2="600" y2="310" stroke="#722ed1" stroke-width="2" />
  <circle cx="600" cy="320" r="10" fill="#fff" stroke="#722ed1" stroke-width="2" />
  <text x="600" cy="320" font-family="Arial" font-size="12" text-anchor="middle" fill="#722ed1" dominant-baseline="middle">7</text>
  
  <!-- 数据包3：解封装后的原始数据包 -->
  <g transform="translate(700, 320)">
    <rect x="-60" y="-15" width="120" height="30" rx="5" fill="#fff" stroke="#52c41a" stroke-width="2" />
    <text x="0" y="5" font-family="Arial" font-size="10" text-anchor="middle" fill="#52c41a">IP: 10.244.1.2 → 10.244.2.3</text>
  </g>
  
  <!-- 数据包流向 - 步骤8：最终到达Pod B -->
  <line x1="600" y1="230" x2="600" y2="210" stroke="#52c41a" stroke-width="2" />
  <circle cx="600" cy="220" r="10" fill="#fff" stroke="#52c41a" stroke-width="2" />
  <text x="600" cy="220" font-family="Arial" font-size="12" text-anchor="middle" fill="#52c41a" dominant-baseline="middle">8</text>
  
  <!-- 图例 -->
  <rect x="50" y="20" width="15" height="15" fill="#d9f7be" stroke="#52c41a" stroke-width="2" />
  <text x="75" y="33" font-family="Arial" font-size="14" fill="#000">Pod</text>
  
  <rect x="150" y="20" width="15" height="15" fill="#f9f0ff" stroke="#722ed1" stroke-width="2" />
  <text x="175" y="33" font-family="Arial" font-size="14" fill="#000">网络命名空间</text>
  
  <rect x="280" y="20" width="15" height="15" fill="#fff1f0" stroke="#ff4d4f" stroke-width="2" />
  <text x="305" y="33" font-family="Arial" font-size="14" fill="#000">VXLAN接口</text>
  
  <rect x="400" y="20" width="15" height="15" fill="#f0f5ff" stroke="#2f54eb" stroke-width="2" />
  <text x="425" y="33" font-family="Arial" font-size="14" fill="#000">物理网卡</text>
  
  <circle cx="500" cy="25" r="10" fill="#fff" stroke="#52c41a" stroke-width="2" />
  <text x="500" cy="25" font-family="Arial" font-size="12" text-anchor="middle" fill="#52c41a" dominant-baseline="middle">1</text>
  <text x="520" y="30" font-family="Arial" font-size="14" fill="#000">数据包流向步骤</text>
</svg>
