<?xml version="1.0" encoding="UTF-8" standalone="no"?>
<svg width="800" height="500" xmlns="http://www.w3.org/2000/svg">
    <!-- 背景 -->
    <rect width="800" height="500" fill="#f8f9fa" />
    
    <!-- 标题 -->
    <text x="400" y="30" font-family="Arial, sans-serif" font-size="20" text-anchor="middle" fill="#333">WireGuard作为Kubernetes Overlay网络</text>
    
    <!-- 节点1 -->
    <rect x="100" y="100" width="250" height="300" rx="10" fill="#E6E6E6" stroke="#333" stroke-width="2" />
    <text x="225" y="130" font-family="Arial, sans-serif" font-size="18" text-anchor="middle" fill="#333">节点1</text>
    
    <!-- 节点1上的Pod -->
    <rect x="130" y="150" width="80" height="60" rx="10" fill="#5B9BD5" />
    <text x="170" y="185" font-family="Arial, sans-serif" font-size="16" text-anchor="middle" fill="white">Pod A</text>
    <text x="170" y="205" font-family="Arial, sans-serif" font-size="12" text-anchor="middle" fill="white">10.1.1.2</text>
    
    <rect x="240" y="150" width="80" height="60" rx="10" fill="#5B9BD5" />
    <text x="280" y="185" font-family="Arial, sans-serif" font-size="16" text-anchor="middle" fill="white">Pod B</text>
    <text x="280" y="205" font-family="Arial, sans-serif" font-size="12" text-anchor="middle" fill="white">10.1.1.3</text>
    
    <!-- 节点1上的网桥 -->
    <rect x="130" y="250" width="190" height="40" rx="5" fill="#70AD47" />
    <text x="225" y="275" font-family="Arial, sans-serif" font-size="16" text-anchor="middle" fill="white">CNI网桥 (cni0)</text>
    
    <!-- 节点1上的WireGuard接口 -->
    <rect x="130" y="320" width="190" height="40" rx="5" fill="#ED7D31" />
    <text x="225" y="345" font-family="Arial, sans-serif" font-size="16" text-anchor="middle" fill="white">WireGuard (wg0)</text>
    
    <!-- 节点2 -->
    <rect x="450" y="100" width="250" height="300" rx="10" fill="#E6E6E6" stroke="#333" stroke-width="2" />
    <text x="575" y="130" font-family="Arial, sans-serif" font-size="18" text-anchor="middle" fill="#333">节点2</text>
    
    <!-- 节点2上的Pod -->
    <rect x="480" y="150" width="80" height="60" rx="10" fill="#5B9BD5" />
    <text x="520" y="185" font-family="Arial, sans-serif" font-size="16" text-anchor="middle" fill="white">Pod C</text>
    <text x="520" y="205" font-family="Arial, sans-serif" font-size="12" text-anchor="middle" fill="white">10.1.2.2</text>
    
    <rect x="590" y="150" width="80" height="60" rx="10" fill="#5B9BD5" />
    <text x="630" y="185" font-family="Arial, sans-serif" font-size="16" text-anchor="middle" fill="white">Pod D</text>
    <text x="630" y="205" font-family="Arial, sans-serif" font-size="12" text-anchor="middle" fill="white">10.1.2.3</text>
    
    <!-- 节点2上的网桥 -->
    <rect x="480" y="250" width="190" height="40" rx="5" fill="#70AD47" />
    <text x="575" y="275" font-family="Arial, sans-serif" font-size="16" text-anchor="middle" fill="white">CNI网桥 (cni0)</text>
    
    <!-- 节点2上的WireGuard接口 -->
    <rect x="480" y="320" width="190" height="40" rx="5" fill="#ED7D31" />
    <text x="575" y="345" font-family="Arial, sans-serif" font-size="16" text-anchor="middle" fill="white">WireGuard (wg0)</text>
    
    <!-- 连接线 -->
    <!-- Pod到网桥的连接 -->
    <line x1="170" y1="210" x2="170" y2="250" stroke="#333" stroke-width="2" />
    <line x1="280" y1="210" x2="280" y2="250" stroke="#333" stroke-width="2" />
    <line x1="520" y1="210" x2="520" y2="250" stroke="#333" stroke-width="2" />
    <line x1="630" y1="210" x2="630" y2="250" stroke="#333" stroke-width="2" />
    
    <!-- 网桥到WireGuard的连接 -->
    <line x1="225" y1="290" x2="225" y2="320" stroke="#333" stroke-width="2" />
    <line x1="575" y1="290" x2="575" y2="320" stroke="#333" stroke-width="2" />
    
    <!-- WireGuard之间的加密隧道 -->
    <path d="M 225,360 C 225,420 575,420 575,360" stroke="#4472C4" stroke-width="3" stroke-dasharray="10,5" fill="none" />
    <text x="400" y="440" font-family="Arial, sans-serif" font-size="16" text-anchor="middle" fill="#4472C4">加密UDP隧道</text>
    
    <!-- 物理网络 -->
    <rect x="100" y="450" width="600" height="30" rx="5" fill="#A5A5A5" />
    <text x="400" y="470" font-family="Arial, sans-serif" font-size="16" text-anchor="middle" fill="white">物理网络 (192.168.1.0/24)</text>
    
    <!-- WireGuard到物理网络的连接 -->
    <line x1="225" y1="360" x2="225" y2="450" stroke="#333" stroke-width="2" />
    <line x1="575" y1="360" x2="575" y2="450" stroke="#333" stroke-width="2" />
    
    <!-- 特性说明 -->
    <rect x="650" y="380" width="140" height="100" rx="5" fill="#E7E6E6" />
    <text x="720" y="400" font-family="Arial, sans-serif" font-size="14" text-anchor="middle" fill="#333">WireGuard特性</text>
    <text x="660" y="420" font-family="Arial, sans-serif" font-size="12" text-anchor="start" fill="#333">• 端到端加密</text>
    <text x="660" y="440" font-family="Arial, sans-serif" font-size="12" text-anchor="start" fill="#333">• 低延迟</text>
    <text x="660" y="460" font-family="Arial, sans-serif" font-size="12" text-anchor="start" fill="#333">• 内核级实现</text>
    <text x="660" y="480" font-family="Arial, sans-serif" font-size="12" text-anchor="start" fill="#333">• 简单密钥管理</text>
    
    <!-- 数据包流向 -->
    <path d="M 170,180 C 400,50 630,180" stroke="#FFC000" stroke-width="2" stroke-dasharray="5,3" fill="none" />
    <polygon points="630,180 620,175 620,185" fill="#FFC000" />
    <text x="400" y="80" font-family="Arial, sans-serif" font-size="14" text-anchor="middle" fill="#FFC000">Pod A → Pod D 数据包流向</text>
</svg>
